<svg xmlns="http://www.w3.org/2000/svg" viewBox="0 0 18 16.6"><path d="M16.7 3.8h-2V.5c0-.3-.2-.5-.5-.5H3.8c-.3 0-.5.2-.5.5v3.3h-2C.6 3.8 0 4.4 0 5.1v7c0 .7.6 1.3 1.3 1.3h2v2.7c0 .3.2.5.5.5h10.3c.3 0 .5-.2.5-.5v-2.7h2c.7 0 1.3-.6 1.3-1.3v-7c.1-.7-.5-1.3-1.2-1.3zM4.4 1.1h9.3v2.7H4.4V1.1zm9.2 14.4H4.4v-5.4h9.3v5.4zm3.3-3.4c0 .1-.1.2-.2.2h-2V9.6c0-.3-.2-.5-.5-.5H3.8c-.3-.1-.5.2-.5.5v2.7h-2c-.1 0-.2-.1-.2-.2v-7c0-.1.1-.2.2-.2h15.5c.1 0 .2.1.2.2l-.1 7z"/><path d="M14.2 7.7c.4 0 .8-.3.8-.8 0-.4-.3-.8-.8-.8-.4 0-.8.3-.8.8s.3.8.8.8zm-2.7 3.5h-5c-.3 0-.5.2-.5.5s.2.5.5.5h5c.3 0 .5-.2.5-.5s-.2-.5-.5-.5zm0 2.2h-5c-.3 0-.5.2-.5.5s.2.5.5.5h5c.3 0 .5-.2.5-.5s-.2-.5-.5-.5z"/></svg>