<?xml version="1.0" encoding="utf-8"?><svg viewBox="0 0 28 28" xmlns="http://www.w3.org/2000/svg" xmlns:xlink="http://www.w3.org/1999/xlink"><style>:root>svg{display:none}:root>svg:target{display:block}</style><svg viewBox="0 0 21 16" id="arrow" xmlns="http://www.w3.org/2000/svg"><path d="M20.707 8.707a1 1 0 0 0 0-1.414L14.343.929a1 1 0 1 0-1.414 1.414L18.586 8l-5.657 5.657a1 1 0 0 0 1.414 1.414l6.364-6.364zM0 9h20V7H0v2z"/></svg><svg viewBox="0 0 14 10" id="arrow-up" xmlns="http://www.w3.org/2000/svg"><path d="M14 7.083v2.46L7 2.29 0 9.543v-2.46L7 0l7 7.083z"/></svg><svg viewBox="0 0 24 21" id="attention" xmlns="http://www.w3.org/2000/svg"><path d="M23.25 20.959H.75a.75.75 0 0 1-.65-1.124L11.35.348c.269-.464 1.031-.464 1.3 0L23.9 19.835a.751.751 0 0 1-.65 1.124zm-21.203-1.5h19.906L12 2.223 2.047 19.46z"/><path d="M12 17.961a.744.744 0 0 1-.75-.75c0-.194.082-.39.217-.531a.868.868 0 0 1 .247-.158.748.748 0 0 1 .818.158.789.789 0 0 1 .217.532.743.743 0 0 1-.75.75zM12 14.963a.75.75 0 0 1-.75-.75V5.97a.75.75 0 1 1 1.499 0v8.244a.75.75 0 0 1-.75.75z"/></svg><svg viewBox="0 0 16 16" id="back" xmlns="http://www.w3.org/2000/svg"><path d="M16 8c0 2.133-.83 4.138-2.339 5.646a7.932 7.932 0 0 1-5.645 2.338 7.937 7.937 0 0 1-4.558-1.427 7.988 7.988 0 0 1-2.21-2.317v1.686H0v-3.743h3.743v1.248h-1.53a6.691 6.691 0 0 0 5.803 3.306A6.744 6.744 0 0 0 14.752 8H16zM7.953 1.263a6.691 6.691 0 0 1 5.802 3.306h-1.498v1.248h3.712V2.074H14.72V3.76a7.987 7.987 0 0 0-2.21-2.317A7.937 7.937 0 0 0 7.953.016a7.886 7.886 0 0 0-5.631 2.34A7.953 7.953 0 0 0 0 8h1.248c0-3.715 3.008-6.737 6.705-6.737zm-2.36 3.15l-.806.8c-.36.36-.398.86-.234 1.368.285.879.585 1.569 1.956 2.94 1.372 1.372 2.099 1.594 2.953 1.946.196.08.382.12.556.12.31 0 .582-.124.813-.354l.803-.807L9.57 8.36 8.507 9.4a8.695 8.695 0 0 1-.998-.878c-.4-.401-.706-.741-.937-1.045l1.033-1.041-2.011-2.023z"/></svg><svg viewBox="0 0 17 12" id="catalog" xmlns="http://www.w3.org/2000/svg"><path d="M0 0h17v2H0V0zM0 5h17v2H0V5zM0 10h17v2H0v-2z"/></svg><svg viewBox="0 0 14 14" id="cross" xmlns="http://www.w3.org/2000/svg"><path d="M.418 12.151L12.57 0 14 1.43 1.847 13.58l-1.43-1.43z"/><path d="M1.43.021L13.58 12.173l-1.43 1.43L.002 1.45 1.43.021z"/></svg><svg viewBox="0 0 16 16" id="email" xmlns="http://www.w3.org/2000/svg"><path d="M15.989 3.446a.492.492 0 0 0-.02-.1A.989.989 0 0 0 15 2.5H1a.989.989 0 0 0-.969.846.492.492 0 0 0-.02.1C.01 3.465 0 3.481 0 3.5v9c0 .019.01.036.011.055a.483.483 0 0 0 .02.099A.989.989 0 0 0 1 13.5h14a.989.989 0 0 0 .969-.847.483.483 0 0 0 .02-.099c.001-.018.011-.035.011-.054v-9c0-.019-.01-.035-.011-.054zm-1.335.054l-5.55 4.07L8 8.38l-1.103-.809-.001-.001-5.55-4.07h13.308zM1 4.487l4.792 3.514L1 11.514V4.487zm.346 8.013l5.292-3.879 1.066.782a.497.497 0 0 0 .592 0l1.066-.782 5.292 3.879H1.346zM15 11.514l-4.792-3.513L15 4.487v7.027z"/></svg><svg viewBox="0 0 14 14" id="magnifer" xmlns="http://www.w3.org/2000/svg"><path d="M9.753 8.308c1.715-2.374 1.141-5.66-1.28-7.34C6.054-.712 2.702-.15.989 2.223c-1.714 2.373-1.141 5.659 1.28 7.34a5.46 5.46 0 0 0 5.834.236l3.96 3.858a1.14 1.14 0 0 0 1.588.04 1.086 1.086 0 0 0 0-1.598L9.753 8.308zm-4.386.36c-1.912 0-3.463-1.52-3.464-3.395 0-1.875 1.549-3.395 3.462-3.396 1.91 0 3.46 1.516 3.464 3.389.003 1.875-1.546 3.398-3.46 3.401h-.002z"/></svg><svg viewBox="0 0 16 16" id="phone" xmlns="http://www.w3.org/2000/svg"><g clip-path="url(#iclip0)"><path d="M12.645 9.912c-.327-.341-.723-.524-1.141-.524-.416 0-.814.18-1.155.52l-1.067 1.064c-.088-.047-.176-.091-.26-.135-.122-.06-.237-.118-.335-.179-1-.635-1.908-1.462-2.779-2.533-.422-.533-.706-.982-.912-1.438.277-.253.534-.517.784-.77.094-.095.189-.193.284-.287.709-.71.709-1.628 0-2.337l-.922-.922c-.105-.105-.213-.213-.314-.32-.203-.21-.416-.426-.635-.629-.328-.324-.72-.496-1.132-.496-.412 0-.81.172-1.148.496l-.006.007L.758 2.587a2.47 2.47 0 0 0-.732 1.57c-.081.987.209 1.905.432 2.506.547 1.476 1.364 2.844 2.583 4.31a15.892 15.892 0 0 0 5.292 4.143c.777.368 1.813.803 2.972.878.07.003.145.006.212.006.78 0 1.435-.28 1.949-.837.003-.007.01-.01.013-.017.176-.213.378-.405.591-.611.145-.139.294-.284.44-.436.334-.348.51-.753.51-1.168 0-.419-.18-.82-.521-1.159l-1.854-1.86zm1.21 3.556c-.004 0-.004.003 0 0-.133.142-.268.27-.413.412-.22.209-.442.428-.652.675-.34.365-.743.537-1.27.537-.05 0-.104 0-.155-.004-1.003-.064-1.935-.455-2.634-.79a14.998 14.998 0 0 1-4.984-3.903c-1.152-1.388-1.921-2.671-2.431-4.05-.314-.84-.43-1.495-.379-2.113a1.55 1.55 0 0 1 .466-1.003l1.152-1.152c.165-.155.341-.24.513-.24.213 0 .385.129.493.237l.01.01c.206.193.402.392.608.605l.321.327.922.922c.358.358.358.689 0 1.047-.098.098-.193.196-.29.29-.284.29-.554.56-.848.824-.007.007-.014.01-.017.017-.29.29-.236.574-.176.767l.01.03c.24.58.578 1.128 1.091 1.78l.004.003c.932 1.148 1.914 2.043 2.998 2.729a4.6 4.6 0 0 0 .416.226c.121.06.236.118.334.179.014.007.027.017.04.024a.732.732 0 0 0 .335.084c.28 0 .456-.176.513-.233l1.155-1.155c.115-.115.297-.253.51-.253.21 0 .382.131.486.246l.007.007 1.86 1.86c.348.345.348.7.004 1.058zM8.647 3.806a4.282 4.282 0 0 1 2.33 1.209 4.304 4.304 0 0 1 1.209 2.33c.037.223.23.378.449.378a.456.456 0 0 0 .453-.534 5.209 5.209 0 0 0-1.463-2.82 5.208 5.208 0 0 0-2.82-1.462.458.458 0 0 0-.526.372.451.451 0 0 0 .368.527zM15.98 7.058a8.569 8.569 0 0 0-2.407-4.643A8.569 8.569 0 0 0 8.93.007a.454.454 0 1 0-.149.898 7.672 7.672 0 0 1 4.15 2.151 7.65 7.65 0 0 1 2.152 4.15c.037.223.23.379.449.379.027 0 .05-.004.077-.007a.447.447 0 0 0 .372-.52z"/></g><defs><clipPath id="iclip0"><path d="M0 0h16v16H0z"/></clipPath></defs></svg><svg viewBox="0 0 28 28" id="touch" xmlns="http://www.w3.org/2000/svg"><g clip-path="url(#jclip0)"><path d="M26.18 11.117l-4.785-5.259a2.436 2.436 0 0 0-4.061 1.06 2.438 2.438 0 0 0-3.82 1.272 2.439 2.439 0 0 0-3.811 1.248L7.447 7.183a2.436 2.436 0 0 0-3.445 3.445l8.665 8.665-5.14.807a2.85 2.85 0 0 0-2.435 2.809c0 1.052.856 1.909 1.909 1.909h12c1.87 0 3.627-.728 4.95-2.05l2.002-2.002A6.942 6.942 0 0 0 28 15.822a6.98 6.98 0 0 0-1.82-4.705zm-1.127 8.749l-2.002 2.002a5.69 5.69 0 0 1-4.05 1.677h-12a.637.637 0 0 1-.637-.636c0-.774.578-1.44 1.353-1.55l6.383-1.003a.637.637 0 0 0 .351-1.078l-9.55-9.55a1.164 1.164 0 0 1 1.647-1.645l6.367 6.367a.637.637 0 1 0 .899-.9l-2.6-2.601a1.162 1.162 0 0 1 .007-1.646c.45-.45 1.188-.45 1.638 0l2.602 2.602a.637.637 0 1 0 .898-.901l-1.327-1.328a1.162 1.162 0 0 1 .007-1.645c.45-.45 1.188-.45 1.638 0l1.334 1.333c.003.002.001.002.001.002h.002v.002l.002.001h.001a.636.636 0 0 0 .888-.911l-.054-.055a1.155 1.155 0 0 1 .006-1.646c.454-.45 1.187-.449 1.618-.02l4.765 5.236a5.715 5.715 0 0 1 1.488 3.85 5.68 5.68 0 0 1-1.675 4.043z"/><path d="M10.94 6.558a5.738 5.738 0 0 0-5.213-3.376A5.734 5.734 0 0 0 0 8.909a5.74 5.74 0 0 0 3.377 5.214.64.64 0 0 0 .842-.318.639.639 0 0 0-.318-.842 4.463 4.463 0 0 1-2.628-4.054 4.46 4.46 0 0 1 4.454-4.455 4.463 4.463 0 0 1 4.054 2.629.636.636 0 0 0 1.16-.524z"/></g><defs><clipPath id="jclip0"><path d="M0 0h28v28H0z"/></clipPath></defs></svg></svg>