<svg id="Layer_3" data-name="Layer 3" xmlns="http://www.w3.org/2000/svg" viewBox="0 0 15 15"><defs><style>.cls-1{fill:#ef1b19}</style></defs><title>action-15x15</title><path class="cls-1" d="M4.14 5.59a1.35 1.35 0 0 0 .31.5c.22.22.45.22.62.06s.16-.38.08-.72a1.18 1.18 0 0 1 .22-1.16 1 1 0 0 1 1.5.05 1.15 1.15 0 0 1 .3.48l-.49.34a.82.82 0 0 0-.23-.4.38.38 0 0 0-.56 0c-.15.15-.15.3 0 .72a1.13 1.13 0 0 1-.26 1.15A1.05 1.05 0 0 1 4 6.51a1.56 1.56 0 0 1-.37-.57zM6.1 7.41l-.67.45L5 7.4l3-1.94.55.54-2 3-.47-.46.46-.67zm.77 0l.44-.6.49-.61-.65.47-.61.43zm2.43-.62l.48.48-2.07 2.06.63.63-.41.41-1.1-1.11zm1.04 3.82L9.78 10l-.67.67.63.63-.42.42-1.1-1.07 2.47-2.47 1.07 1.07-.42.42-.59-.59-.57.57.56.56zM3.46 4.54a1.09 1.09 0 0 1-.77-1.85 1.11 1.11 0 0 1 1.53 0 1.08 1.08 0 0 1-.77 1.85zm0-1.61a.53.53 0 0 0-.37.9.54.54 0 0 0 .75 0 .53.53 0 0 0-.37-.9z"/><path class="cls-1" d="M9.59 15a.56.56 0 0 1-.39-.16l-9-9a.56.56 0 0 1-.2-.57l1-3.83A.56.56 0 0 1 1.44 1l3.83-1a.55.55 0 0 1 .53.16l9 9a.56.56 0 0 1 0 .79L10 14.84a.56.56 0 0 1-.39.16zM1.18 5.24l8.41 8.41 4.07-4.07-8.42-8.4L2 2l-.82 3.24z"/></svg>