<svg id="Layer_3" data-name="Layer 3" xmlns="http://www.w3.org/2000/svg" viewBox="0 0 36 36"><defs><style>.cls-1{fill:#cfc6be}</style></defs><title>attention</title><path class="cls-1" d="M18 12.63a1.64 1.64 0 0 1-1.11-.4 1.41 1.41 0 0 1-.46-1.13 1.4 1.4 0 0 1 .44-1.1A1.59 1.59 0 0 1 18 9.6a1.63 1.63 0 0 1 1 .4 1.38 1.38 0 0 1 .47 1.13 1.42 1.42 0 0 1-.47 1.1 1.57 1.57 0 0 1-1 .4zm1.53 3.21v9a2 2 0 0 1-.44 1.41 1.47 1.47 0 0 1-1.13.48 1.4 1.4 0 0 1-1.11-.49 2.07 2.07 0 0 1-.43-1.4v-8.91a2 2 0 0 1 .43-1.39 1.43 1.43 0 0 1 1.11-.47 1.49 1.49 0 0 1 1.13.47 1.81 1.81 0 0 1 .41 1.3z"/><path class="cls-1" d="M18 36A18 18 0 0 1 5.28 5.27a18 18 0 0 1 25.46 25.46A17.9 17.9 0 0 1 18 36zm0-32.94A14.94 14.94 0 0 0 7.44 28.57 14.95 14.95 0 0 0 28.57 7.43 14.85 14.85 0 0 0 18 3.06z"/></svg>