<svg id="Isolation_Mode" data-name="Isolation Mode" xmlns="http://www.w3.org/2000/svg" viewBox="0 0 7.77 22.03"><defs><style>.cls-1{fill:#b4b4b4}.cls-2{fill:#fff}</style></defs><title>carousel-arrow-prev-8x11</title><path class="cls-1" d="M6.65 0a1.23 1.23 0 0 1 .79.27.84.84 0 0 1 0 1.33L2.72 5.54 7.35 9.4a.84.84 0 0 1 0 1.33 1.29 1.29 0 0 1-1.6 0L.32 6.23A.85.85 0 0 1 0 5.56a.89.89 0 0 1 .34-.67L5.85.28a1.27 1.27 0 0 1 .8-.28z"/><path class="cls-2" d="M6.65 11a1.23 1.23 0 0 1 .79.27.84.84 0 0 1 0 1.33l-4.72 3.96 4.63 3.86a.84.84 0 0 1 0 1.33 1.29 1.29 0 0 1-1.6 0L.32 17.24a.85.85 0 0 1-.32-.66.89.89 0 0 1 .34-.67l5.51-4.61a1.27 1.27 0 0 1 .8-.28z"/></svg>