<svg id="Isolation_Mode" data-name="Isolation Mode" xmlns="http://www.w3.org/2000/svg" viewBox="0 0 7.77 22"><defs><style>.cls-1{fill:#b4b4b4}.cls-2{fill:#fff}</style></defs><title>carousel-arrow-next-8x11</title><path class="cls-1" d="M1.12 11a1.23 1.23 0 0 1-.79-.27.84.84 0 0 1 0-1.33L5 5.47.42 1.61A.84.84 0 0 1 .43.27 1.29 1.29 0 0 1 2 .26l5.45 4.52a.85.85 0 0 1 .32.66.89.89 0 0 1-.34.67l-5.51 4.61a1.27 1.27 0 0 1-.8.28z"/><path class="cls-2" d="M1.13 22a1.23 1.23 0 0 1-.79-.27.84.84 0 0 1 0-1.33L5 16.46.44 12.6a.84.84 0 0 1 0-1.33 1.29 1.29 0 0 1 1.6 0l5.4 4.5a.85.85 0 0 1 .32.66.89.89 0 0 1-.34.67l-5.49 4.62a1.27 1.27 0 0 1-.8.28z"/></svg>