<svg id="Isolation_Mode" data-name="Isolation Mode" xmlns="http://www.w3.org/2000/svg" viewBox="0 0 16 32"><defs><style>.cls-1{fill:#4f453c}.cls-2{fill:#ef1717}</style></defs><title>close-16x16</title><path class="cls-1" d="M.92 16a.92.92 0 0 1-.65-1.56L14.44.27a.92.92 0 0 1 1.3 1.3L1.56 15.73a.91.91 0 0 1-.64.27z"/><path class="cls-1" d="M15.08 16a.91.91 0 0 1-.65-.27L.27 1.56A.92.92 0 0 1 1.56.27l14.17 14.17a.92.92 0 0 1-.65 1.56z"/><path class="cls-2" d="M.92 32a.92.92 0 0 1-.65-1.56l14.17-14.17a.92.92 0 1 1 1.3 1.3L1.56 31.73a.91.91 0 0 1-.64.27z"/><path class="cls-2" d="M15.08 32a.91.91 0 0 1-.65-.27L.27 17.56a.92.92 0 1 1 1.3-1.3l14.16 14.18a.92.92 0 0 1-.65 1.56z"/></svg>