<svg width="84" height="21" fill="none" xmlns="http://www.w3.org/2000/svg"><g clip-path="url(#clip0)" fill-rule="evenodd" clip-rule="evenodd"><path d="M84 .74S82.44.555 80.593.555A30.61 30.61 0 0077.28.74v5.764H84V.74zm0 13.604h-6.72V20.2s1.894.184 3.407.184c1.515 0 3.313-.23 3.313-.23v-5.811z" fill="#E4003E"/><path d="M73.257.74h-8.282l-5.773 7.055h-2.698V.74h-7.146v19.507h7.146v-7.333h2.603l5.82 7.333h8.85L65.118 9.87 73.257.74zm-50.684 0H0v19.507h7.24V6.274h8.093v13.973h7.24V.74zm3.502 5.165L25.035.74S31.8.232 36.012.232 45.29.74 45.29.74s1.561 3.966 1.561 9.546c0 5.58-1.609 9.96-1.609 9.96s-4.827.508-9.275.508c-4.449 0-10.932-.507-10.932-.507l1.041-5.165s4.543.322 8.424.322c3.88 0 5.395-.322 5.395-.322s.19-.969.284-2.076h-9.276v-4.98h9.323c-.095-1.291-.284-2.075-.284-2.075s-3.17-.323-5.868-.323c-2.745-.046-7.998.277-7.998.277z" fill="#242265"/></g><defs><clipPath id="clip0"><path fill="#fff" d="M0 0h84v21H0z"/></clipPath></defs></svg>