<svg width="185" height="28" fill="none" xmlns="http://www.w3.org/2000/svg"><path d="M139.128 21.654v-6.306h-2.34v9.796h1.983l5.671-6.385v6.385h2.34v-9.796h-1.983l-5.671 6.306zm25.144.04v-6.385h-2.34v9.796h1.983l5.672-6.425v6.425h2.34v-9.796h-2.062l-5.593 6.385zm-7.376-2.538h-5.156v-3.808h-2.34v9.796h2.34v-3.847h5.156v3.847h2.34v-9.796h-2.34v3.808zm-28.556-3.808l-5.631 9.796h2.776l3.688-6.464 3.728 6.464h2.895l-5.631-9.796h-1.825zm54.097 0l-5.553 6.386v-6.386h-2.34v9.796h1.983l5.672-6.425v6.425h2.34v-9.796h-2.102zm-56.992 0h-10.946v2.142h9.677l1.269-2.142zm-10.946 3.808v2.141h7.496l1.269-2.141h-8.765zm-51.836-3.808H51.717v2.142h9.677l1.27-2.142zm-19.631-2.181h-1.904l-5.632 9.796h-1.428V28h2.221v-2.895h11.502V28h2.22v-5.037h-1.427l-5.553-9.796zm-4.76 9.836l3.689-6.465 3.728 6.465h-7.417zm40.692-7.893c-3.927 0-5.79 2.42-5.79 5.077 0 2.816 1.824 5.076 5.79 5.076 1.745 0 5.75-.793 5.75-5.076 0-2.816-1.784-5.077-5.75-5.077zm0 8.012c-2.261 0-3.213-1.31-3.213-2.895 0-1.746 1.11-2.935 3.213-2.935 2.419 0 3.212 1.19 3.212 2.934 0 2.102-1.586 2.896-3.212 2.896zm-13.406-7.774l-5.631 9.796h2.776l3.688-6.464 3.728 6.464h2.896l-5.593-9.796h-1.864zm43.984 9.796h2.339v-9.796h-2.339v9.796zm-4.442-6.306h-3.57v-3.53h-2.34v9.797h5.87c1.586 0 3.252-.873 3.252-3.213 0-2.974-2.102-3.054-3.212-3.054zm-.119 4.244h-3.451v-2.181h3.451c.396 0 1.031.119 1.031 1.11-.04.873-.516 1.071-1.031 1.071zm-53.224-3.926v2.141h7.495l1.27-2.141h-8.765zm62.742 5.988h5.314l1.23-2.141h-6.544v2.141zm-19.513-5.79c.635-.278 1.15-.674 1.15-1.745 0-2.023-1.705-2.26-2.895-2.26h-6.345v9.795h6.464c2.975 0 3.57-1.626 3.57-3.133-.04-1.665-.992-2.38-1.944-2.657zm-5.79-1.943h3.768c.555 0 .793.277.793.872s-.357.873-.793.873h-3.768V17.41zm4.124 5.671h-4.124V20.98h4.124c.675 0 1.15.159 1.15 1.031 0 .674-.317 1.071-1.15 1.071zm-41.563 2.062h5.314l1.23-2.141h-6.544v2.141z" fill="#000"/><path d="M18.204 17.768L8.448 10.51l-2.38 4.125 11.144 4.838.992-1.705zm1.507-2.618l-8.368-9.637-2.38 4.085 9.757 7.257.991-1.705zm1.785-3.093L14.516 0l-2.618 4.56 8.368 9.638 1.23-2.141zM2.618 20.623L0 25.184h13.92l1.23-2.142-12.532-2.419zm12.532 4.561h3.688l3.253-5.632 3.291 5.632h3.689l-6.98-12.057-6.94 12.057zm1.547-4.799L5.552 15.547l-2.38 4.085 12.533 2.419.992-1.666z" fill="#F9B000"/></svg>