<svg width="150" height="21" fill="none" xmlns="http://www.w3.org/2000/svg"><path d="M18.994 2.45c-.09.262-.267.525-.444.787L4.88 19.6c-.444.525-.887.787-1.509.787-.532 0-.887-.262-.887-.787L1.242 3.237c0-.262.089-.525.178-.787.177-.525.621-1.05 1.154-1.4C3.106.612 3.639.437 4.26.437c.976 0 1.42.35 1.509 1.138l.444 11.55 9.142-11.463c.62-.787 1.42-1.224 2.396-1.224.621 0 .976.175 1.243.612.266.438.266.875 0 1.4zm86.804.35a1.897 1.897 0 01-.443.7L91.597 19.863c-.444.525-.887.787-1.509.787-.532 0-.887-.262-.887-.787L88.047 3.588c0-.263.089-.525.177-.788.178-.525.622-1.05 1.154-1.4.533-.437 1.065-.612 1.687-.612.976 0 1.42.437 1.508 1.225l.444 11.55 9.231-11.638c.621-.787 1.42-1.137 2.397-1.137.621 0 .976.175 1.242.612.089.35.178.788-.089 1.4zm-65.68.438C38.964 1.313 36.834.35 33.816.35c-3.017 0-6.035.963-8.964 2.888-3.018 1.925-5.148 4.287-6.48 7.087-1.33 2.8-1.42 5.163-.266 7.088 1.154 1.925 3.284 2.887 6.302 2.887s6.036-.962 8.965-2.887c3.017-1.925 5.148-4.288 6.479-7.088 1.42-2.8 1.42-5.162.266-7.087zm-4.704 7.087c-.799 1.75-2.041 3.15-3.817 4.288-1.686 1.137-3.461 1.75-5.236 1.75s-3.018-.525-3.64-1.75c-.62-1.138-.62-2.625.267-4.288.799-1.75 2.13-3.15 3.817-4.287 1.775-1.138 3.55-1.75 5.236-1.75 1.775 0 3.018.612 3.728 1.662.533 1.225.533 2.625-.355 4.375zm26.539-8.75c-.089.175-.178.35-.355.438L46.775 15.838h7.367c.622 0 .977.175 1.154.612.266.438.178.875-.089 1.4a3.763 3.763 0 01-1.242 1.4c-.622.35-1.154.613-1.775.613H39.142c-.532 0-.71-.263-.444-.788.09-.175.267-.35.444-.525L53.521 4.813h-5.237c-.621 0-.976-.175-1.154-.613-.266-.35-.177-.875 0-1.4.267-.525.71-1.05 1.243-1.4a4.778 4.778 0 011.775-.612H61.42c.267 0 .355.087.444.262.178.175.178.35.089.525zM82.988 3.15C81.834 1.225 79.704.263 76.686.263c-3.017 0-6.035.962-8.964 2.887-3.018 1.925-5.148 4.288-6.48 7.088-1.33 2.8-1.42 5.162-.266 7.087 1.154 1.925 3.284 2.888 6.302 2.888s6.036-.963 8.965-2.888c3.017-1.925 5.148-4.287 6.479-7.087 1.331-2.8 1.42-5.163.266-7.088zm-4.704 7.175c-.799 1.75-2.13 3.15-3.816 4.288-1.776 1.137-3.55 1.662-5.326 1.662-1.775 0-3.018-.525-3.639-1.662-.621-1.138-.621-2.625.266-4.288.8-1.75 2.13-3.15 3.817-4.375 1.775-1.137 3.461-1.662 5.237-1.662 1.775 0 3.017.612 3.727 1.662.622 1.138.533 2.625-.266 4.375zm49.527-7.175c-1.154-1.925-3.285-2.887-6.302-2.887-3.018 0-6.036.962-8.965 2.887-2.929 1.925-5.148 4.288-6.479 7.088-1.331 2.8-1.42 5.162-.266 7.087 1.154 1.925 3.284 2.888 6.301 2.888 3.018 0 6.036-.963 8.965-2.888 3.018-1.925 5.148-4.287 6.479-7.087 1.42-2.8 1.509-5.163.267-7.088zm-4.705 7.088c-.798 1.75-2.041 3.15-3.816 4.287-1.775 1.138-3.462 1.75-5.326 1.75-1.775 0-3.017-.612-3.639-1.75-.621-1.137-.532-2.537.267-4.287.798-1.75 2.13-3.15 3.816-4.288 1.775-1.137 3.462-1.662 5.237-1.75 1.775 0 3.018.525 3.639 1.75.799 1.138.71 2.538-.178 4.288zm26.539-8.663c-.089.175-.177.263-.355.438L134.468 15.75h7.367c.532 0 .976.175 1.153.613.267.437.178.875-.088 1.4-.267.612-.71 1.05-1.243 1.4-.621.35-1.154.612-1.775.612h-13.136c-.533 0-.71-.262-.444-.787.089-.175.266-.35.444-.525l14.556-13.738h-5.237c-.532 0-.976-.175-1.154-.612-.266-.35-.177-.875.089-1.4.267-.525.71-.963 1.243-1.4.621-.438 1.154-.613 1.775-.613h11.272c.266 0 .355.088.444.263 0 .175 0 .35-.089.612z" fill="#EC1B22"/></svg>