<svg width="181" height="29" fill="none" xmlns="http://www.w3.org/2000/svg"><path d="M18.201 27.326H1.061a1.02 1.02 0 01-1.013-1.014 1.02 1.02 0 011.014-1.014H18.2a1.02 1.02 0 011.014 1.014 1.02 1.02 0 01-1.014 1.014zm1.014-25.781c0 .29-.217.507-.507.507h-1.014a.51.51 0 01-.506-.507V.507c0-.29.217-.507.506-.507h1.038c.29 0 .507.217.507.507v1.038h-.024zm-17.163 0a.51.51 0 01-.507.507H.507A.51.51 0 010 1.545V.507A.51.51 0 01.507 0h1.038a.51.51 0 01.507.507v1.038zM1.037 16.343a1.02 1.02 0 01-1.014-1.014V3.839a1.02 1.02 0 011.014-1.015 1.02 1.02 0 011.014 1.014v11.49c0 .556-.434 1.015-1.014 1.015zm17.164 0a1.02 1.02 0 01-1.014-1.014V3.839a1.02 1.02 0 011.014-1.015 1.02 1.02 0 011.014 1.014v11.49c0 .556-.434 1.015-1.014 1.015zM15.352 2.052H3.862a1.02 1.02 0 01-1.014-1.014A1.02 1.02 0 013.862.024h11.49a1.02 1.02 0 011.014 1.014c.024.555-.435 1.014-1.014 1.014zm3.863 15.57a.51.51 0 00-.507-.507h-1.014a.51.51 0 00-.506.507v1.038a.51.51 0 00.506.507h1.038a.51.51 0 00.507-.507v-1.038h-.024zm-17.14 0a.495.495 0 00-.507-.507H.53a.51.51 0 00-.507.507v1.038c0 .29.218.507.507.507h1.038a.51.51 0 00.507-.507v-1.038zm13.277-.507H3.862a1.02 1.02 0 00-1.014 1.014 1.02 1.02 0 001.014 1.013h11.49a1.02 1.02 0 001.014-1.013c.024-.556-.435-1.014-1.014-1.014zm.074-.821c-.242 0-.483-.096-.676-.265L3.138 4.466a.984.984 0 01-.024-1.376c.362-.387.966-.387 1.352-.024l11.611 11.562c.387.387.387.99.024 1.376a.914.914 0 01-.675.29z" fill="#00A0DE"/><path d="M3.815 16.294a.914.914 0 01-.676-.29.984.984 0 01.024-1.376L14.774 3.065a.933.933 0 011.352.025.984.984 0 01-.024 1.376L4.49 16.029a1.037 1.037 0 01-.676.265zm31.284-8.28h-2.8l.096.024h2.366l.338-.024zm58.852 11.032l2.052-6.855 2.052 6.855h2.848L97.427 8.594l-.072-.218H94.65l-.072.218-3.476 10.452h2.848zM77.947 8.328H74.76l-3.62 3.548V8.328h-2.68v10.694h2.68v-3.477l.724-.796 3.524 4.273h3.307l-5.02-6.325 4.272-4.37zm-27.301 0v1.014c0-.024-.025-.024-.025-.048-1.013-1.256-2.848-1.256-2.872-1.256h-.097c-2.486-.024-4.369 1.642-5.07 3.911a5.661 5.661 0 00-.265 1.714v.217c.121 2.97 2.487 5.335 5.408 5.408.748 0 1.834-.17 2.462-.773 0 0 .241-.217.434-.507v1.014h2.825V8.352h-2.8v-.024zm0 6.663c-.025.048-.049.12-.073.169-.53.99-1.545 1.69-2.728 1.69a2.9 2.9 0 01-1.883-.677 3.233 3.233 0 01-1.086-2.269v-.193c0-.555.145-1.086.386-1.545.532-.99 1.545-1.69 2.728-1.69.7 0 1.376.242 1.883.676.338.29.604.676.797 1.087.169.362.265.748.29 1.182v.194a3.843 3.843 0 01-.314 1.376z" fill="#00A0DE"/><path d="M86.565 8.4v1.014c0-.024-.024-.024-.024-.048-1.014-1.231-2.849-1.255-2.849-1.255h-.096c-2.462-.025-4.345 1.641-5.045 3.886a5.623 5.623 0 00-.266 1.69v.217c.12 2.97 2.487 5.335 5.383 5.383.749 0 1.81-.169 2.463-.772 0 0 .241-.217.434-.507v1.014h2.8V8.4h-2.8zm0 6.639c-.024.048-.048.12-.072.169-.531.99-1.545 1.665-2.728 1.665a2.95 2.95 0 01-1.883-.676 3.225 3.225 0 01-1.086-2.245v-.193c0-.555.144-1.086.386-1.545.531-.99 1.545-1.665 2.704-1.665.7 0 1.351.241 1.883.676.337.29.603.676.796 1.086.17.362.266.748.29 1.159v.193c0 .483-.097.965-.29 1.376zm-45.89-1.761c-.072-1.714-.966-3.235-2.342-4.2-1.376-1.135-3.427-1.087-3.427-1.087h-2.801V4.612h6.59v-2.68h-9.27v17.043h5.577c.097 0 .217 0 .386-.024 2.366-.17 4.346-1.714 5.046-3.814a5.467 5.467 0 00.265-1.666c0-.048 0-.12-.024-.193zm-3.428 1.569c-.434.724-1.207 1.255-2.1 1.448h-3.042v-5.648l2.294-.025h.724c.072.025.169.025.241.049.435.096.82.265 1.159.507.652.507 1.086 1.23 1.134 2.051v.17c0 .555-.144 1.038-.41 1.448zM66.24 18.66c0-.024 0-.049-.025-.073 0-.024 0-.048-.024-.072v-.048c-.096-.58-.12-1.69-.145-2.656V8.183h-2.824v5.673c-.024.434-.12 1.231-.459 1.738-.458.628-1.182 1.038-1.98 1.038h-.216a2.665 2.665 0 01-1.159-.41 2.556 2.556 0 01-.99-1.352v-.024c-.072-.193-.12-.628-.145-.918-.024-.145-.024-.265-.024-.265-.145-2.149 0-5.456 0-5.456l-.072-.024h-2.655c0 1.038.024 4.973 0 5.649.024.627.096 1.665.434 2.583.145.362.338.748.58 1.086a.652.652 0 00.168.193c.073.073.145.145.193.217a4.01 4.01 0 001.256.87h.024c.217.096.893.362 1.955.362.145 0 .266 0 .362-.025 0 0 1.835.025 2.897-1.472.024.41.097 1.014.29 1.231h2.607a.703.703 0 00-.048-.217z" fill="#00A0DE"/><path d="M178.562 15.329c-.531.99-1.521 1.617-2.607 1.617-1.594 0-2.897-1.328-2.994-3.018v-.193c0-.53.121-1.086.362-1.545.531-1.038 1.545-1.665 2.632-1.665 1.086 0 2.1.627 2.631 1.641l.048.097 2.366-.966-.049-.096c-.917-2.076-2.92-3.404-5.093-3.404-2.462 0-4.611 1.641-5.359 4.104a6.402 6.402 0 00-.266 1.786v.217c.121 3.163 2.583 5.649 5.625 5.649 2.148 0 4.08-1.255 5.045-3.259l.048-.096-2.317-.942-.072.072zm-48.497-6.47a3.556 3.556 0 00-.314-.218c-.024-.024-.048-.024-.073-.048-.072-.048-.12-.072-.193-.12l-.096-.049c-.121-.072-.242-.12-.338-.169-.049-.024-.073-.024-.121-.048-.072-.024-.121-.048-.193-.072-.048-.025-.072-.025-.121-.049h-.024c-.096-.024-.193-.072-.265-.096-.049-.024-.121-.024-.169-.049-.049-.024-.121-.024-.169-.048-.073-.024-.145-.024-.242-.048-.048 0-.12-.024-.169-.024-.096-.024-.169-.024-.265-.024h-.121c-.121 0-.217-.025-.338-.025h-.024c-.145 0-.29 0-.435.025h-.072c-.121.024-.241.024-.362.048l-.097.024c-.12.024-.241.048-.338.072l-.072.025c-.121.024-.241.072-.362.096l-.048.024a4.736 4.736 0 00-.387.17c-1.231.554-2.221 1.544-2.824 2.775l-.048.097c-.121.241-.193.483-.29.748a6.402 6.402 0 00-.266 1.787v.217c.025.483.097.99.218 1.448l.024.12a6.7 6.7 0 00.265.701c.025.048.049.072.049.12l.048.097c.121.218.241.459.386.652l.048.048c.145.193.29.387.459.58l.048.048c.049.048.097.12.169.169l.025.024c.096.097.217.217.338.314.024.024.048.048.072.048.048.048.121.097.169.145l.048.024c.121.073.217.17.338.242l.073.048c.072.048.12.072.193.12l.072.049c.121.048.217.12.338.169.048.024.072.024.121.048.072.024.12.048.193.072.048.025.096.025.145.049.096.024.193.072.265.096.049.024.121.024.169.049.048.024.121.024.169.048.073.024.145.024.242.048.048 0 .12.024.169.024a.984.984 0 00.265.024h.121c.121 0 .217.024.362.024s.29 0 .434-.024h.073c.121 0 .241-.024.362-.048l.096-.024c.121-.024.242-.048.338-.072l.073-.025c.121-.024.241-.072.362-.096l.072-.024c.121-.049.266-.097.362-.145h.025a5.744 5.744 0 002.824-2.776l.048-.097-2.559-1.062-.048.097c-.531.99-1.545 1.593-2.607 1.593-.41 0-.797-.072-1.159-.241-.917-.508-1.4-1.111-1.545-1.932h8.087v-.096c.121-.893.242-4.007-2.003-5.697zm-.531 3.669h-5.359c.048-.12.096-.217.144-.338.531-1.038 1.545-1.666 2.632-1.666.41 0 .796.073 1.158.242.652.362 1.183.99 1.425 1.762zm-11.973 1.183l-.049.097c-.917 1.69-2.462 2.68-4.152 2.68-2.703 0-4.9-2.584-4.9-5.77 0-3.187 2.197-5.77 4.9-5.77 1.98 0 3.766 1.4 4.515 3.549l.048.096 2.824-1.207-.048-.096c-1.255-3.307-4.128-5.432-7.363-5.432-4.393 0-7.966 3.96-7.966 8.836s3.573 8.835 7.966 8.835c2.8 0 5.432-1.666 6.88-4.37l.097-.169v-.024l-2.752-1.255zm27.326-1.69c-.772-2.486-2.848-4.104-5.286-4.104h-.193c-.025 0-1.763.025-2.849 1.16v-.87h-3.138v17.38h3.138v-6.951c.145.169.266.265.266.265h.024c.748.7 1.931.82 2.607.82 3.09-.047 5.576-2.558 5.697-5.672v-.217a5.076 5.076 0 00-.266-1.81zm-7.531-.724c.555-.434 1.207-.676 1.883-.676 1.134 0 2.172.652 2.727 1.69.242.483.387 1.014.387 1.569v.193a3.28 3.28 0 01-1.087 2.27c-.555.434-1.207.675-1.883.675-1.134 0-2.172-.652-2.727-1.69-.025-.048-.049-.12-.073-.169a3.383 3.383 0 01-.289-1.4v-.193a3.4 3.4 0 01.289-1.183 3.1 3.1 0 01.773-1.086zm19.529 4.176v-.024c-.024-.7-.29-1.28-.797-1.787l-.024-.024a5.492 5.492 0 00-.676-.555c.049-.072.121-.169.169-.241a2.306 2.306 0 00.821-1.763c0-1.279-1.279-2.583-2.752-2.8-.434-.024-.748-.048-.917-.048h-.145l-5.962.024v10.887h2.92l1.449-.024h2.245c1.593-.12 2.993-1.11 3.476-2.462.121-.362.193-.724.193-1.087v-.096zm-3.042.434c-.024.483-.434.845-.796.942-.048.024-.121.024-.193.048-.266.048-.58.073-.797.073h-2.39v-2.56h2.294c.096 0 .627 0 .989.097h.024c.025 0 .025 0 .049.024.048 0 .072.025.12.049l.025.024c.024.024.048.024.096.048.314.193.531.507.555.845v.217s.049.17.024.193zm-.724-3.814c-.241.097-.386.121-.434.121h-3.042v-1.81h3.066c.024 0 .145.024.29.096.313.17.531.483.531.748.024.435-.097.676-.411.845zm16.149 6.953a.457.457 0 01-.048-.194c0-.024 0-.048-.024-.072l-.024-.12c-.097-.604-.121-1.763-.145-2.632V8.28h-3.042v5.794c-.024.434-.12 1.207-.434 1.69a2.39 2.39 0 01-1.907.99h-.193c-.411-.025-.773-.17-1.111-.387a2.626 2.626 0 01-.941-1.28v-.023c-.048-.145-.097-.46-.145-.87v-.024c0-.096-.024-.169-.024-.217v-.048c-.145-2.124 0-5.407 0-5.456v-.145h-2.969v.121c0 1.859.024 5.045 0 5.649.024.7.12 1.69.434 2.607.169.41.386.797.604 1.11.048.073.096.145.169.218.072.072.145.145.193.217.362.386.821.676 1.303.893h.025c.241.12.941.362 1.955.362h.048c.145 0 .266 0 .362-.024.073 0 1.714-.024 2.825-1.303.048.506.144.844.313 1.013l.025.024h2.8l-.049-.144z" fill="#3D3834"/><path d="M62.498 5.286c-.362.459-.942.82-1.617.845a2.166 2.166 0 01-1.787-.845l-1.424.773c.507 1.23 1.81 2.1 3.283 2.027 1.352-.048 2.51-.869 2.993-2.003l-1.448-.797zm-30.73 19.869h-.82v2.124h-.797v-2.124h-.82v-.676h2.461v.676h-.024zm1.738-.677h.797v.41c.193-.265.458-.458.869-.458.651 0 1.279.507 1.279 1.448 0 .942-.604 1.448-1.28 1.448-.434 0-.675-.193-.868-.41v1.207h-.797v-3.645zm2.148 1.4c0-.459-.314-.772-.676-.772-.362 0-.675.313-.675.772s.313.773.675.773c.362 0 .676-.29.676-.773zm2.511.579c0-.603.459-.893 1.135-.893.29 0 .482.048.675.12v-.047c0-.338-.193-.508-.603-.508a2 2 0 00-.772.145l-.194-.603c.314-.145.604-.217 1.087-.217.434 0 .748.12.941.313.217.218.314.507.314.894v1.617h-.773v-.314c-.193.217-.458.362-.844.362-.531 0-.966-.29-.966-.869zm1.81-.169v-.145a1.12 1.12 0 00-.506-.096c-.338 0-.556.145-.556.386 0 .217.17.338.435.338.386 0 .627-.193.627-.483zm5.311.99h-.796v-1.062h-.966v1.062h-.797v-2.8h.797v1.086h.966v-1.086h.796v2.8zm1.883-1.4c0-.797.603-1.448 1.473-1.448.53 0 .844.193 1.11.483l-.459.458c-.169-.169-.338-.265-.651-.265-.387 0-.676.338-.676.772 0 .435.265.773.7.773.265 0 .458-.121.651-.29l.459.459c-.266.29-.58.506-1.135.506-.869.025-1.472-.627-1.472-1.448zm6.952 1.4h-.796v-2.124h-.966v2.124h-.797v-2.8h2.535v2.8h.024zm1.884-1.4c0-.797.652-1.448 1.52-1.448.87 0 1.497.651 1.497 1.448 0 .797-.651 1.448-1.52 1.448-.87.025-1.497-.627-1.497-1.448zm2.245 0c0-.41-.29-.772-.724-.772-.459 0-.725.338-.725.772 0 .41.29.773.725.773.458 0 .724-.338.724-.773zm2.654-1.4h.797v.41c.193-.265.459-.458.869-.458.652 0 1.28.507 1.28 1.448 0 .942-.604 1.448-1.28 1.448-.435 0-.676-.193-.87-.41v1.207h-.796v-3.645zm2.149 1.4c0-.459-.314-.772-.676-.772-.362 0-.676.313-.676.772s.314.773.676.773c.362 0 .676-.29.676-.773zm4.755-.724h-.82v2.124h-.797v-2.124h-.82v-.676h2.461v.676h-.024zm4.297 2.124h-.797v-1.062h-.966v1.062h-.796v-2.8h.796v1.086h.966v-1.086h.797v2.8zm1.859-.821c0-.603.459-.893 1.134-.893.29 0 .483.048.676.12v-.047c0-.338-.193-.508-.603-.508a2 2 0 00-.773.145l-.193-.603c.314-.145.604-.217 1.087-.217.434 0 .748.12.941.313.217.218.314.507.314.894v1.617h-.773v-.314c-.193.217-.458.362-.844.362-.532 0-.966-.29-.966-.869zm1.81-.169v-.145a1.12 1.12 0 00-.507-.096c-.337 0-.555.145-.555.386 0 .217.17.338.435.338.386 0 .627-.193.627-.483zm5.215.99h-.773v-.893h-.434l-.58.893h-.917l.724-1.038c-.362-.145-.579-.41-.579-.845 0-.555.41-.941 1.135-.941h1.472v2.824h-.048zm-.773-1.473v-.7h-.53c-.29 0-.46.121-.46.363 0 .217.17.337.46.337h.53zm5.674-1.327h.796v1.159l.99-1.159h.917l-1.038 1.159 1.159 1.641h-.942l-.748-1.062-.362.386v.676h-.797v-2.8h.024zm4.2 1.4c0-.797.652-1.448 1.52-1.448.87 0 1.497.651 1.497 1.448 0 .797-.651 1.448-1.52 1.448-.87.025-1.497-.627-1.497-1.448zm2.245 0c0-.41-.29-.772-.724-.772-.459 0-.725.338-.725.772 0 .41.29.773.725.773.434 0 .724-.338.724-.773zm2.655-1.4h.796l.748 1.183.773-1.183h.796v2.8h-.796v-1.69l-.773 1.16-.772-1.135v1.665h-.773v-2.8zm7.676 2.8h-.796v-2.124h-.966v2.124h-.797v-2.8h2.559v2.8zm1.859-.821c0-.603.459-.893 1.135-.893.29 0 .483.048.676.12v-.047c0-.338-.193-.508-.604-.508a2 2 0 00-.772.145l-.193-.603c.314-.145.603-.217 1.086-.217.435 0 .748.12.942.313.217.218.313.507.313.894v1.617h-.772v-.314c-.193.217-.459.362-.845.362-.531 0-.966-.29-.966-.869zm1.811-.169v-.145a1.12 1.12 0 00-.507-.096c-.338 0-.555.145-.555.386 0 .217.169.338.434.338.386 0 .628-.193.628-.483zm5.311.99h-.797v-1.062h-.966v1.062h-.796v-2.8h.796v1.086h.966v-1.086h.797v2.8zm4.61 0h-.772v-1.617l-1.086 1.617h-.749v-2.8h.773v1.641l1.086-1.641h.748v2.8zm4.49 0h-.796v-.893h-.435l-.579.893h-.917l.724-1.038c-.362-.145-.58-.41-.58-.845 0-.555.411-.941 1.135-.941h1.472v2.824h-.024zm-.796-1.473v-.7h-.531c-.29 0-.459.121-.459.363 0 .217.169.337.459.337h.531z" fill="#00A0DE"/></svg>