<svg width="32" height="32" fill="none" xmlns="http://www.w3.org/2000/svg"><g clip-path="url(#clip0)" fill="#4365AF"><path d="M23.247 13.852V7.797a.7.7 0 00-.194-.46l-6.79-7.13A.677.677 0 0015.778 0H5.012C3.025 0 1.438 1.62 1.438 3.608v20.355a3.564 3.564 0 003.574 3.582h8.497C15.116 30.213 18.038 32 21.366 32c5.055 0 9.184-4.108 9.184-9.17.006-4.422-3.168-8.117-7.303-8.977zm-6.803-11.51l4.555 4.794h-2.955c-.88 0-1.6-.727-1.6-1.607V2.341zM5.012 26.21c-1.247 0-2.24-1-2.24-2.248V3.608c0-1.254.993-2.274 2.24-2.274H15.11v4.195a2.94 2.94 0 002.934 2.941h3.869v5.209c-.2-.007-.36-.027-.534-.027-2.328 0-4.468.894-6.082 2.295h-8.47c-.368 0-.668.3-.668.666 0 .367.3.668.667.668h7.23a10.613 10.613 0 00-1.174 2.067H6.826c-.367 0-.667.3-.667.667 0 .367.3.667.667.667h5.623a8.98 8.98 0 00-.254 2.148c0 1.2.234 2.387.654 3.388H5.012v-.007zm16.36 4.462c-4.321 0-7.836-3.515-7.836-7.837A7.84 7.84 0 0121.373 15a7.84 7.84 0 017.836 7.836c0 4.322-3.515 7.837-7.836 7.837z"/><path d="M6.826 13.94h6.756c.367 0 .667-.3.667-.667a.67.67 0 00-.667-.668H6.826c-.367 0-.667.3-.667.668 0 .366.3.667.667.667zm17.961 8.756l-2.74 2.955v-7.283a.67.67 0 00-.668-.667c-.367 0-.667.3-.667.667v7.283l-2.761-2.955a.673.673 0 00-.947-.033.665.665 0 00-.033.94l3.901 4.195c.127.134.3.214.487.214s.36-.08.487-.214l3.908-4.195a.664.664 0 00-.027-.94.665.665 0 00-.94.033z"/></g><defs><clipPath id="clip0"><path fill="#fff" d="M0 0h32v32H0z"/></clipPath></defs></svg>