<svg id="Layer_3" data-name="Layer 3" xmlns="http://www.w3.org/2000/svg" viewBox="0 0 31 36"><defs><style>.cls-1{fill:#858585}</style></defs><title>doc</title><path class="cls-1" d="M19.16 35.2a.82.82 0 0 1-.85-.8v-9.59a.82.82 0 0 1 .85-.8h10.15a.8.8 0 1 1 0 1.6H20v8.79a.82.82 0 0 1-.85.8z"/><path class="cls-1" d="M19.16 36H1.69A1.65 1.65 0 0 1 0 34.4V1.6A1.65 1.65 0 0 1 1.69 0h27.62A1.65 1.65 0 0 1 31 1.6v23.21a1.55 1.55 0 0 1-.5 1.13l-10.14 9.59a1.74 1.74 0 0 1-1.2.47zM3.38 32.8h15.08l9.16-8.65V3.2H3.38v29.6z"/><path class="cls-1" d="M17.33 8.46H7.4a.8.8 0 1 1 0-1.6h9.93a.8.8 0 1 1 0 1.6zm6.55 3.86H7.4a.8.8 0 1 1 0-1.6h16.48a.8.8 0 1 1 0 1.6zm0 3.86H7.4a.8.8 0 1 1 0-1.6h16.48a.8.8 0 1 1 0 1.6zM14.3 20H7.4a.8.8 0 1 1 0-1.6h6.9a.8.8 0 1 1 0 1.6z"/></svg>