<svg width="24" height="24" viewBox="0 0 24 24" fill="none" xmlns="http://www.w3.org/2000/svg">
<path d="M19.7073 23.5891C14.5743 24.137 9.42572 24.137 4.29272 23.5891C2.24597 23.3707 0.629333 21.754 0.410889 19.7071C-0.136963 14.5741 -0.136963 9.42572 0.410889 4.29272C0.629333 2.24597 2.24597 0.629333 4.29272 0.410889C9.42572 -0.136963 14.5741 -0.136963 19.7071 0.410889C21.754 0.629333 23.3707 2.24597 23.5891 4.29272C24.137 9.42572 24.137 14.5741 23.5891 19.7071C23.3707 21.754 21.7542 23.3707 19.7073 23.5891Z" fill="url(#paint0_linear)"/>
<path d="M22.2837 5.1608C22.09 3.34457 20.6555 1.90994 18.8391 1.71603C14.2842 1.23007 9.71573 1.23007 5.1608 1.71603C3.34457 1.90994 1.90994 3.34457 1.71603 5.1608C1.23007 9.71573 1.23007 14.2842 1.71603 18.839C1.90994 20.6554 3.34457 22.09 5.1608 22.2837C9.71573 22.7699 14.2842 22.7699 18.839 22.2837C20.6554 22.09 22.09 20.6554 22.2837 18.839C22.7699 14.2842 22.7699 9.71573 22.2837 5.1608Z" fill="url(#paint1_linear)"/>
<path d="M0.359375 19.2095C0.375855 19.3754 0.392883 19.5413 0.410645 19.7072C0.629089 21.7539 2.24573 23.3705 4.29266 23.589C9.42566 24.1368 14.574 24.1368 19.707 23.589C21.754 23.3705 23.3704 21.7539 23.5889 19.7072C23.6066 19.5413 23.6237 19.3754 23.6403 19.2095H0.359375Z" fill="url(#paint2_linear)"/>
<path d="M16.1342 3.99707C14.0432 3.99707 12.3481 5.69226 12.3481 7.78333V10.6114H10.3105V14.1129L12.3481 15.9379V23.999C14.8021 23.9871 17.2559 23.8506 19.7064 23.5892C21.7534 23.3707 23.3698 21.7541 23.5883 19.7072C23.9958 15.8879 24.1 12.0603 23.901 8.23669L19.6614 3.99707H16.1342Z" fill="url(#paint3_linear)"/>
<path d="M12.3481 23.999C13.7465 23.9922 15.1447 23.9448 16.5424 23.8569V14.1129H19.3252L19.6614 10.6114H16.5424V8.38794C16.5424 7.89685 16.9404 7.49878 17.4315 7.49878H19.6614V3.99707H16.1342C14.0432 3.99707 12.3481 5.69226 12.3481 7.78333V10.6114H10.3105V14.1129H12.3481V23.999Z" fill="white"/>
<defs>
<linearGradient id="paint0_linear" x1="7.96847" y1="3.37435" x2="14.0388" y2="16.3619" gradientUnits="userSpaceOnUse">
<stop stop-color="#3457A0"/>
<stop offset="1" stop-color="#3B5998"/>
</linearGradient>
<linearGradient id="paint1_linear" x1="16.5526" y1="15.1281" x2="-4.42728" y2="0.712859" gradientUnits="userSpaceOnUse">
<stop stop-color="#3457A0" stop-opacity="0"/>
<stop offset="1" stop-color="#1F3F77"/>
</linearGradient>
<linearGradient id="paint2_linear" x1="11.9998" y1="20.0564" x2="11.9998" y2="23.3041" gradientUnits="userSpaceOnUse">
<stop stop-color="#3457A0" stop-opacity="0"/>
<stop offset="1" stop-color="#1F3F77"/>
</linearGradient>
<linearGradient id="paint3_linear" x1="27.5512" y1="19.8202" x2="10.8932" y2="11.4206" gradientUnits="userSpaceOnUse">
<stop stop-color="#3457A0" stop-opacity="0"/>
<stop offset="0.3251" stop-color="#2A4C8D" stop-opacity="0.32549"/>
<stop offset="0.7045" stop-color="#22427D" stop-opacity="0.705882"/>
<stop offset="1" stop-color="#1F3F77"/>
</linearGradient>
</defs>
</svg>
