<svg id="Layer_3" data-name="Layer 3" xmlns="http://www.w3.org/2000/svg" viewBox="0 0 20 15"><defs><style>.cls-1{fill:#727272}</style></defs><title>headphones</title><path class="cls-1" d="M16.13 11.88a.83.83 0 0 1-.85-.81V6.64a5.17 5.17 0 0 0-5.28-5 5.17 5.17 0 0 0-5.28 5v4.43a.83.83 0 0 1-.85.81.83.83 0 0 1-.87-.81V6.64A6.82 6.82 0 0 1 10 0a6.82 6.82 0 0 1 7 6.64v4.43a.83.83 0 0 1-.85.81z"/><path class="cls-1" d="M16.27 11.88a.81.81 0 1 1 0-1.61 1.91 1.91 0 0 0 2-1.74 1.91 1.91 0 0 0-2-1.75.81.81 0 1 1 0-1.61A3.56 3.56 0 0 1 20 8.52a3.56 3.56 0 0 1-3.73 3.36zm-12.54 0A3.56 3.56 0 0 1 0 8.52a3.56 3.56 0 0 1 3.73-3.35.81.81 0 1 1 0 1.61 1.91 1.91 0 0 0-2 1.75 1.91 1.91 0 0 0 2 1.74.81.81 0 1 1 0 1.61z"/><path class="cls-1" d="M12.63 14.6h-.24a.81.81 0 1 1 0-1.61 3.18 3.18 0 0 0 2.35-.63 1.56 1.56 0 0 0 .49-1 .83.83 0 0 1 .84-.82.83.83 0 0 1 .85.8 3.11 3.11 0 0 1-1 2.19 4.73 4.73 0 0 1-3.35 1.1z"/><path class="cls-1" d="M12.12 12.43a1.29 1.29 0 1 0 1.35 1.28 1.32 1.32 0 0 0-1.35-1.28z"/></svg>