<svg width="24" height="24" viewBox="0 0 24 24" fill="none" xmlns="http://www.w3.org/2000/svg">
<path d="M23.5891 4.29272C23.3707 2.24597 21.7542 0.62915 19.7073 0.410889C14.5741 -0.136963 9.4259 -0.136963 4.29291 0.410889C2.24597 0.629333 0.629333 2.24597 0.410889 4.29272C-0.136963 9.42572 -0.136963 14.5741 0.410889 19.7071C0.629333 21.754 2.24597 23.3707 4.29272 23.5891C9.42572 24.137 14.5741 24.137 19.7073 23.5891C21.7542 23.3707 23.3707 21.754 23.5891 19.7071C24.137 14.5741 24.137 9.4259 23.5891 4.29272Z" fill="url(#paint0_radial)"/>
<path d="M22.2837 5.1608C22.09 3.34457 20.6555 1.90994 18.8391 1.71603C14.2842 1.23007 9.71573 1.23007 5.1608 1.71603C3.34457 1.90994 1.90994 3.34457 1.71603 5.1608C1.23007 9.71573 1.23007 14.2842 1.71603 18.839C1.90994 20.6554 3.34457 22.09 5.1608 22.2837C9.71573 22.7699 14.2842 22.7699 18.839 22.2837C20.6554 22.09 22.09 20.6554 22.2837 18.839C22.7699 14.2842 22.7699 9.71573 22.2837 5.1608Z" fill="url(#paint1_linear)"/>
<path d="M0.359375 19.2095C0.375855 19.3754 0.392883 19.5413 0.410645 19.7072C0.629089 21.7539 2.24573 23.3705 4.29266 23.589C9.42566 24.1368 14.574 24.1368 19.707 23.589C21.754 23.3705 23.3704 21.7539 23.5889 19.7072C23.6066 19.5413 23.6237 19.3754 23.6403 19.2095H0.359375Z" fill="url(#paint2_linear)"/>
<path d="M23.5888 19.7069C23.8832 16.9488 24.0191 14.1862 23.9971 11.4241L18.5113 5.93826C17.8259 5.15585 16.8249 4.66751 15.6486 4.62521C13.2296 4.53805 10.8029 4.54245 8.38354 4.62558C6.37415 4.69479 4.96899 6.04538 4.60864 8.03042C4.5451 8.38089 4.50702 8.73593 4.45703 9.08896V14.9084C4.48468 15.097 4.52533 15.2847 4.53796 15.4744C4.61853 16.6818 5.11475 17.716 5.90924 18.4156L11.4918 23.998C14.2314 24.0172 16.9712 23.8809 19.707 23.5889C21.7539 23.3705 23.3704 21.7538 23.5888 19.7069Z" fill="url(#paint3_linear)"/>
<path d="M23.5889 19.7075C23.3707 21.7541 21.7537 23.3711 19.7071 23.5894C16.9717 23.8812 14.2313 24.0176 11.4921 23.9984L5.91797 18.4243C6.56415 18.9899 7.40643 19.3344 8.38385 19.3712C10.8027 19.462 13.2299 19.4596 15.6487 19.3724C17.8365 19.2933 19.4196 17.6741 19.4879 15.4864C19.5608 13.1635 19.5608 10.8346 19.4879 8.51172C19.4568 7.50244 19.1025 6.61438 18.5151 5.94238L23.9974 11.4247C24.019 14.1865 23.8832 16.9494 23.5889 19.7075Z" fill="url(#paint4_linear)"/>
<path d="M14.8323 9.40106C14.1295 8.63586 13.1212 8.15576 12.0004 8.15576C9.87744 8.15576 8.15625 9.87695 8.15625 11.9999C8.15625 13.1207 8.63635 14.129 9.40155 14.8318L18.2955 23.7258C18.7663 23.6848 19.2371 23.6392 19.7075 23.589C21.7544 23.3705 23.371 21.7539 23.5895 19.707C23.6396 19.2366 23.6852 18.7658 23.7263 18.295L14.8323 9.40106Z" fill="url(#paint5_linear)"/>
<path d="M23.9538 14.5851L16.7958 7.42737C16.6288 7.20819 16.3657 7.06592 16.0689 7.06592C15.5639 7.06592 15.1543 7.47534 15.1543 7.98053C15.1543 8.27734 15.2966 8.54047 15.5157 8.70746L23.8258 17.0177C23.8822 16.2071 23.9249 15.3961 23.9538 14.5851Z" fill="url(#paint6_linear)"/>
<path d="M4.45703 9.08896C4.50702 8.73593 4.5451 8.38089 4.60864 8.03042C4.96881 6.04538 6.37415 4.69479 8.38354 4.62558C10.8029 4.54245 13.2296 4.53805 15.6486 4.62521C17.8356 4.70395 19.4195 6.32333 19.4878 8.51108C19.5605 10.8341 19.5605 13.1629 19.4878 15.4859C19.4195 17.6737 17.8362 19.2929 15.6488 19.3718C13.2298 19.4591 10.8026 19.4613 8.38373 19.3705C6.19635 19.2883 4.68427 17.6652 4.53796 15.4742C4.52533 15.2847 4.48468 15.0968 4.45703 14.9082C4.45703 12.9684 4.45703 11.0286 4.45703 9.08896ZM12.0017 18.0752C13.1088 18.0752 14.2169 18.1084 15.3225 18.0675C17.056 18.0033 18.1222 16.9687 18.1627 15.2369C18.2128 13.079 18.2128 10.9182 18.1627 8.7601C18.1222 7.02865 17.0552 5.96994 15.3225 5.93313C13.1232 5.88662 10.9216 5.88699 8.72229 5.93313C7.00275 5.96921 5.93341 7.0065 5.88672 8.7189C5.82739 10.9041 5.82739 13.0931 5.88672 15.2783C5.93341 16.9905 7.00275 18.0038 8.72247 18.0675C9.81415 18.1082 10.9086 18.0752 12.0017 18.0752Z" fill="url(#paint7_linear)"/>
<path d="M4.45703 9.08896C4.50702 8.73593 4.5451 8.38089 4.60864 8.03042C4.96881 6.04538 6.37415 4.69479 8.38354 4.62558C10.8029 4.54245 13.2296 4.53805 15.6486 4.62521C17.8356 4.70395 19.4195 6.32333 19.4878 8.51108C19.5605 10.8341 19.5605 13.1629 19.4878 15.4859C19.4195 17.6737 17.8362 19.2929 15.6488 19.3718C13.2298 19.4591 10.8026 19.4613 8.38373 19.3705C6.19635 19.2883 4.68427 17.6652 4.53796 15.4742C4.52533 15.2847 4.48468 15.0968 4.45703 14.9082C4.45703 12.9684 4.45703 11.0286 4.45703 9.08896ZM12.0017 18.0752C13.1088 18.0752 14.2169 18.1084 15.3225 18.0675C17.056 18.0033 18.1222 16.9687 18.1627 15.2369C18.2128 13.079 18.2128 10.9182 18.1627 8.7601C18.1222 7.02865 17.0552 5.96994 15.3225 5.93313C13.1232 5.88662 10.9216 5.88699 8.72229 5.93313C7.00275 5.96921 5.93341 7.0065 5.88672 8.7189C5.82739 10.9041 5.82739 13.0931 5.88672 15.2783C5.93341 16.9905 7.00275 18.0038 8.72247 18.0675C9.81415 18.1082 10.9086 18.0752 12.0017 18.0752Z" fill="white"/>
<path d="M12.0004 8.15576C9.87744 8.15576 8.15625 9.87677 8.15625 11.9997C8.15625 14.1228 9.87744 15.8438 12.0004 15.8438C14.1235 15.8438 15.8445 14.1228 15.8445 11.9997C15.8445 9.87677 14.1235 8.15576 12.0004 8.15576ZM12.0004 14.5203C10.6082 14.5203 9.47974 13.3918 9.47974 11.9997C9.47974 10.6075 10.6082 9.47906 12.0004 9.47906C13.3925 9.47906 14.521 10.6075 14.521 11.9997C14.521 13.3918 13.3925 14.5203 12.0004 14.5203Z" fill="white"/>
<path d="M16.9833 7.98053C16.9833 8.48553 16.5739 8.89496 16.0689 8.89496C15.5639 8.89496 15.1543 8.48553 15.1543 7.98053C15.1543 7.47534 15.5639 7.06592 16.0689 7.06592C16.5739 7.06592 16.9833 7.47534 16.9833 7.98053Z" fill="white"/>
<defs>
<radialGradient id="paint0_radial" cx="0" cy="0" r="1" gradientUnits="userSpaceOnUse" gradientTransform="translate(4.91986 20.9741) scale(26.4678)">
<stop stop-color="#FAE100"/>
<stop offset="0.0544" stop-color="#FADC04"/>
<stop offset="0.1167" stop-color="#FBCE0E"/>
<stop offset="0.1829" stop-color="#FCB720"/>
<stop offset="0.2514" stop-color="#FE9838"/>
<stop offset="0.3054" stop-color="#FF7950"/>
<stop offset="0.4922" stop-color="#FF1C74"/>
<stop offset="1" stop-color="#6C1CD1"/>
</radialGradient>
<linearGradient id="paint1_linear" x1="9.20494" y1="10.4278" x2="-31.4539" y2="-12.4428" gradientUnits="userSpaceOnUse">
<stop stop-color="#A1B5D8" stop-opacity="0"/>
<stop offset="0.3094" stop-color="#90A2BD" stop-opacity="0.309804"/>
<stop offset="0.7554" stop-color="#7C8B9C" stop-opacity="0.756863"/>
<stop offset="1" stop-color="#748290"/>
</linearGradient>
<linearGradient id="paint2_linear" x1="11.9998" y1="21.1858" x2="11.9998" y2="24.9268" gradientUnits="userSpaceOnUse">
<stop stop-color="#FAE100" stop-opacity="0"/>
<stop offset="0.3068" stop-color="#FCA800" stop-opacity="0.305882"/>
<stop offset="0.6275" stop-color="#FE7300" stop-opacity="0.627451"/>
<stop offset="0.8685" stop-color="#FF5200" stop-opacity="0.866667"/>
<stop offset="1" stop-color="#FF4500"/>
</linearGradient>
<linearGradient id="paint3_linear" x1="10.6343" y1="10.6005" x2="4.69473" y2="4.66085" gradientUnits="userSpaceOnUse">
<stop stop-color="#833AB4" stop-opacity="0"/>
<stop offset="1" stop-color="#833AB4"/>
</linearGradient>
<linearGradient id="paint4_linear" x1="16.4482" y1="21.9512" x2="13.4837" y2="7.97544" gradientUnits="userSpaceOnUse">
<stop stop-color="#833AB4" stop-opacity="0"/>
<stop offset="1" stop-color="#833AB4"/>
</linearGradient>
<linearGradient id="paint5_linear" x1="17.5769" y1="17.5764" x2="5.66948" y2="5.66898" gradientUnits="userSpaceOnUse">
<stop stop-color="#833AB4" stop-opacity="0"/>
<stop offset="1" stop-color="#833AB4"/>
</linearGradient>
<linearGradient id="paint6_linear" x1="18.46" y1="10.3716" x2="14.5225" y2="6.43405" gradientUnits="userSpaceOnUse">
<stop stop-color="#833AB4" stop-opacity="0"/>
<stop offset="1" stop-color="#833AB4"/>
</linearGradient>
<linearGradient id="paint7_linear" x1="16.7649" y1="7.26773" x2="7.05638" y2="16.9763" gradientUnits="userSpaceOnUse">
<stop stop-color="#833AB4"/>
<stop offset="0.0922" stop-color="#9C3495"/>
<stop offset="0.2927" stop-color="#DC2546"/>
<stop offset="0.392" stop-color="#FD1D1D"/>
<stop offset="0.5589" stop-color="#FC6831"/>
<stop offset="0.6887" stop-color="#FC9B40"/>
<stop offset="0.7521" stop-color="#FCAF45"/>
<stop offset="0.7806" stop-color="#FDB750"/>
<stop offset="0.8656" stop-color="#FECB6A"/>
<stop offset="0.9415" stop-color="#FFD87A"/>
<stop offset="1" stop-color="#FFDC80"/>
</linearGradient>
</defs>
</svg>
