<svg id="Layer_3" data-name="Layer 3" xmlns="http://www.w3.org/2000/svg" viewBox="0 0 12 13"><defs><style>.cls-1{fill:#ef1f1c}</style></defs><title>markdown-12x13</title><path class="cls-1" d="M2 13a.58.58 0 0 1-.31-.09.55.55 0 0 1-.16-.77L9.56.25a.58.58 0 0 1 .79-.16.55.55 0 0 1 .16.77L2.44 12.75A.58.58 0 0 1 2 13zm.33-6A2.3 2.3 0 0 1 0 4.75V2.42A2.3 2.3 0 0 1 2.33.15a2.3 2.3 0 0 1 2.33 2.27v2.33A2.3 2.3 0 0 1 2.33 7zm0-5.76a1.17 1.17 0 0 0-1.19 1.18v2.33a1.17 1.17 0 0 0 1.19 1.16 1.17 1.17 0 0 0 1.19-1.16V2.42a1.17 1.17 0 0 0-1.19-1.16zm7.34 11.61a2.3 2.3 0 0 1-2.33-2.27V8.25a2.33 2.33 0 0 1 4.66 0v2.34a2.3 2.3 0 0 1-2.33 2.27zm0-5.76a1.17 1.17 0 0 0-1.19 1.16v2.34a1.19 1.19 0 0 0 2.38 0V8.25a1.17 1.17 0 0 0-1.19-1.16z"/></svg>