<svg xmlns="http://www.w3.org/2000/svg" width="15.37" height="15.938" viewBox="0 0 15.37 15.938"><defs><style>.cls-1{fill:#614261;fill-rule:evenodd;filter:url(#filter)}</style><filter id="filter" x="1230.94" y="189" width="15.37" height="15.938" filterUnits="userSpaceOnUse"><feFlood result="flood" flood-color="#fff"/><feComposite result="composite" operator="in" in2="SourceGraphic"/><feBlend result="blend" in2="SourceGraphic"/></filter></defs><path id="Magnifying_Glass" data-name="Magnifying Glass" class="cls-1" d="M1239.51 200.087a7.444 7.444 0 0 1-2.78.845 6.086 6.086 0 0 1-5.79-6.232 5.633 5.633 0 0 1 5.79-5.708c3.27 0 6.23 2.439 6.23 5.708a6.715 6.715 0 0 1-1.45 3.762l4.6 4.311a.693.693 0 0 1 0 .979l-.98.979a.694.694 0 0 1-.98 0zm-2.52-9.171a4.013 4.013 0 1 1-4.02 4.012 4.014 4.014 0 0 1 4.02-4.012z" transform="translate(-1230.94 -189)"/></svg>