<svg xmlns="http://www.w3.org/2000/svg" width="18.75" height="19.438" viewBox="0 0 18.75 19.438"><defs><style>.cls-1{fill:#614261;fill-rule:evenodd;filter:url(#filter)}</style><filter id="filter" x="268.938" y="38.844" width="18.75" height="19.438" filterUnits="userSpaceOnUse"><feFlood result="flood" flood-color="#4466b3"/><feComposite result="composite" operator="in" in2="SourceGraphic"/><feBlend result="blend" in2="SourceGraphic"/></filter></defs><path id="Magnifying_Glass" data-name="Magnifying Glass" class="cls-1" d="M279.384 52.362A9.025 9.025 0 0 1 276 53.393c-3.985 0-7.057-3.611-7.057-7.6A6.866 6.866 0 0 1 276 38.839c3.985 0 7.6 2.973 7.6 6.957a8.249 8.249 0 0 1-1.766 4.586l5.6 5.254a.843.843 0 0 1 0 1.193l-1.193 1.193a.843.843 0 0 1-1.193 0zm-3.074-11.177a4.891 4.891 0 1 1-4.891 4.89 4.89 4.89 0 0 1 4.891-4.89z" transform="translate(-268.938 -38.844)"/></svg>