<svg width="24" height="24" viewBox="0 0 24 24" fill="none" xmlns="http://www.w3.org/2000/svg">
<path d="M19.7073 23.5891C14.5743 24.137 9.42572 24.137 4.29272 23.5891C2.24597 23.3707 0.629333 21.754 0.410889 19.7071C-0.136963 14.5741 -0.136963 9.42572 0.410889 4.29272C0.629333 2.24597 2.24597 0.629333 4.29272 0.410889C9.42572 -0.136963 14.5741 -0.136963 19.7071 0.410889C21.754 0.629333 23.3707 2.24597 23.5891 4.29272C24.137 9.42572 24.137 14.5741 23.5891 19.7071C23.3707 21.754 21.7542 23.3707 19.7073 23.5891Z" fill="url(#paint0_linear)"/>
<path d="M22.2837 5.1608C22.09 3.34457 20.6555 1.90994 18.8391 1.71603C14.2842 1.23007 9.71573 1.23007 5.1608 1.71603C3.34457 1.90994 1.90994 3.34457 1.71603 5.1608C1.23007 9.71573 1.23007 14.2842 1.71603 18.839C1.90994 20.6554 3.34457 22.09 5.1608 22.2837C9.71573 22.7699 14.2842 22.7699 18.839 22.2837C20.6554 22.09 22.09 20.6554 22.2837 18.839C22.7699 14.2842 22.7699 9.71573 22.2837 5.1608Z" fill="url(#paint1_linear)"/>
<path d="M0.359375 19.2095C0.375855 19.3754 0.392883 19.5413 0.410645 19.7072C0.629089 21.7539 2.24573 23.3705 4.29266 23.589C9.42566 24.1368 14.574 24.1368 19.707 23.589C21.754 23.3705 23.3704 21.7539 23.5889 19.7072C23.6066 19.5413 23.6237 19.3754 23.6403 19.2095H0.359375Z" fill="url(#paint2_linear)"/>
<path d="M17.0001 13.0001L15.5001 14.5001C15.0001 14.5001 13.5001 15.5001 13.5001 15.5001L13.5 16.0001C13.5 16.0001 13.5001 16.0001 13.5001 16.5001C11.7917 16.5001 12.7166 15.4675 13 15.0001C13.0803 14.8678 14.0369 14.346 14 14.0002C12.5 14.5002 12.0001 14.5001 12.0001 14.5001H11.5001L11.5 14.0002C11.5 14.0002 11.3646 13.7331 11 14.0002C11.0789 14.0882 10.905 14.4146 11 14.5001C11.0075 14.5086 10 14.1975 10 14.0002C9.76398 13.9842 9.41089 14.2903 9 14.0001C9 14.0001 8.93332 14.0589 8 14.0001L7.5 14.5001C8.5 16.0001 9 17.0001 9 17.0001C9 17.0001 11.2966 16.3816 12.0001 17.0001L11.0001 17.5001C10 18.0001 9 19.0001 8 19.5001L10.5001 24.0001C11.5001 24.0001 17.148 23.8625 19.7073 23.5893C21.0001 23.5001 22.5001 22.5002 22.5001 22.0002C22.5001 22.0002 18.5001 15.0001 17.0001 13.0001Z" fill="url(#paint3_linear)"/>
<path d="M15.4998 6.00003C14.9998 6.00001 12.4998 4.50003 12.7289 4.49609C10.606 4.49609 7.88477 6.71729 7.88477 8.84021C7.88477 9.961 8.49976 11 8.99976 11.5L18.2693 23.7421C18.7401 23.7011 19.2109 23.6555 19.6813 23.6053C21.7282 23.3869 23.3448 21.7703 23.5633 19.7233C23.6135 19.2529 23.6591 18.7822 23.7001 18.3114L15.4998 6.00003Z" fill="url(#paint4_linear)"/>
<path d="M11.9992 12.6665C14.3924 12.6665 16.3325 10.7264 16.3325 8.33322C16.3325 5.94002 14.3924 4 11.9992 4C9.60604 4 7.66602 5.94005 7.66602 8.33325C7.66895 10.7252 9.60729 12.6635 11.9992 12.6665ZM11.9992 5.99996C13.2879 5.99996 14.3325 7.04459 14.3325 8.33325C14.3325 9.62191 13.2879 10.6665 11.9992 10.6665C10.7106 10.6665 9.66594 9.62191 9.66594 8.33325C9.66594 7.04459 10.7106 5.99996 11.9992 5.99996Z" fill="white"/>
<path d="M16.2446 14.7197C16.7155 14.4096 16.9992 13.8837 16.9999 13.3198C17.0064 12.8518 16.7424 12.4221 16.3219 12.2165C15.8899 12.0007 15.3728 12.0493 14.9886 12.3419C13.2079 13.64 10.7927 13.64 9.01205 12.3419C8.62725 12.0509 8.11104 12.0023 7.67874 12.2165C7.25846 12.4221 6.99425 12.8513 7.00009 13.3191C7.00109 13.8829 7.28475 14.4086 7.75542 14.719C8.35928 15.1206 9.0169 15.4348 9.70872 15.6523C9.82607 15.6888 9.94716 15.7225 10.0721 15.7537L8.05745 17.7236C7.52896 18.2363 7.51618 19.0804 8.02895 19.6089C8.54172 20.1373 9.38579 20.1501 9.91431 19.6374C9.92531 19.6267 9.93613 19.6158 9.94675 19.6048L12.0001 17.4796L14.0573 19.6088C14.5697 20.1377 15.4138 20.1511 15.9427 19.6388C16.4716 19.1265 16.485 18.2824 15.9727 17.7535C15.962 17.7424 15.9511 17.7316 15.94 17.7209L13.9287 15.753C14.0535 15.721 14.1751 15.687 14.2933 15.651C14.9844 15.4343 15.6414 15.1208 16.2446 14.7197Z" fill="white"/>
<defs>
<linearGradient id="paint0_linear" x1="7.96847" y1="3.37435" x2="14.0388" y2="16.3619" gradientUnits="userSpaceOnUse">
<stop stop-color="#FF9800"/>
<stop offset="1" stop-color="#ED8D00"/>
</linearGradient>
<linearGradient id="paint1_linear" x1="17.0757" y1="14.7228" x2="-17.7931" y2="-3.98216" gradientUnits="userSpaceOnUse">
<stop stop-color="#BD7100" stop-opacity="0"/>
<stop offset="1" stop-color="#F39100"/>
</linearGradient>
<linearGradient id="paint2_linear" x1="11.9998" y1="20.5022" x2="11.9998" y2="23.647" gradientUnits="userSpaceOnUse">
<stop stop-color="#FF9800" stop-opacity="0"/>
<stop offset="1" stop-color="#F09002"/>
</linearGradient>
<linearGradient id="paint3_linear" x1="22.9416" y1="22.5973" x2="11.2169" y2="10.8726" gradientUnits="userSpaceOnUse">
<stop stop-color="#D57F02" stop-opacity="0"/>
<stop offset="1" stop-color="#D17D01"/>
</linearGradient>
<linearGradient id="paint4_linear" x1="19.4998" y1="19.5" x2="9.99976" y2="7.50003" gradientUnits="userSpaceOnUse">
<stop stop-color="#D07C00" stop-opacity="0"/>
<stop offset="1" stop-color="#C77702"/>
</linearGradient>
</defs>
</svg>
