<svg id="Isolation_Mode" data-name="Isolation Mode" xmlns="http://www.w3.org/2000/svg" viewBox="0 0 8 22"><defs><style>.cls-1{fill:#a9a9a9}.cls-2{fill:#fff}</style></defs><title>pag-shevron-8x11</title><path class="cls-1" d="M1.07 11a1.22 1.22 0 0 1-.78-.31.84.84 0 0 1 .08-1.33l4.9-3.69-4.41-4.1A.84.84 0 0 1 .94.24a1.29 1.29 0 0 1 1.59.07L7.71 5.1a.85.85 0 0 1 .29.68.89.89 0 0 1-.37.65l-5.74 4.33a1.27 1.27 0 0 1-.81.24z"/><path class="cls-2" d="M1.07 22a1.22 1.22 0 0 1-.78-.31.84.84 0 0 1 .08-1.33l4.9-3.69-4.41-4.1a.84.84 0 0 1 .08-1.33 1.29 1.29 0 0 1 1.59.07l5.18 4.79a.85.85 0 0 1 .29.68.89.89 0 0 1-.37.65l-5.74 4.33a1.27 1.27 0 0 1-.81.24z"/></svg>