<svg id="Isolation_Mode" data-name="Isolation Mode" xmlns="http://www.w3.org/2000/svg" viewBox="0 0 11 14"><defs><style>.cls-1{fill:#4f453b}.cls-2{fill:#b2b2b2}</style></defs><title>page-btns-11x7</title><path class="cls-1" d="M11 6a1.06 1.06 0 0 1-.27.72.89.89 0 0 1-1.33 0L5.5 2.47 1.61 6.7a.89.89 0 0 1-1.33 0 1.08 1.08 0 0 1 0-1.45L4.83.3a.89.89 0 0 1 1.33 0l4.56 4.94A1.07 1.07 0 0 1 11 6z"/><path class="cls-2" d="M11 13a1.06 1.06 0 0 1-.27.72.89.89 0 0 1-1.33 0L5.5 9.47 1.61 13.7a.89.89 0 0 1-1.33 0 1.08 1.08 0 0 1 0-1.45l4.55-5a.89.89 0 0 1 1.33 0l4.56 4.94A1.07 1.07 0 0 1 11 13z"/></svg>