<svg xmlns="http://www.w3.org/2000/svg" width="7.781" height="13.875" viewBox="0 0 7.781 13.875"><defs><style>.cls-1{fill:#614261;fill-rule:evenodd;filter:url(#filter)}</style><filter id="filter" x="990" y="19.625" width="7.781" height="13.875" filterUnits="userSpaceOnUse"><feFlood result="flood" flood-color="#9497a5"/><feComposite result="composite" operator="in" in2="SourceGraphic"/><feBlend result="blend" in2="SourceGraphic"/></filter></defs><path id="iPhone_3_G_" data-name="iPhone 3(G)" class="cls-1" d="M991.73 19.64h4.179a1.763 1.763 0 0 1 1.874 1.8v10.253a1.786 1.786 0 0 1-1.838 1.784h-4.107S990 33.811 990 31.621v-10.2a1.754 1.754 0 0 1 1.73-1.781zm5.188 2.594v8.648h-6.053v-8.647h6.053zm-3.053 9.513a.459.459 0 1 1-.46.459.459.459 0 0 1 .46-.458zm-1.271-11.242h2.595v.865h-2.595v-.865z" transform="translate(-990 -19.625)"/></svg>