<svg width="20" height="20" viewBox="0 0 20 20" fill="none" xmlns="http://www.w3.org/2000/svg">
<path d="M11.2652 12.9695L11.2653 12.9695L11.2617 12.9677C11.1228 12.8982 11.005 12.8391 10.9067 12.7782C9.80909 12.0809 8.80742 11.1699 7.8422 9.98423C7.42796 9.46049 7.13966 9.01687 6.92553 8.58107C7.16152 8.35865 7.38474 8.13213 7.59905 7.91464C7.62623 7.88706 7.65327 7.85962 7.68017 7.83235C7.73395 7.77856 7.7876 7.72395 7.84035 7.67026L7.84073 7.66987C7.89405 7.6156 7.94646 7.56226 7.99874 7.50999C8.43651 7.07221 8.67031 6.55336 8.67031 6.01875C8.67031 5.48413 8.43651 4.96528 7.99874 4.52751L6.9616 3.49038C6.84331 3.37209 6.72464 3.25338 6.6139 3.13526L6.61392 3.13524L6.61117 3.13239C6.38357 2.89721 6.14126 2.65094 5.89001 2.41882C5.48148 2.0159 4.98084 1.79117 4.44463 1.79117C3.90772 1.79117 3.39945 2.01644 2.97983 2.41928L2.97979 2.41924L2.97618 2.42285L2.97616 2.42288L2.97613 2.4229L2.97611 2.42292L2.97609 2.42294L2.97607 2.42296L2.97605 2.42299L2.97603 2.42301L2.976 2.42303L2.97598 2.42305L2.97596 2.42307L2.97594 2.42309L2.97592 2.42311L2.9759 2.42314L2.97588 2.42316L2.97585 2.42318L2.97583 2.4232L2.97581 2.42322L2.97579 2.42324L2.97577 2.42326L2.97575 2.42328L2.97573 2.4233L2.97571 2.42332L2.97569 2.42334L2.97567 2.42336L2.97565 2.42338L2.97563 2.4234L2.97561 2.42342L2.97559 2.42344L2.97557 2.42346L2.97555 2.42348L2.97553 2.4235L2.97551 2.42352L2.97549 2.42354L2.97547 2.42356L2.97545 2.42358L2.97543 2.4236L2.97541 2.42362L2.97539 2.42364L2.97537 2.42366L2.97535 2.42368L2.97534 2.4237L2.97532 2.42372L2.9753 2.42373L2.97528 2.42375L2.97526 2.42377L2.97524 2.42379L2.97522 2.42381L2.9752 2.42383L2.97519 2.42385L2.97517 2.42386L2.97515 2.42388L2.97513 2.4239L2.97511 2.42392L2.9751 2.42394L2.97508 2.42396L2.97506 2.42397L2.97504 2.42399L2.97502 2.42401L2.97501 2.42403L2.97499 2.42404L2.97497 2.42406L2.97495 2.42408L2.97494 2.4241L2.97492 2.42411L2.9749 2.42413L2.97488 2.42415L2.97487 2.42417L2.97485 2.42418L2.97483 2.4242L2.97481 2.42422L2.9748 2.42423L2.97478 2.42425L2.97476 2.42427L2.97475 2.42429L2.97473 2.4243L2.97471 2.42432L2.9747 2.42434L2.97468 2.42435L2.97466 2.42437L2.97465 2.42438L2.97463 2.4244L2.97461 2.42442L2.9746 2.42443L2.97458 2.42445L2.97457 2.42447L2.97455 2.42448L2.97453 2.4245L2.97452 2.42451L2.9745 2.42453L2.97449 2.42455L2.97447 2.42456L2.97446 2.42458L2.97444 2.42459L2.97442 2.42461L2.97441 2.42462L2.97439 2.42464L2.97438 2.42466L2.97436 2.42467L2.97435 2.42469L2.97433 2.4247L2.97432 2.42472L2.9743 2.42473L2.97429 2.42475L2.97427 2.42476L2.97426 2.42478L2.97424 2.42479L2.97423 2.42481L2.97421 2.42482L2.9742 2.42484L2.97418 2.42485L2.97417 2.42487L2.97415 2.42488L2.97414 2.4249L2.97412 2.42491L2.97411 2.42492L2.97409 2.42494L2.97408 2.42495L2.97406 2.42497L2.97405 2.42498L2.97404 2.425L2.97402 2.42501L2.97401 2.42502L2.97399 2.42504L2.97398 2.42505L2.97397 2.42507L2.97395 2.42508L2.97394 2.4251L2.97392 2.42511L2.97391 2.42512L2.9739 2.42514L2.97388 2.42515L2.97387 2.42516L2.97385 2.42518L2.97384 2.42519L2.97383 2.42521L2.97381 2.42522L2.9738 2.42523L2.97379 2.42525L2.97377 2.42526L2.97376 2.42527L2.97375 2.42529L2.97373 2.4253L2.97372 2.42531L2.97371 2.42533L2.97369 2.42534L2.97368 2.42535L2.97367 2.42537L2.97365 2.42538L2.97364 2.42539L2.97363 2.42541L2.97361 2.42542L2.9736 2.42543L2.97359 2.42544L2.97358 2.42546L2.97356 2.42547L2.97355 2.42548L2.97354 2.4255L2.97352 2.42551L2.97351 2.42552L2.9735 2.42553L2.97349 2.42555L2.97347 2.42556L2.97346 2.42557L2.97345 2.42558L2.97344 2.4256L2.97342 2.42561L2.97341 2.42562L2.9734 2.42563L2.97339 2.42565L2.97337 2.42566L2.97336 2.42567L2.97335 2.42568L2.97334 2.4257L2.97332 2.42571L2.97331 2.42572L2.9733 2.42573L2.97329 2.42575L2.97328 2.42576L2.97326 2.42577L2.97325 2.42578L2.97324 2.42579L2.97323 2.42581L2.97321 2.42582L2.9732 2.42583L2.97319 2.42584L2.97318 2.42585L2.97317 2.42587L2.97315 2.42588L2.97314 2.42589L2.97313 2.4259L2.97312 2.42591L2.97311 2.42593L2.9731 2.42594L2.97308 2.42595L2.97307 2.42596L2.97306 2.42597L2.97305 2.42598L2.97304 2.426L2.97303 2.42601L2.97301 2.42602L2.973 2.42603L2.97299 2.42604L2.97298 2.42605L2.97297 2.42607L2.97296 2.42608L2.97294 2.42609L2.97293 2.4261L2.97292 2.42611L2.97291 2.42612L2.9729 2.42614L2.97289 2.42615L2.97287 2.42616L2.97286 2.42617L2.97285 2.42618L2.97284 2.42619L2.97283 2.4262L2.97282 2.42622L2.97281 2.42623L2.97279 2.42624L2.97278 2.42625L2.97277 2.42626L2.97276 2.42627L2.97275 2.42628L2.97274 2.42629L2.97273 2.42631L2.97272 2.42632L2.9727 2.42633L2.97269 2.42634L2.97268 2.42635L2.97267 2.42636L2.97266 2.42637L2.97265 2.42638L2.97264 2.4264L2.97263 2.42641L2.97261 2.42642L2.9726 2.42643L2.97259 2.42644L2.97258 2.42645L2.97257 2.42646L2.97256 2.42647L2.97255 2.42649L2.97254 2.4265L2.97253 2.42651L2.97251 2.42652L2.9725 2.42653L2.97249 2.42654L2.97248 2.42655L2.97247 2.42656L2.97246 2.42657L2.97245 2.42659L2.97244 2.4266L2.97242 2.42661L2.97241 2.42662L2.9724 2.42663L2.97239 2.42664L2.97238 2.42665L2.97237 2.42666L2.97236 2.42667L2.97235 2.42669L2.97234 2.4267L2.97232 2.42671L2.97231 2.42672L2.9723 2.42673L2.97229 2.42674L2.97228 2.42675L2.97227 2.42676L2.97226 2.42678L2.97225 2.42679L2.97224 2.4268L2.97222 2.42681L2.97221 2.42682L2.9722 2.42683L2.97219 2.42684L2.97218 2.42685L2.97217 2.42686L2.97216 2.42688L2.97215 2.42689L2.97213 2.4269L2.97212 2.42691L2.97211 2.42692L2.9721 2.42693L2.97209 2.42694L2.97208 2.42695L2.97207 2.42697L2.97206 2.42698L2.97204 2.42699L2.97203 2.427L2.97202 2.42701L2.97201 2.42702L2.972 2.42703L2.97199 2.42704L2.97198 2.42706L2.97197 2.42707L2.97195 2.42708L2.97194 2.42709L2.97193 2.4271L2.97192 2.42711L2.97191 2.42712L2.9719 2.42714L2.97189 2.42715L2.97187 2.42716L2.97186 2.42717L2.97185 2.42718L2.97184 2.42719L2.97183 2.4272L2.97182 2.42722L2.97181 2.42723L2.97179 2.42724L2.97178 2.42725L2.97177 2.42726L2.97176 2.42727L2.97175 2.42729L2.97174 2.4273L2.97172 2.42731L2.97171 2.42732L2.9717 2.42733L2.97169 2.42734L2.97168 2.42736L2.97166 2.42737L2.97165 2.42738L2.97164 2.42739L2.97163 2.4274L2.97162 2.42742L2.97161 2.42743L2.97159 2.42744L2.97158 2.42745L2.97157 2.42746L2.97156 2.42747L2.97155 2.42749L2.97153 2.4275L2.97152 2.42751L2.97151 2.42752L2.9715 2.42754L2.97149 2.42755L2.97147 2.42756L2.97146 2.42757L2.97145 2.42758L2.97144 2.4276L2.97142 2.42761L2.97141 2.42762L2.9714 2.42763L2.97139 2.42765L2.97137 2.42766L2.97136 2.42767L2.97135 2.42768L2.97134 2.4277L2.97132 2.42771L2.97131 2.42772L2.9713 2.42773L2.97129 2.42775L2.97127 2.42776L2.97126 2.42777L2.97125 2.42778L2.97124 2.4278L2.97122 2.42781L2.97121 2.42782L2.9712 2.42783L2.97118 2.42785L2.97117 2.42786L2.97116 2.42787L2.97115 2.42789L2.97113 2.4279L2.97112 2.42791L2.97111 2.42793L2.97109 2.42794L2.97108 2.42795L2.97107 2.42797L2.97105 2.42798L2.97104 2.42799L2.97103 2.42801L2.97101 2.42802L2.971 2.42803L2.97099 2.42805L2.97097 2.42806L2.97096 2.42807L2.97095 2.42809L2.97093 2.4281L2.97092 2.42811L2.97091 2.42813L2.97089 2.42814L2.97088 2.42815L2.97086 2.42817L2.97085 2.42818L2.97084 2.4282L2.97082 2.42821L2.97081 2.42822L2.97079 2.42824L2.97078 2.42825L2.97077 2.42827L2.97075 2.42828L2.97074 2.42829L2.97072 2.42831L2.97071 2.42832L2.9707 2.42834L2.97068 2.42835L2.97067 2.42837L2.97065 2.42838L2.97064 2.4284L2.97062 2.42841L2.97061 2.42842L2.97059 2.42844L2.97058 2.42845L2.97056 2.42847L2.97055 2.42848L2.97053 2.4285L2.97052 2.42851L2.9705 2.42853L2.97049 2.42854L2.97047 2.42856L2.97046 2.42857L2.97044 2.42859L2.97043 2.4286L2.97041 2.42862L2.9704 2.42863L2.97038 2.42865L2.97037 2.42867L2.97035 2.42868L2.97034 2.4287L2.97032 2.42871L2.97031 2.42873L2.97029 2.42874L2.97027 2.42876L2.97026 2.42877L2.97024 2.42879L2.97023 2.42881L2.97021 2.42882L2.97019 2.42884L2.97018 2.42885L2.97016 2.42887L2.97015 2.42889L2.97013 2.4289L2.97011 2.42892L2.9701 2.42894L2.97008 2.42895L2.97006 2.42897L2.97005 2.42899L2.97003 2.429L2.97001 2.42902L2.97 2.42904L2.96998 2.42905L2.96996 2.42907L2.96995 2.42909L2.96993 2.4291L2.96991 2.42912L2.96989 2.42914L2.96988 2.42916L2.96986 2.42917L2.96984 2.42919L2.96983 2.42921L2.96981 2.42923L2.96979 2.42924L2.96977 2.42926L2.96975 2.42928L2.96974 2.4293L2.96972 2.42931L2.9697 2.42933L2.96968 2.42935L2.96967 2.42937L2.96965 2.42939L2.96963 2.4294L2.96961 2.42942L2.96959 2.42944L2.96957 2.42946L2.96956 2.42948L2.96954 2.4295L2.96952 2.42951L2.9695 2.42953L2.96948 2.42955L2.96946 2.42957L2.96944 2.42959L2.96942 2.42961L2.96941 2.42963L2.96939 2.42965L2.96937 2.42967L2.96935 2.42968L2.96933 2.4297L2.96931 2.42972L2.96929 2.42974L2.96927 2.42976L2.96925 2.42978L2.96923 2.4298L2.96921 2.42982L2.96919 2.42984L2.96917 2.42986L2.96915 2.42988L2.96913 2.4299L2.96911 2.42992L2.96909 2.42994L2.96907 2.42996L2.96905 2.42998L2.96903 2.43L2.96901 2.43002L2.96899 2.43004L2.96897 2.43006L2.96895 2.43009L2.96893 2.43011L2.96891 2.43013L2.96888 2.43015L2.96886 2.43017L2.96884 2.43019L2.96882 2.43021L2.9688 2.43023L2.96878 2.43025L2.96876 2.43028L2.96873 2.4303L2.96871 2.43032L2.96869 2.43034L2.96867 2.43036L2.96865 2.43039L2.96863 2.43041L2.9686 2.43043L2.96858 2.43045L2.96858 2.43045L2.96781 2.43123L1.67692 3.73351C1.67679 3.73364 1.67666 3.73377 1.67653 3.7339C1.14901 4.26159 0.846216 4.90887 0.780275 5.65482L0.780271 5.65482L0.780144 5.65636C0.684297 6.82251 1.02757 7.89865 1.28117 8.58263C1.90817 10.274 2.84355 11.8368 4.22963 13.5031L4.23017 13.5038C5.91633 15.5172 7.94646 17.1085 10.2661 18.2298L10.2678 18.2306C11.1476 18.6475 12.3495 19.1551 13.702 19.2419L13.702 19.2419L13.7062 19.2421C13.7851 19.2459 13.8745 19.25 13.9574 19.25C14.902 19.25 15.7066 18.9075 16.3333 18.2272L16.3572 18.2013L16.3602 18.1953C16.3618 18.1932 16.3635 18.1909 16.3653 18.1885C16.537 17.9819 16.7334 17.7919 16.9525 17.58C16.9691 17.564 16.9857 17.5479 17.0025 17.5316C17.167 17.3748 17.337 17.2087 17.5038 17.0341C17.9173 16.6038 18.147 16.0882 18.147 15.5467C18.147 15 17.9122 14.4865 17.4884 14.0665C17.4882 14.0663 17.488 14.0662 17.4878 14.066L15.4049 11.9755C14.9968 11.5513 14.4903 11.3115 13.9422 11.3115C13.3981 11.3115 12.8888 11.5472 12.4661 11.9698L11.3958 13.0367C11.3833 13.0303 11.3709 13.0239 11.3586 13.0176C11.3263 13.001 11.2949 12.9849 11.2652 12.9695ZM16.3338 18.2251L16.3353 18.2236C16.3346 18.2243 16.3339 18.225 16.3336 18.2253L16.3338 18.2251ZM16.6265 15.5511C16.6267 15.659 16.5765 15.7953 16.4206 15.9622C16.4084 15.9727 16.3962 15.9853 16.3848 16.0002C16.3847 16.0003 16.3847 16.0004 16.3846 16.0004C16.2737 16.1187 16.1606 16.2287 16.0368 16.3491C16.0082 16.3769 15.979 16.4052 15.9492 16.4343C15.7025 16.6696 15.4459 16.9221 15.2031 17.2075C14.8696 17.5622 14.4856 17.7281 13.9612 17.7281C13.9025 17.7281 13.8503 17.728 13.8031 17.7248L13.8024 17.7248C12.7245 17.6558 11.7123 17.2334 10.9316 16.86C8.81422 15.8349 6.95444 14.3796 5.40788 12.5336C4.12675 10.9894 3.27687 9.57003 2.71499 8.05183L2.71473 8.05113C2.36938 7.12649 2.25126 6.42782 2.30417 5.78129C2.33722 5.39555 2.48267 5.08229 2.75608 4.80888L4.04863 3.51634C4.20505 3.37038 4.34344 3.31691 4.45222 3.31691C4.59124 3.31691 4.72408 3.40359 4.83011 3.50962L4.8358 3.51531L4.8415 3.52101L4.8414 3.52111L4.84759 3.5269C5.07451 3.73894 5.29123 3.95932 5.5225 4.19816L5.52254 4.19821C5.58224 4.25984 5.64278 4.32133 5.70298 4.38248L5.70406 4.38358C5.76412 4.44458 5.82388 4.50528 5.88354 4.5668L5.88351 4.56682L5.88623 4.56954L6.92337 5.60668C7.10096 5.78427 7.15217 5.91808 7.15217 6.01875C7.15217 6.11942 7.10096 6.25323 6.92337 6.43082C6.88422 6.46996 6.8467 6.50793 6.80993 6.54513C6.7391 6.6168 6.67109 6.68561 6.59978 6.75446L6.5997 6.75438L6.59458 6.75963C6.27643 7.08535 5.97717 7.38449 5.65299 7.67513L5.65274 7.67486L5.64862 7.67897L5.64625 7.68096C5.64021 7.68614 5.62623 7.69817 5.61073 7.71704C5.41895 7.91403 5.32899 8.12192 5.3056 8.32403C5.28245 8.524 5.32707 8.69804 5.36493 8.81793L5.3649 8.81794L5.36616 8.8217L5.37186 8.8388L5.37756 8.8559L5.38031 8.86417L5.38364 8.87223C5.66467 9.55304 6.0585 10.1884 6.64541 10.9336L6.65457 10.9452L6.65971 10.9504C7.72022 12.255 8.84285 13.2777 10.0853 14.0635C10.2518 14.1691 10.4209 14.2536 10.5703 14.3283L10.5746 14.3305C10.7141 14.4002 10.8322 14.4595 10.9307 14.5206L10.9404 14.5267L10.9474 14.5302L10.9528 14.5335C10.9562 14.5356 10.9624 14.5395 10.9691 14.5435C10.9759 14.5476 10.9853 14.5529 10.9963 14.5584C11.1555 14.638 11.3151 14.6798 11.4842 14.6798C11.9034 14.6798 12.1634 14.4195 12.236 14.3469L12.2384 14.3444L13.5377 13.0452C13.6557 12.9272 13.799 12.8335 13.9346 12.8335C14.066 12.8335 14.1975 12.9202 14.2969 13.0292L14.2967 13.0294L14.3049 13.0376L14.3086 13.0413L14.3125 13.0452L16.4057 15.1384L16.4066 15.1393C16.5733 15.3044 16.6262 15.4411 16.6265 15.5511ZM15.3333 9.92909L15.3333 9.92926L15.3423 9.9278C15.7637 9.85947 16.0378 9.46177 15.9707 9.04836L15.9704 9.0464C15.7565 7.79055 15.162 6.64567 14.2557 5.73942C13.3495 4.83316 12.2046 4.2387 10.9487 4.02477L10.9487 4.02476L10.9468 4.02444C10.5316 3.95712 10.1415 4.23271 10.068 4.64528C9.99516 5.05426 10.2635 5.45928 10.6875 5.52842C11.6302 5.68689 12.4871 6.13293 13.1728 6.81858C13.858 7.50385 14.3009 8.36093 14.4631 9.305C14.526 9.67978 14.85 9.93862 15.2149 9.93862C15.2591 9.93862 15.2993 9.93346 15.3248 9.93017C15.3278 9.92978 15.3307 9.92942 15.3333 9.92909ZM10.2123 1.38188L10.2123 1.38188L10.2117 1.38569C10.1442 1.80188 10.4211 2.19154 10.8369 2.26459L10.8384 2.26484C12.5567 2.55615 14.1244 3.37092 15.3725 4.61522C16.62 5.86277 17.4311 7.43002 17.7225 9.14844C17.7851 9.52363 18.1093 9.78283 18.4744 9.78283C18.5187 9.78283 18.5588 9.77766 18.5843 9.77438C18.5874 9.77399 18.5902 9.77362 18.5928 9.7733L18.5928 9.77338L18.599 9.77244C19.0163 9.70957 19.2993 9.31163 19.2259 8.89715C18.8789 6.86303 17.9199 5.01188 16.4477 3.53975C14.9756 2.06759 13.1244 1.10854 11.0902 0.76153C10.6722 0.687599 10.285 0.974087 10.2123 1.38188Z" fill="black" stroke="black" stroke-width="0.5"/>
</svg>
