<svg width="61" height="43" fill="none" xmlns="http://www.w3.org/2000/svg"><path d="M59.45 6.628a7.598 7.598 0 00-5.368-5.36C49.35 0 30.36 0 30.36 0S11.371 0 6.638 1.268a7.598 7.598 0 00-5.368 5.36C0 11.355 0 21.222 0 21.222s0 9.867 1.27 14.594a7.598 7.598 0 005.368 5.36c4.733 1.268 23.722 1.268 23.722 1.268s18.989 0 23.722-1.268a7.598 7.598 0 005.368-5.36c1.27-4.727 1.27-14.594 1.27-14.594s-.005-9.867-1.27-14.594z" fill="#000" fill-opacity=".61"/><path d="M22.525 30.306L38.3 21.52l-15.775-8.788v17.575z" fill="#fff"/></svg>