<svg id="Layer_3" data-name="Layer 3" xmlns="http://www.w3.org/2000/svg" viewBox="0 0 15 14"><defs><style>.cls-1{fill:#ef1b19}</style></defs><title>sale-14x15</title><path class="cls-1" d="M14.69 6.74a.3.3 0 0 1-.31-.28A6.16 6.16 0 0 0 8 .57a.3.3 0 0 1-.32-.29A.3.3 0 0 1 8 0a6.76 6.76 0 0 1 7 6.45.3.3 0 0 1-.31.28z"/><path class="cls-1" d="M12.72 6.74a.3.3 0 0 1-.31-.28A4.27 4.27 0 0 0 8 2.38a.3.3 0 0 1-.31-.28.3.3 0 0 1 .31-.29 4.86 4.86 0 0 1 5 4.64.3.3 0 0 1-.31.28zM3 13.67a3.11 3.11 0 0 1-2.12-.81A2.6 2.6 0 0 1 .88 9l1.47-1.39a.65.65 0 0 1 .87 0 .54.54 0 0 1 0 .8L1.75 9.76a1.53 1.53 0 0 0 0 2.3 1.92 1.92 0 0 0 2.5 0l1.47-1.35a.65.65 0 0 1 .87 0 .54.54 0 0 1 0 .8l-1.47 1.35a3.11 3.11 0 0 1-2.12.81z"/><path class="cls-1" d="M6.61 11.9a.63.63 0 0 1-.51-.26 13 13 0 0 0-3.89-3.57.54.54 0 0 1-.21-.72l2.68-5.16a.6.6 0 0 1 .39-.3.66.66 0 0 1 .5.07 23.9 23.9 0 0 1 7.15 6.58.53.53 0 0 1 .08.46.58.58 0 0 1-.33.36l-5.6 2.48a.66.66 0 0 1-.27.06zM3.33 7.4a14.13 14.13 0 0 1 3.49 3.21l4.48-2a22.66 22.66 0 0 0-5.82-5.34L3.33 7.4zM6.37 14a2.89 2.89 0 0 1-1.92-.8.54.54 0 0 1 0-.8.65.65 0 0 1 .87 0c.54.49 1.19.57 1.45.33a.65.65 0 0 1 .87 0 .54.54 0 0 1 0 .8 1.85 1.85 0 0 1-1.27.47z"/></svg>