<svg xmlns="http://www.w3.org/2000/svg" viewBox="0 0 14.1 13.6"><path d="M5.9 13.1c-.3.3-.6.3-.9 0L.4 6.9c-.1-.1-.1-.3-.1-.4 0-.2.1-.3.2-.4.2-.3.6-.3.9 0l4.2 5.7L12.9.5c.2-.3.6-.3.9 0 .2.2.2.6 0 .8L5.9 13.1z"/><path d="M5.5 13.6c-.2 0-.5-.1-.6-.3L.2 7.1c-.1-.2-.2-.4-.2-.6 0-.2.1-.5.2-.6.2-.2.4-.3.6-.3.2 0 .5.1.6.3l4 5.4L12.6.2c.2-.1.4-.2.6-.2.2 0 .4.1.6.3.3.3.3.8 0 1.2L6.1 13.3c-.1.2-.4.3-.6.3zM.8 6.1c-.1 0-.2 0-.2.1-.1.1-.1.2-.1.3 0 .1 0 .2.1.3L5.3 13c.1.1.1.1.2.1s.2 0 .2-.1l7.7-11.8c.1-.2.1-.4 0-.5-.1-.1-.1-.1-.2-.1s-.2 0-.2.1L5.5 12.2l-4.4-6C1 6.1.9 6.1.8 6.1z"/></svg>