<svg width="24" height="24" viewBox="0 0 24 24" fill="none" xmlns="http://www.w3.org/2000/svg">
<path d="M19.7073 23.5891C14.5743 24.137 9.42572 24.137 4.29272 23.5891C2.24597 23.3707 0.629333 21.754 0.410889 19.7071C-0.136963 14.5741 -0.136963 9.42572 0.410889 4.29272C0.629333 2.24597 2.24597 0.629333 4.29272 0.410889C9.42572 -0.136963 14.5741 -0.136963 19.7071 0.410889C21.754 0.629333 23.3707 2.24597 23.5891 4.29272C24.137 9.42572 24.137 14.5741 23.5891 19.7071C23.3707 21.754 21.7542 23.3707 19.7073 23.5891Z" fill="url(#paint0_linear)"/>
<path d="M22.2837 5.1608C22.09 3.34457 20.6555 1.90994 18.8391 1.71603C14.2842 1.23007 9.71573 1.23007 5.1608 1.71603C3.34457 1.90994 1.90994 3.34457 1.71603 5.1608C1.23007 9.71573 1.23007 14.2842 1.71603 18.839C1.90994 20.6554 3.34457 22.09 5.1608 22.2837C9.71573 22.7699 14.2842 22.7699 18.839 22.2837C20.6554 22.09 22.09 20.6554 22.2837 18.839C22.7699 14.2842 22.7699 9.71573 22.2837 5.1608Z" fill="url(#paint1_linear)"/>
<path d="M0.359375 19.2095C0.375855 19.3754 0.392883 19.5413 0.410645 19.7072C0.629089 21.7539 2.24573 23.3705 4.29266 23.589C9.42566 24.1368 14.574 24.1368 19.707 23.589C21.754 23.3705 23.3704 21.7539 23.5889 19.7072C23.6066 19.5413 23.6237 19.3754 23.6403 19.2095H0.359375Z" fill="url(#paint2_linear)"/>
<path d="M23.9955 11.1567L19.0137 6.17517C18.4554 6.49432 17.9634 6.67139 17.5928 6.76953C17.3845 6.82538 17.2144 6.85577 17.092 6.87244C16.5303 6.29657 15.7458 5.93896 14.8776 5.93896C13.1692 5.93896 11.784 7.32397 11.784 9.03271C11.784 9.09442 11.7856 9.1554 11.7897 9.21619C11.7979 9.36432 11.8168 9.50989 11.8459 9.65143C11.1327 9.64081 8.81458 9.45038 6.60376 7.55524C6.60358 7.55524 6.60358 7.55505 6.60358 7.55505H6.60339L5.56079 6.51227C5.56079 6.51227 4.33765 8.64709 6.13593 10.267C6.21484 10.3551 6.30164 10.4421 6.39667 10.5276C6.40417 10.536 6.41205 10.5443 6.41956 10.5527C6.18353 10.5367 5.47363 10.4661 5.06274 10.1758C5.06274 10.1758 4.98016 11.4807 6.06726 12.4412L6.94507 13.3265C6.67773 13.3487 6.38202 13.3434 6.17639 13.2533C6.17639 13.2533 6.3584 14.0262 7.06189 14.6447L8.29163 15.8809C7.55389 16.3106 6.26245 16.8484 4.5625 16.7111L12.0224 24.0001C14.5855 23.9994 17.1486 23.8624 19.7079 23.5892C21.7548 23.3708 23.3715 21.7542 23.5899 19.7074C23.8937 16.8601 24.0286 14.0081 23.9955 11.1567Z" fill="url(#paint3_linear)"/>
<path d="M19.4391 7.37671C18.9081 7.65448 18.1083 7.78284 17.8431 7.81982C17.8409 7.80701 17.8387 7.79474 17.8365 7.78247C18.738 7.22491 19.0139 6.17517 19.0139 6.17517C18.4556 6.49432 17.9636 6.67139 17.593 6.76953C17.3846 6.82538 17.2145 6.85559 17.0922 6.87244C16.5305 6.29639 15.746 5.93896 14.8777 5.93896C13.1694 5.93896 11.7842 7.32379 11.7842 9.03271C11.7842 9.09424 11.7858 9.1554 11.7899 9.216C11.7981 9.36414 11.817 9.5097 11.8461 9.65125C11.0192 9.63898 8.03436 9.38538 5.56097 6.51227C5.56097 6.51227 4.18365 8.91534 6.49921 10.5569C6.49921 10.5569 5.56097 10.5276 5.06293 10.1758C5.06293 10.1758 4.91644 12.4914 7.58337 13.2238C7.58337 13.2238 6.64569 13.4586 6.17639 13.2533C6.17639 13.2533 6.64551 15.2462 8.99017 15.3931C8.99017 15.3931 7.30853 16.9326 4.5625 16.7111C5.91309 17.5662 7.51434 18.0611 9.23114 18.0611C14.0583 18.0611 17.9717 14.1479 17.9717 9.32074C17.9717 9.2605 17.9711 9.20026 17.9698 9.14001C17.9711 9.10431 17.9717 9.06879 17.9717 9.03271C17.9717 9.00763 17.9711 8.98254 17.9708 8.95746C18.8632 8.36273 19.4391 7.37671 19.4391 7.37671Z" fill="white"/>
<defs>
<linearGradient id="paint0_linear" x1="7.96847" y1="3.37435" x2="14.0388" y2="16.3619" gradientUnits="userSpaceOnUse">
<stop stop-color="#00C3FF"/>
<stop offset="1" stop-color="#00B0ED"/>
</linearGradient>
<linearGradient id="paint1_linear" x1="17.0757" y1="14.7228" x2="-17.7931" y2="-3.98216" gradientUnits="userSpaceOnUse">
<stop stop-color="#00B0ED" stop-opacity="0"/>
<stop offset="1" stop-color="#00A2CE"/>
</linearGradient>
<linearGradient id="paint2_linear" x1="11.9998" y1="20.5022" x2="11.9998" y2="23.647" gradientUnits="userSpaceOnUse">
<stop stop-color="#00B0ED" stop-opacity="0"/>
<stop offset="1" stop-color="#00A2CE"/>
</linearGradient>
<linearGradient id="paint3_linear" x1="22.9422" y1="22.5973" x2="11.2175" y2="10.8725" gradientUnits="userSpaceOnUse">
<stop stop-color="#00B0ED" stop-opacity="0"/>
<stop offset="1" stop-color="#00A2CE"/>
</linearGradient>
</defs>
</svg>
