<svg width="24" height="24" viewBox="0 0 24 24" fill="none" xmlns="http://www.w3.org/2000/svg">
<path d="M19.7073 23.5891C14.5743 24.137 9.42572 24.137 4.29272 23.5891C2.24597 23.3707 0.629333 21.754 0.410889 19.7071C-0.136963 14.5741 -0.136963 9.42572 0.410889 4.29272C0.629333 2.24597 2.24597 0.629333 4.29272 0.410889C9.42572 -0.136963 14.5741 -0.136963 19.7071 0.410889C21.754 0.629333 23.3707 2.24597 23.5891 4.29272C24.137 9.42572 24.137 14.5741 23.5891 19.7071C23.3707 21.754 21.7542 23.3707 19.7073 23.5891Z" fill="url(#paint0_linear)"/>
<path d="M22.2837 5.1608C22.09 3.34457 20.6555 1.90994 18.8391 1.71603C14.2842 1.23007 9.71573 1.23007 5.1608 1.71603C3.34457 1.90994 1.90994 3.34457 1.71603 5.1608C1.23007 9.71573 1.23007 14.2842 1.71603 18.839C1.90994 20.6554 3.34457 22.09 5.1608 22.2837C9.71573 22.7699 14.2842 22.7699 18.839 22.2837C20.6554 22.09 22.09 20.6554 22.2837 18.839C22.7699 14.2842 22.7699 9.71573 22.2837 5.1608Z" fill="url(#paint1_linear)"/>
<path d="M0.359375 19.2095C0.375855 19.3754 0.392883 19.5413 0.410645 19.7072C0.629089 21.7539 2.24573 23.3705 4.29266 23.589C9.42566 24.1368 14.574 24.1368 19.707 23.589C21.754 23.3705 23.3704 21.7539 23.5889 19.7072C23.6066 19.5413 23.6237 19.3754 23.6403 19.2095H0.359375Z" fill="url(#paint2_linear)"/>
<path d="M23.9947 11.1566L20.578 6.25C19.7853 7.80511 15.8705 9.90186 15.4999 10C14.4999 9.46738 13.4218 6.25 13.4218 6.25C13.4218 6.25 13.3681 12.4411 12.4998 12.4411C10.7915 12.4411 11.7832 7.32388 11.7832 9.03262C10.9998 12.4411 11.7792 7.49435 11.7832 7.55515C12.016 9.4957 10.4999 11.5 10.4999 11.5C10.4999 11.5 7.99988 9 6.2655 6.25L5.56003 6.51218C5.56003 6.51218 4.33689 8.647 6.13516 10.2669C6.21408 10.355 6.30087 10.442 6.39591 10.5275C6.40341 10.5359 6.41129 10.5442 6.41879 10.5526C6.18277 10.5367 5.47287 10.466 5.06198 10.1758C5.06198 10.1758 4.9794 11.4806 6.0665 12.4411L6.94431 13.3264C6.67697 13.3486 6.38126 13.3433 6.17563 13.2532C6.17563 13.2532 7.79639 13.8815 8.49988 14.5L12.9998 15.5C12.9998 16.711 8.39591 14.1331 6.39591 13.6331L13.4999 24C14.4999 24 17.1479 23.8623 19.7071 23.5891C21.7541 23.3707 23.3707 21.7541 23.5891 19.7073C23.8929 16.86 24.0279 14.008 23.9947 11.1566Z" fill="url(#paint3_linear)"/>
<path d="M17.9368 12.3077C17.6458 11.9227 17.729 11.7514 17.9368 11.4073C17.9405 11.4034 20.3428 7.92579 20.5904 6.74643L20.5919 6.74564C20.7149 6.31586 20.5919 6 19.9971 6H18.029C17.528 6 17.297 6.27107 17.1732 6.57436C17.1732 6.57436 16.1712 9.08707 14.7537 10.7159C14.2961 11.1865 14.0846 11.3374 13.8349 11.3374C13.7119 11.3374 13.5206 11.1865 13.5206 10.7567V6.74564C13.5206 6.23021 13.3804 6 12.9656 6H9.87099C9.55673 6 9.36997 6.24043 9.36997 6.46436C9.36997 6.95307 10.0787 7.06543 10.1522 8.44043V11.4238C10.1522 12.0775 10.039 12.1977 9.78774 12.1977C9.11871 12.1977 7.49491 9.67479 6.53262 6.78729C6.33837 6.22707 6.14861 6.00079 5.64384 6.00079H3.67502C3.11325 6.00079 3 6.27186 3 6.57514C3 7.111 3.66902 9.77536 6.11111 13.2954C7.73866 15.6981 10.0307 17 12.1158 17C13.3691 17 13.5221 16.7109 13.5221 16.2135C13.5221 13.9176 13.4089 13.7008 14.0366 13.7008C14.3276 13.7008 14.8287 13.8516 15.9987 15.0106C17.336 16.3848 17.5558 17 18.3043 17H20.2723C20.8334 17 21.1176 16.7109 20.9541 16.1404C20.5799 14.9406 18.0508 12.4727 17.9368 12.3077Z" fill="white"/>
<defs>
<linearGradient id="paint0_linear" x1="7.96847" y1="3.37435" x2="14.0388" y2="16.3619" gradientUnits="userSpaceOnUse">
<stop stop-color="#659CDB"/>
<stop offset="1" stop-color="#4F79A9"/>
</linearGradient>
<linearGradient id="paint1_linear" x1="17.0757" y1="14.7228" x2="-17.7931" y2="-3.98216" gradientUnits="userSpaceOnUse">
<stop stop-color="#537EAF" stop-opacity="0"/>
<stop offset="1" stop-color="#4B729F"/>
</linearGradient>
<linearGradient id="paint2_linear" x1="11.9998" y1="20.5022" x2="11.9998" y2="23.647" gradientUnits="userSpaceOnUse">
<stop stop-color="#5A8BC4" stop-opacity="0"/>
<stop offset="1" stop-color="#4B729F"/>
</linearGradient>
<linearGradient id="paint3_linear" x1="22.9415" y1="22.5971" x2="11.2168" y2="10.8724" gradientUnits="userSpaceOnUse">
<stop stop-color="#5685B9" stop-opacity="0"/>
<stop offset="1" stop-color="#42648B"/>
</linearGradient>
</defs>
</svg>
