<svg width="56" height="13" fill="none" xmlns="http://www.w3.org/2000/svg"><path d="M17.485 1.95A2.235 2.235 0 0015.906.372C14.514 0 8.93 0 8.93 0S3.344 0 1.952.373A2.235 2.235 0 00.373 1.949C0 3.34 0 6.242 0 6.242s0 2.902.373 4.292c.206.768.81 1.371 1.58 1.576 1.391.373 6.976.373 6.976.373s5.585 0 6.977-.373a2.235 2.235 0 001.58-1.576c.373-1.39.373-4.292.373-4.292s-.002-2.902-.374-4.293z" fill="red"/><path d="M7.142 8.916l4.64-2.675-4.64-2.674v5.35z" fill="#fff"/><path d="M25.922 11.356c-.352-.238-.604-.608-.754-1.11-.148-.502-.223-1.168-.223-2.002V7.11c0-.84.085-1.517.256-2.027.17-.51.436-.882.798-1.115.361-.234.836-.351 1.424-.351.58 0 1.043.119 1.393.356.348.238.604.611.765 1.116.162.506.243 1.18.243 2.021v1.135c0 .834-.08 1.503-.237 2.008-.157.507-.413.877-.766 1.11-.352.233-.832.35-1.436.35-.623.002-1.11-.118-1.463-.356zm1.98-1.224c.096-.256.146-.671.146-1.25V6.448c0-.56-.048-.971-.147-1.23-.098-.26-.27-.389-.517-.389-.239 0-.407.13-.505.39-.098.26-.146.669-.146 1.23v2.435c0 .578.046.995.14 1.249.095.255.264.383.51.383.248 0 .42-.128.518-.383zm25.147-1.869v.395c0 .502.014.878.044 1.129.03.25.09.433.185.549.094.114.238.172.434.172.263 0 .445-.103.542-.307.099-.204.152-.545.16-1.02l1.52.09c.01.067.014.16.014.28 0 .722-.199 1.262-.594 1.619-.396.356-.956.536-1.68.536-.868 0-1.477-.272-1.825-.817-.35-.544-.523-1.385-.523-2.525V7c0-1.173.18-2.03.542-2.57.362-.54.98-.81 1.858-.81.605 0 1.07.11 1.392.331.324.222.552.566.684 1.034.132.468.199 1.114.199 1.939v1.339h-2.952v.001zm.223-3.29c-.09.11-.148.291-.18.542-.029.251-.043.631-.043 1.142v.561h1.289v-.56c0-.503-.018-.883-.052-1.143-.033-.26-.095-.442-.185-.549-.09-.105-.228-.16-.414-.16-.188.002-.327.057-.415.168zM21.63 8.116L19.625.886h1.749l.703 3.277c.179.808.31 1.496.395 2.066h.051a36.46 36.46 0 01.396-2.054l.728-3.29h1.75l-2.031 7.231v3.469h-1.738V8.116h.002zm13.885-4.347v7.818h-1.38l-.152-.957h-.038c-.375.722-.937 1.083-1.687 1.083-.519 0-.902-.17-1.15-.51-.246-.34-.37-.871-.37-1.594V3.77h1.763v5.738c0 .35.038.597.115.745.076.149.204.224.383.224.153 0 .3-.047.441-.141a.878.878 0 00.313-.357v-6.21h1.762zm9.039 0v7.818h-1.379l-.152-.957h-.039c-.375.722-.936 1.083-1.686 1.083-.519 0-.903-.17-1.15-.51-.246-.34-.37-.871-.37-1.594V3.77h1.763v5.738c0 .35.038.597.114.745.077.149.205.224.384.224.153 0 .3-.047.441-.141a.878.878 0 00.313-.357v-6.21h1.761z" fill="#282828"/><path d="M40.303 2.302h-1.75v9.284H36.83V2.302h-1.75V.887h5.224v1.415zm10.085 2.715c-.107-.493-.28-.85-.518-1.071-.238-.222-.566-.332-.983-.332-.324 0-.626.091-.907.275-.28.183-.498.422-.651.72h-.014V.49h-1.698v11.095h1.456l.18-.74h.037c.137.264.342.471.613.625.272.153.575.23.907.23.596 0 1.035-.275 1.316-.823.281-.549.422-1.404.422-2.57V7.07c0-.874-.054-1.56-.16-2.053zm-1.616 3.19a9.84 9.84 0 01-.07 1.339c-.047.323-.125.553-.237.688a.545.545 0 01-.447.204.81.81 0 01-.403-.102.769.769 0 01-.3-.306V5.593a1.1 1.1 0 01.308-.523.676.676 0 01.471-.204c.18 0 .318.07.415.21.099.141.166.376.204.708.039.331.058.803.058 1.415v1.008h.001z" fill="#282828"/></svg>