<svg width="60" height="60" viewBox="0 0 60 60" fill="none" xmlns="http://www.w3.org/2000/svg">
<path d="M28.5 0.866025C29.4282 0.330127 30.5718 0.330127 31.5 0.866025L54.4808 14.134C55.409 14.6699 55.9808 15.6603 55.9808 16.732V43.2679C55.9808 44.3397 55.409 45.3301 54.4808 45.866L31.5 59.134C30.5718 59.6699 29.4282 59.6699 28.5 59.134L5.51924 45.866C4.59103 45.3301 4.01924 44.3397 4.01924 43.2679V16.732C4.01924 15.6603 4.59103 14.6699 5.51924 14.134L28.5 0.866025Z" fill="#ED2226"/>
<path d="M44.8594 43.5996C44.7129 42.832 44.332 42.1875 43.7578 41.6543C43.2656 41.1973 42.6914 40.8809 42.0879 40.6113C41.5605 40.3711 41.0273 40.1543 40.5117 39.9023C40.2949 39.7969 40.1074 39.6387 39.9258 39.4805C39.8437 39.4043 39.7734 39.2754 39.7617 39.1641C39.7383 38.8418 39.75 38.5195 39.7559 38.1973C39.7559 38.1562 39.7676 38.1094 39.791 38.0742C40.084 37.6172 40.2598 37.1191 40.3301 36.5859C40.3535 36.4102 40.3828 36.252 40.541 36.1465C40.5879 36.1113 40.6172 36.0586 40.6582 36.0176C41.1562 35.4141 41.3555 34.4004 40.9102 33.6328C40.8867 33.5918 40.8867 33.5156 40.9043 33.4629C41.209 32.5664 41.2617 31.6641 40.9687 30.7559C40.7637 30.123 40.4121 29.5957 39.8262 29.2441C39.5215 29.0625 39.1875 28.9687 38.8418 28.916C38.7539 28.9043 38.6895 28.875 38.6484 28.7812C38.5488 28.5527 38.4316 28.3301 38.3203 28.1074C38.3027 28.0781 38.2559 28.0371 38.2266 28.0371C37.9687 28.0371 37.7051 28.0312 37.4473 28.0605C36.7383 28.1309 36.0645 28.3359 35.4316 28.6699C35.3789 28.6992 35.3555 28.6934 35.3145 28.6465C35.2031 28.5176 35.0918 28.3828 34.9629 28.2773C34.5645 27.9375 34.0898 27.7734 33.5801 27.6855C33.4922 27.6738 33.4336 27.6445 33.3926 27.5566C33.2754 27.3047 33.1523 27.0586 33.0234 26.8125C33.0059 26.7773 32.9531 26.7422 32.9121 26.7422C32.4316 26.7305 31.957 26.7422 31.4824 26.8184C30.4922 26.9766 29.5957 27.3281 28.834 27.9961C28.0078 28.7227 27.5508 29.6426 27.4629 30.7383C27.4043 31.4414 27.5039 32.1211 27.7266 32.7891C27.75 32.8594 27.7441 32.918 27.6973 32.9766C27.498 33.2461 27.4043 33.5566 27.4043 33.8906C27.3984 34.541 27.6738 35.0566 28.2012 35.4375C28.2422 35.4668 28.2832 35.5254 28.2949 35.5723C28.4473 36.2695 28.7578 36.873 29.2676 37.377C29.2969 37.4062 29.3203 37.4648 29.3203 37.5059C29.3262 37.8809 29.3145 38.25 29.3262 38.625C29.332 38.8359 29.25 38.9883 29.1211 39.1289C29.0449 39.2109 28.957 39.3047 28.8574 39.3574C28.4707 39.5684 28.084 39.7793 27.6914 39.9668C27.082 40.2539 26.4551 40.5117 25.8926 40.8926C24.9785 41.5137 24.3926 42.3574 24.1875 43.4531C24.0996 43.916 24.1172 44.3848 24.1055 44.8535C24.1055 44.9766 24.1406 44.9941 24.252 44.9941C27.6855 44.9883 31.1191 44.9941 34.5527 44.9941C37.9805 44.9941 41.4082 44.9941 44.8301 44.9941C44.8594 44.9941 44.8945 45 44.9238 44.9941C44.9473 44.9824 44.9824 44.9531 44.9824 44.9297C44.9531 44.4844 44.9414 44.0332 44.8594 43.5996ZM38.2793 43.6816C38.2559 43.6816 38.2324 43.6816 38.209 43.6816C34.0254 43.6816 29.8359 43.6816 25.6523 43.6816C25.6172 43.6816 25.5762 43.6816 25.5352 43.6816C25.6348 42.9199 26.0391 42.375 26.6602 41.9648C27.1406 41.6484 27.6621 41.4258 28.1836 41.1914C28.7402 40.9453 29.3027 40.6992 29.7891 40.3125C30.1699 40.0137 30.457 39.6504 30.6152 39.1875C30.6328 39.1348 30.6445 39.0762 30.6445 39.0176C30.6445 38.332 30.6445 37.6406 30.6445 36.9551C30.6445 36.8789 30.6211 36.832 30.5566 36.791C29.877 36.3457 29.5723 35.6836 29.4844 34.8984C29.4785 34.8457 29.4785 34.793 29.4609 34.7461C29.4492 34.7051 29.4199 34.6582 29.3848 34.6406C29.2676 34.5762 29.1445 34.5234 29.0273 34.4648C28.793 34.3535 28.6758 34.0957 28.7344 33.8437C28.7871 33.6035 28.9336 33.4277 29.1094 33.2754C29.1914 33.2051 29.209 33.1406 29.1621 33.0352C28.9687 32.625 28.8047 32.2031 28.752 31.7519C28.623 30.6914 28.8574 29.748 29.6836 29.0098C30.1523 28.5879 30.7266 28.3652 31.3359 28.2422C31.6113 28.1836 31.8867 28.1602 32.168 28.125C32.1973 28.1191 32.2383 28.1543 32.2559 28.1836C32.3613 28.3887 32.4668 28.5937 32.5664 28.8047C32.5957 28.875 32.6367 28.8926 32.7129 28.8984C32.9824 28.9102 33.2578 28.8984 33.5156 28.957C34.0195 29.0625 34.3418 29.4141 34.5527 29.8652C34.793 30.3867 34.834 30.9375 34.7812 31.5C34.7637 31.6758 34.7344 31.8457 34.7051 32.0156C34.6582 32.2793 34.541 32.5137 34.3828 32.7246C34.3184 32.8125 34.3242 32.8711 34.3887 32.9531C34.4824 33.0644 34.5703 33.1875 34.6465 33.3105C34.8926 33.6914 34.8223 34.1543 34.4707 34.4414C34.3535 34.541 34.2422 34.6406 34.125 34.7344C34.0664 34.7812 34.0488 34.834 34.0488 34.9102C34.0488 35.4199 33.9668 35.9121 33.7031 36.3574C33.5977 36.5391 33.4395 36.6855 33.3105 36.8496C33.2754 36.8965 33.2402 36.9668 33.2344 37.0254C33.2285 37.6113 33.2461 38.2031 33.2285 38.7891C33.2168 39.1055 33.3164 39.375 33.4805 39.6387C33.7617 40.084 34.1543 40.418 34.6113 40.6523C35.1914 40.9512 35.7949 41.2148 36.3809 41.4961C36.8262 41.707 37.248 41.9531 37.623 42.2812C38.0215 42.6328 38.2266 43.0898 38.332 43.5996C38.3496 43.6582 38.3379 43.6875 38.2793 43.6816ZM43.4004 43.6816C42.2051 43.6816 41.0098 43.6816 39.8086 43.6816C39.7324 43.6816 39.6973 43.6641 39.6855 43.582C39.5801 42.9082 39.3457 42.293 38.9121 41.7539C38.5195 41.2617 38.0332 40.8809 37.4766 40.5996C36.8379 40.2773 36.1816 39.9844 35.5371 39.6738C35.2441 39.5332 34.9629 39.375 34.7402 39.1289C34.6113 38.9883 34.5293 38.8301 34.5352 38.625C34.5469 38.2383 34.5352 37.8457 34.541 37.4531C34.541 37.3945 34.5645 37.3301 34.5996 37.2891C34.9805 36.7617 35.2031 36.1758 35.2852 35.5312C35.291 35.4727 35.332 35.4082 35.373 35.3672C35.7539 35.0156 35.9941 34.5937 36.0703 34.0781C36.1289 33.6445 36.0469 33.2402 35.8418 32.8594C35.7949 32.7715 35.7949 32.7012 35.8301 32.6133C36.1641 31.7578 36.1875 30.8848 35.9648 30C35.9473 29.9297 35.959 29.8945 36.0234 29.8535C36.4043 29.6133 36.8262 29.5019 37.2715 29.4551C37.5059 29.4316 37.5059 29.4316 37.6113 29.6484C37.6699 29.7656 37.7285 29.8769 37.7812 30C37.8223 30.1055 37.8809 30.1348 37.9922 30.1406C38.2324 30.1406 38.4785 30.1406 38.7129 30.1875C39.1934 30.2812 39.4922 30.6035 39.668 31.043C39.8613 31.5293 39.8613 32.0391 39.7969 32.5488C39.75 32.959 39.6035 33.334 39.4043 33.6914C39.3691 33.7559 39.375 33.8027 39.4336 33.8496C39.6328 34.0137 39.7793 34.207 39.8203 34.4707C39.8613 34.7344 39.8145 34.9863 39.6973 35.2266C39.668 35.2852 39.5977 35.332 39.5449 35.373C39.4805 35.4199 39.416 35.4668 39.3457 35.4961C39.1406 35.584 39.0996 35.7422 39.0879 35.9531C39.0645 36.4687 38.9297 36.9551 38.707 37.418C38.6602 37.5176 38.5664 37.5937 38.502 37.6816C38.4727 37.7227 38.4375 37.7812 38.4375 37.834C38.4316 38.373 38.4141 38.918 38.4434 39.457C38.4551 39.6504 38.5605 39.8437 38.6602 40.0195C38.9004 40.4355 39.2637 40.7402 39.6855 40.9512C40.3008 41.2559 40.9336 41.5312 41.5605 41.8184C42.1055 42.0703 42.6387 42.3516 43.043 42.8145C43.2598 43.0605 43.3887 43.3594 43.4883 43.6875C43.459 43.6816 43.4297 43.6816 43.4004 43.6816Z" fill="white"/>
<path d="M22.6877 42.3809C20.6076 42.3867 18.5217 42.3809 16.4416 42.3867C16.3478 42.3867 16.3068 42.375 16.3068 42.2637C16.3127 34.7402 16.3127 27.2227 16.3068 19.6992C16.3068 19.6055 16.3303 19.582 16.424 19.582C17.4318 19.5879 18.4338 19.582 19.4416 19.5879C19.5471 19.5879 19.5705 19.5586 19.5705 19.459C19.5646 18.4512 19.5705 17.4492 19.5646 16.4414C19.5646 16.3477 19.5939 16.3242 19.6818 16.3242C23.9416 16.3242 28.2014 16.3242 32.467 16.3242C32.5666 16.3242 32.5842 16.3535 32.5842 16.4473C32.5783 16.9746 32.5842 17.502 32.5842 18.0293C32.5842 18.2754 32.5842 18.2754 32.3381 18.2754C28.5588 18.2754 24.7736 18.2754 20.9943 18.2754C20.8889 18.2754 20.8537 18.3047 20.8596 18.4102C20.8654 18.7559 20.8596 19.1016 20.8596 19.4473C20.8596 19.5938 20.8596 19.5938 21.0119 19.5938C25.9045 19.5938 30.7971 19.5938 35.6896 19.5938C35.8537 19.5938 35.8361 19.5703 35.8361 19.7402C35.8361 22.0371 35.8361 24.3398 35.8361 26.6367C35.8361 26.7363 35.8596 26.7656 35.9592 26.7598C36.3166 26.7539 36.6799 26.7539 37.0373 26.7598C37.1369 26.7598 37.1545 26.7305 37.1545 26.6367C37.1545 23.8887 37.1545 21.1406 37.1545 18.3926C37.1545 18.293 37.1252 18.2695 37.0314 18.2695C36.0236 18.2754 35.0158 18.2695 34.0021 18.2754C33.9142 18.2754 33.8849 18.2578 33.8849 18.1641C33.8908 17.1504 33.8849 16.1367 33.8908 15.123C33.8908 15.0293 33.8674 15.0117 33.7736 15.0117C28.6467 15 23.508 15 18.3693 15C18.2756 15 18.2521 15.0293 18.2521 15.123C18.258 16.1309 18.2521 17.1445 18.258 18.1523C18.258 18.2402 18.2404 18.2695 18.1467 18.2695C17.1506 18.2637 16.1486 18.2695 15.1525 18.2695C14.9885 18.2695 15.0002 18.2461 15.0002 18.4219C15.0002 22.6055 15.0002 26.7832 15.0002 30.9668C15.0002 34.5469 15.0002 38.127 15.0002 41.707C15.0002 42.334 15.0002 42.9609 15.0002 43.5879C15.0002 43.6699 15.0178 43.7051 15.1057 43.7051C17.6486 43.7051 20.1857 43.7051 22.7287 43.7051C22.8107 43.7051 22.8342 43.6758 22.8342 43.5996C22.8283 43.2422 22.8283 42.8906 22.8342 42.5332C22.8283 42.4043 22.799 42.3809 22.6877 42.3809Z" fill="white"/>
<path d="M33.1406 21.5215C32.7422 21.5273 32.3379 21.5215 31.9395 21.5215C31.5352 21.5215 31.1309 21.5215 30.7266 21.5215C30.6504 21.5215 30.6211 21.5391 30.6211 21.6211C30.627 21.9902 30.627 22.3594 30.6211 22.7285C30.6211 22.8105 30.6445 22.834 30.7266 22.834C31.5293 22.834 32.332 22.834 33.1348 22.834C33.2168 22.834 33.2402 22.8105 33.2402 22.7285C33.2344 22.3594 33.2344 21.9902 33.2402 21.6211C33.2461 21.5449 33.2227 21.5215 33.1406 21.5215Z" fill="white"/>
<path d="M21.4219 21.5215C21.0176 21.5273 20.6133 21.5215 20.209 21.5215C19.8047 21.5215 19.4004 21.5215 18.9961 21.5215C18.9199 21.5215 18.8965 21.5391 18.8965 21.6211C18.9023 21.9961 18.9023 22.3652 18.8965 22.7402C18.8965 22.8164 18.9141 22.8398 18.9902 22.8398C19.7988 22.8398 20.6016 22.8398 21.4102 22.8398C21.4863 22.8398 21.5098 22.8164 21.5098 22.7402C21.5039 22.3652 21.5039 21.9961 21.5098 21.6211C21.5215 21.5449 21.5039 21.5215 21.4219 21.5215Z" fill="white"/>
<path d="M19.002 29.3555C19.4062 29.3496 19.8105 29.3555 20.209 29.3555C20.6133 29.3555 21.0234 29.3555 21.4277 29.3555C21.498 29.3555 21.5215 29.3379 21.5215 29.2617C21.5156 28.8809 21.5156 28.5 21.5215 28.125C21.5215 28.0547 21.498 28.0371 21.4336 28.0371C20.6191 28.0371 19.8047 28.0371 18.9961 28.0371C18.9258 28.0371 18.9082 28.0605 18.9082 28.125C18.9082 28.5059 18.9141 28.8867 18.9082 29.2617C18.9082 29.3379 18.9316 29.3555 19.002 29.3555Z" fill="white"/>
<path d="M18.9082 32.5195C18.9082 32.5898 18.9258 32.6133 18.9961 32.6133C19.8047 32.6133 20.6133 32.6133 21.4277 32.6133C21.5098 32.6133 21.5215 32.584 21.5215 32.5137C21.5156 32.1445 21.5156 31.7754 21.5215 31.4062C21.5215 31.3242 21.5039 31.2949 21.416 31.2949C21.0176 31.3008 20.6191 31.2949 20.2148 31.2949C19.8105 31.2949 19.4062 31.2949 19.0078 31.2949C18.9316 31.2949 18.9082 31.3125 18.9082 31.3887C18.9082 31.7695 18.9082 32.1445 18.9082 32.5195Z" fill="white"/>
<path d="M19.002 39.1289C19.4063 39.123 19.8105 39.1289 20.209 39.1289C20.6133 39.1289 21.0176 39.1289 21.416 39.1289C21.4922 39.1289 21.5156 39.1113 21.5156 39.0352C21.5098 38.6602 21.5098 38.291 21.5156 37.916C21.5156 37.8398 21.498 37.8164 21.416 37.8164C20.6074 37.8164 19.8047 37.8164 18.9961 37.8164C18.9199 37.8164 18.8965 37.834 18.8965 37.916C18.9023 38.291 18.9023 38.6602 18.8965 39.0352C18.9082 39.1055 18.9258 39.1289 19.002 39.1289Z" fill="white"/>
<path d="M27.2871 21.5215C26.8828 21.5273 26.4785 21.5215 26.0801 21.5215C25.6758 21.5215 25.2715 21.5215 24.873 21.5215C24.7969 21.5215 24.7734 21.5391 24.7734 21.6152C24.7793 21.9902 24.7793 22.3594 24.7734 22.7344C24.7734 22.8105 24.7969 22.834 24.873 22.834C25.6816 22.834 26.4844 22.834 27.293 22.834C27.3691 22.834 27.3926 22.8105 27.3926 22.7344C27.3867 22.3594 27.3867 21.9902 27.3926 21.6152C27.3867 21.5449 27.3633 21.5215 27.2871 21.5215Z" fill="white"/>
<path d="M27.2695 37.8166C26.8711 37.8225 26.4785 37.8166 26.0801 37.8166C25.6758 37.8166 25.2715 37.8166 24.873 37.8166C24.791 37.8166 24.7676 37.8401 24.7676 37.9221C24.7734 38.2912 24.7734 38.6604 24.7676 39.0295C24.7676 39.1115 24.791 39.1291 24.873 39.1291C25.6758 39.1291 26.4785 39.1233 27.2812 39.1291C27.3691 39.1291 27.3867 39.0998 27.3867 39.0178C27.3809 38.6545 27.3809 38.2912 27.3867 37.9338C27.3867 37.8401 27.3574 37.8108 27.2695 37.8166Z" fill="white"/>
<path d="M30.7331 26.0918C31.1315 26.0859 31.5299 26.0918 31.9342 26.0918C32.3385 26.0918 32.7428 26.0918 33.1413 26.0918C33.2174 26.0918 33.2467 26.0742 33.2467 25.9922C33.2409 25.623 33.2409 25.2539 33.2467 24.8848C33.2467 24.8027 33.2233 24.7793 33.1413 24.7793C32.3385 24.7793 31.5358 24.7793 30.7331 24.7793C30.6569 24.7793 30.6217 24.7969 30.6276 24.8789C30.6334 25.248 30.6334 25.6172 30.6276 25.9863C30.6276 26.0742 30.6569 26.0977 30.7331 26.0918Z" fill="white"/>
<path d="M19.0078 26.0918C19.4121 26.0859 19.8164 26.0918 20.2148 26.0918C20.6191 26.0918 21.0234 26.0918 21.4219 26.0918C21.4863 26.0918 21.5215 26.0801 21.5215 26.0039C21.5156 25.623 21.5156 25.2422 21.5215 24.8672C21.5215 24.7969 21.498 24.7793 21.4336 24.7793C20.6191 24.7793 19.8047 24.7793 18.9961 24.7793C18.9258 24.7793 18.9082 24.8027 18.9082 24.8672C18.9082 25.2422 18.9141 25.6172 18.9082 25.998C18.9082 26.0742 18.9316 26.0918 19.0078 26.0918Z" fill="white"/>
<path d="M24.7676 25.998C24.7676 26.0742 24.791 26.0977 24.8672 26.0977C25.2656 26.0918 25.6699 26.0977 26.0684 26.0977C26.4668 26.0977 26.8711 26.0918 27.2695 26.0977C27.3691 26.0977 27.3867 26.0684 27.3867 25.9746C27.3809 25.6113 27.3809 25.248 27.3867 24.8848C27.3867 24.8027 27.3633 24.7793 27.2812 24.7793C26.4785 24.7793 25.6758 24.7793 24.873 24.7793C24.8027 24.7793 24.7734 24.7969 24.7734 24.873C24.7734 25.248 24.7734 25.623 24.7676 25.998Z" fill="white"/>
<path d="M19.0078 35.8711C19.4062 35.8652 19.8105 35.8711 20.209 35.8711C20.6133 35.8711 21.0176 35.8711 21.4219 35.8711C21.4922 35.8711 21.5215 35.8594 21.5215 35.7773C21.5156 35.4023 21.5156 35.0332 21.5215 34.6582C21.5215 34.5762 21.498 34.5645 21.4219 34.5645C20.6133 34.5645 19.8105 34.5645 19.002 34.5645C18.9199 34.5645 18.9082 34.5879 18.9082 34.6641C18.9141 35.0332 18.9141 35.4023 18.9082 35.7715C18.9082 35.8477 18.9316 35.8711 19.0078 35.8711Z" fill="white"/>
<path d="M24.8789 32.6133C25.1426 32.6074 25.4062 32.6133 25.6699 32.6133C25.7871 32.6133 25.9102 32.6133 26.0273 32.6133C25.8984 32.1797 25.8223 31.7461 25.8047 31.2949C25.4883 31.2949 25.1719 31.2949 24.8555 31.2949C24.7852 31.2949 24.7676 31.3184 24.7676 31.3828C24.7676 31.7578 24.7734 32.1328 24.7676 32.5078C24.7676 32.6016 24.8027 32.6191 24.8789 32.6133Z" fill="white"/>
<path d="M24.8848 35.8711C25.5 35.8652 26.1094 35.8711 26.7246 35.8711C26.6953 35.7715 26.6719 35.6777 26.6484 35.5781C26.6367 35.5254 26.5957 35.4727 26.5547 35.4434C26.2266 35.2031 25.998 34.9102 25.8691 34.5703C25.5352 34.5703 25.207 34.5703 24.873 34.5703C24.791 34.5703 24.7676 34.5879 24.7676 34.6699C24.7734 35.0332 24.7734 35.3965 24.7676 35.7598C24.7676 35.8418 24.791 35.8711 24.8848 35.8711Z" fill="white"/>
<path d="M24.8672 29.3555C25.3008 29.3555 25.7344 29.3555 26.168 29.3496C26.3906 28.8633 26.7129 28.4238 27.1406 28.0371C26.3789 28.0371 25.6172 28.0371 24.8496 28.0371C24.7676 28.0371 24.7617 28.0781 24.7617 28.1426C24.7617 28.5176 24.7617 28.8867 24.7617 29.2617C24.7676 29.3379 24.791 29.3555 24.8672 29.3555Z" fill="white"/>
</svg>
