<svg width="95" height="95" viewBox="0 0 95 95" fill="none" xmlns="http://www.w3.org/2000/svg">
<path d="M46 0.866027C46.9282 0.330128 48.0718 0.330127 49 0.866025L87.1362 22.884C88.0644 23.4199 88.6362 24.4103 88.6362 25.482V69.5179C88.6362 70.5897 88.0644 71.5801 87.1362 72.116L49 94.134C48.0718 94.6699 46.9282 94.6699 46 94.134L7.86379 72.116C6.93559 71.5801 6.36379 70.5897 6.36379 69.518V25.4821C6.36379 24.4103 6.93559 23.4199 7.86379 22.884L46 0.866027Z" fill="#4365AF"/>
<g clip-path="url(#clip0)">
<path d="M56.6629 28.0005C50.9632 28.0005 46.3262 32.6375 46.3262 38.3372C46.3262 44.0369 50.9632 48.674 56.6629 48.674C62.3625 48.674 66.9995 44.0369 66.9995 38.3372C66.9995 32.6375 62.3625 28.0005 56.6629 28.0005ZM52.2622 45.062C52.8335 43.1518 54.6167 41.7827 56.6629 41.7827C58.7091 41.7827 60.4921 43.1518 61.0635 45.062C58.3942 46.8146 54.9355 46.8173 52.2622 45.062ZM56.6629 39.4857C55.3963 39.4857 54.3658 38.4553 54.3658 37.1887C54.3658 35.9221 55.3963 34.8916 56.6629 34.8916C57.9295 34.8916 58.9599 35.9221 58.9599 37.1887C58.9599 38.4553 57.9295 39.4857 56.6629 39.4857ZM62.8848 43.4229C62.2615 42.1182 61.2409 41.0453 59.9907 40.3509C60.7744 39.5265 61.257 38.4132 61.257 37.1887C61.257 34.6555 59.1961 32.5946 56.6629 32.5946C54.1297 32.5946 52.0688 34.6555 52.0688 37.1887C52.0688 38.4132 52.5513 39.5265 53.335 40.3509C52.0848 41.0453 51.0642 42.1181 50.4409 43.4228C49.3054 42.0362 48.6232 40.2649 48.6232 38.3372C48.6232 33.9041 52.2298 30.2975 56.6629 30.2975C61.0959 30.2975 64.7025 33.9041 64.7025 38.3372C64.7025 40.2649 64.0202 42.0362 62.8848 43.4229Z" fill="white"/>
<path d="M51.6433 54.727L50.331 56.0393C48.6586 55.9115 45.6329 53.5895 43.5219 51.4786C41.4112 49.3678 39.0893 46.3422 38.9612 44.6695L39.4614 44.1694L44.3341 39.2966L36.2129 31.1753C35.1175 32.2707 31.0861 36.3021 29.4643 37.9239C28.8682 38.5199 28.4444 39.2537 28.2386 40.0459C27.6105 42.4645 28.2196 45.104 30.1008 48.1153C31.6113 50.533 33.9972 53.3236 37.8371 57.1634C41.677 61.0033 44.4676 63.3892 46.8852 64.8997C49.348 66.4384 52.1315 67.4953 54.9546 66.7619C55.7467 66.5561 56.4806 66.1323 57.0767 65.5362L59.7645 62.8483L63.8251 58.7877L55.704 50.6664L51.6433 54.727ZM36.2129 34.4238L41.0857 39.2965L39.4614 40.9207L34.5886 36.0479L36.2129 34.4238ZM55.4526 63.9119C55.1454 64.2189 54.7736 64.4356 54.3771 64.5386C52.5773 65.0062 50.5836 64.5018 48.1023 62.9516C45.8383 61.537 43.1732 59.251 39.4614 55.5391C35.7495 51.8272 33.4634 49.1622 32.0489 46.8981C30.4987 44.4168 29.9944 42.4229 30.4619 40.6233C30.5648 40.2268 30.7815 39.855 31.0885 39.5479L32.9643 37.6722L37.8371 42.545L37.3236 43.0585C36.8632 43.5187 36.6243 44.1553 36.6681 44.8048C36.873 47.8566 40.7227 51.9276 41.8978 53.1027C43.0728 54.2778 47.1438 58.1274 50.1954 58.3323C50.844 58.3763 51.4813 58.1376 51.9418 57.677L52.4555 57.1633L57.3282 62.0362L55.4526 63.9119ZM58.9524 60.4119L54.0796 55.5391L55.7039 53.9148L60.5767 58.7876L58.9524 60.4119Z" fill="white"/>
</g>
<defs>
<clipPath id="clip0">
<rect width="39" height="39" fill="white" transform="translate(28 28)"/>
</clipPath>
</defs>
</svg>
