<svg width="95" height="95" viewBox="0 0 95 95" fill="none" xmlns="http://www.w3.org/2000/svg">
<path d="M46 0.866027C46.9282 0.330128 48.0718 0.330127 49 0.866025L87.1362 22.884C88.0644 23.4199 88.6362 24.4103 88.6362 25.482V69.5179C88.6362 70.5897 88.0644 71.5801 87.1362 72.116L49 94.134C48.0718 94.6699 46.9282 94.6699 46 94.134L7.86379 72.116C6.93559 71.5801 6.36379 70.5897 6.36379 69.518V25.4821C6.36379 24.4103 6.93559 23.4199 7.86379 22.884L46 0.866027Z" fill="#4365AF"/>
<path d="M63.6562 57.5977C62.6418 57.5977 61.8203 58.4192 61.8203 59.4336C61.8203 60.448 62.6418 61.2695 63.6562 61.2695C64.6707 61.2695 65.4922 60.448 65.4922 59.4336C65.4922 58.4192 64.6707 57.5977 63.6562 57.5977Z" fill="white"/>
<path d="M62.7383 50.2539C62.2316 50.2539 61.8203 50.6652 61.8203 51.1719C61.8203 51.6786 62.2316 52.0898 62.7383 52.0898C63.245 52.0898 63.6562 51.6786 63.6562 51.1719C63.6562 50.6652 63.245 50.2539 62.7383 50.2539Z" fill="white"/>
<path d="M35.5664 57.5977C34.552 57.5977 33.7305 58.4192 33.7305 59.4336C33.7305 60.448 34.552 61.2695 35.5664 61.2695C36.5808 61.2695 37.4023 60.448 37.4023 59.4336C37.4023 58.4192 36.5808 57.5977 35.5664 57.5977Z" fill="white"/>
<path d="M67.1417 46.6408L65.5589 40.3097C66.1215 39.7715 66.4102 39.0576 66.4102 38.3203C66.4102 36.8017 65.1748 35.5664 63.6562 35.5664H56.3125V32.8125C56.3125 31.2939 55.0772 30.0586 53.5586 30.0586H26.7539C25.2353 30.0586 24 31.2939 24 32.8125V56.6797C24 58.1983 25.2353 59.4336 26.7539 59.4336H30.0586C30.0586 62.4708 32.5292 64.9414 35.5664 64.9414C38.6036 64.9414 41.0742 62.4708 41.0742 59.4336H58.1484C58.1484 62.4708 60.6191 64.9414 63.6562 64.9414C66.6934 64.9414 69.1641 62.4708 69.1641 59.4336C69.1641 59.3812 69.1616 59.3292 69.1601 59.2769C70.2305 58.8993 71 57.8777 71 56.6797V51.1719C71 48.8899 69.3261 46.9922 67.1417 46.6408ZM63.8574 41.0742L65.2344 46.582H57.6106L59.7154 44.4772C60.074 44.1186 60.074 43.5377 59.7154 43.1791C59.3569 42.8205 58.776 42.8205 58.4174 43.1791L56.3125 45.2836V41.0742H63.8574ZM64.5742 38.3203C64.5742 38.827 64.1629 39.2383 63.6562 39.2383H56.3125V37.4023H63.6562C64.1626 37.4023 64.5742 37.814 64.5742 38.3203ZM35.5664 63.1055C33.5419 63.1055 31.8945 61.4581 31.8945 59.4336C31.8945 57.3814 33.5716 55.7617 35.5664 55.7617C37.5659 55.7617 39.2383 57.3857 39.2383 59.4336C39.2383 61.4581 37.591 63.1055 35.5664 63.1055ZM40.759 57.5977C39.9924 55.4315 37.9173 53.9258 35.5664 53.9258C33.2145 53.9258 31.1386 55.4325 30.3734 57.5977H26.7539C26.2476 57.5977 25.8359 57.186 25.8359 56.6797V32.8125C25.8359 32.3062 26.2476 31.8945 26.7539 31.8945H53.5586C54.0649 31.8945 54.4766 32.3062 54.4766 32.8125V57.5977H40.759ZM63.6562 63.1055C61.6317 63.1055 59.9844 61.4581 59.9844 59.4336C59.9844 57.3814 61.6615 55.7617 63.6562 55.7617C65.6557 55.7617 67.3281 57.3857 67.3281 59.4336C67.3281 61.4581 65.6808 63.1055 63.6562 63.1055ZM68.7836 57.4223C67.9693 55.3504 65.9433 53.9258 63.6562 53.9258C61.3043 53.9258 59.2285 55.4325 58.4633 57.5977H56.3125V48.418H66.4102C67.6067 48.418 68.6273 49.1853 69.0063 50.2539H66.4102C65.9031 50.2539 65.4922 50.6648 65.4922 51.1719C65.4922 51.6789 65.9031 52.0898 66.4102 52.0898H69.1641V56.6797C69.1641 56.9848 69.0135 57.2552 68.7836 57.4223Z" fill="white"/>
<path d="M40.1562 35.5664C35.6008 35.5664 31.8945 39.2727 31.8945 43.8281C31.8945 48.3835 35.6008 52.0898 40.1562 52.0898C44.7117 52.0898 48.418 48.3835 48.418 43.8281C48.418 39.2727 44.7117 35.5664 40.1562 35.5664ZM40.1562 50.2539C36.6131 50.2539 33.7305 47.3713 33.7305 43.8281C33.7305 40.285 36.6131 37.4023 40.1562 37.4023C43.6994 37.4023 46.582 40.285 46.582 43.8281C46.582 47.3713 43.6994 50.2539 40.1562 50.2539Z" fill="white"/>
<path d="M43.8281 42.9102H41.0742V40.1562C41.0742 39.6492 40.6633 39.2383 40.1562 39.2383C39.6492 39.2383 39.2383 39.6492 39.2383 40.1562V43.8281C39.2383 44.3352 39.6492 44.7461 40.1562 44.7461H43.8281C44.3352 44.7461 44.7461 44.3352 44.7461 43.8281C44.7461 43.3211 44.3352 42.9102 43.8281 42.9102Z" fill="white"/>
</svg>
