<svg width="60" height="60" viewBox="0 0 60 60" fill="none" xmlns="http://www.w3.org/2000/svg">
<path d="M28.5 0.866025C29.4282 0.330127 30.5718 0.330127 31.5 0.866025L54.4808 14.134C55.409 14.6699 55.9808 15.6603 55.9808 16.732V43.2679C55.9808 44.3397 55.409 45.3301 54.4808 45.866L31.5 59.134C30.5718 59.6699 29.4282 59.6699 28.5 59.134L5.51924 45.866C4.59103 45.3301 4.01924 44.3397 4.01924 43.2679V16.732C4.01924 15.6603 4.59103 14.6699 5.51924 14.134L28.5 0.866025Z" fill="#ED2226"/>
<g clip-path="url(#clip0)">
<path d="M40.2045 36.3774C39.5638 36.3774 39.0449 36.8963 39.0449 37.537C39.0449 38.1777 39.5638 38.6965 40.2045 38.6965C40.8452 38.6965 41.364 38.1777 41.364 37.537C41.364 36.8963 40.8452 36.3774 40.2045 36.3774Z" fill="white"/>
<path d="M39.6247 31.7393C39.3047 31.7393 39.0449 31.999 39.0449 32.319C39.0449 32.639 39.3047 32.8988 39.6247 32.8988C39.9447 32.8988 40.2045 32.639 40.2045 32.319C40.2045 31.999 39.9447 31.7393 39.6247 31.7393Z" fill="white"/>
<path d="M22.4642 36.3774C21.8235 36.3774 21.3047 36.8963 21.3047 37.537C21.3047 38.1777 21.8235 38.6965 22.4642 38.6965C23.1049 38.6965 23.6238 38.1777 23.6238 37.537C23.6238 36.8963 23.1049 36.3774 22.4642 36.3774Z" fill="white"/>
<path d="M42.4056 29.4574L41.4059 25.4588C41.7613 25.1188 41.9436 24.6679 41.9436 24.2023C41.9436 23.2432 41.1634 22.463 40.2043 22.463H35.5661V20.7237C35.5661 19.7646 34.7859 18.9844 33.8268 18.9844H16.8975C15.9384 18.9844 15.1582 19.7646 15.1582 20.7237V35.7977C15.1582 36.7568 15.9384 37.537 16.8975 37.537H18.9847C18.9847 39.4552 20.5451 41.0156 22.4633 41.0156C24.3815 41.0156 25.9419 39.4552 25.9419 37.537H36.7256C36.7256 39.4552 38.286 41.0156 40.2043 41.0156C42.1225 41.0156 43.6829 39.4552 43.6829 37.537C43.6829 37.5039 43.6813 37.4711 43.6804 37.438C44.3564 37.1996 44.8424 36.5543 44.8424 35.7977V32.3191C44.8424 30.8778 43.7852 29.6793 42.4056 29.4574ZM40.3313 25.9416L41.201 29.4202H36.3859L37.7153 28.0908C37.9418 27.8644 37.9418 27.4975 37.7153 27.271C37.4889 27.0445 37.122 27.0445 36.8955 27.271L35.5661 28.6002V25.9416H40.3313ZM40.784 24.2023C40.784 24.5223 40.5243 24.7821 40.2043 24.7821H35.5661V23.6225H40.2043C40.524 23.6225 40.784 23.8825 40.784 24.2023ZM22.4633 39.8561C21.1846 39.8561 20.1442 38.8157 20.1442 37.537C20.1442 36.2409 21.2034 35.2179 22.4633 35.2179C23.7261 35.2179 24.7824 36.2436 24.7824 37.537C24.7824 38.8157 23.742 39.8561 22.4633 39.8561ZM25.7429 36.3775C25.2587 35.0093 23.9481 34.0584 22.4633 34.0584C20.9779 34.0584 19.6668 35.01 19.1835 36.3775H16.8975C16.5777 36.3775 16.3177 36.1175 16.3177 35.7977V20.7237C16.3177 20.4039 16.5777 20.1439 16.8975 20.1439H33.8268C34.1466 20.1439 34.4066 20.4039 34.4066 20.7237V36.3775H25.7429ZM40.2043 39.8561C38.9256 39.8561 37.8852 38.8157 37.8852 37.537C37.8852 36.2409 38.9444 35.2179 40.2043 35.2179C41.4671 35.2179 42.5233 36.2436 42.5233 37.537C42.5233 38.8157 41.4829 39.8561 40.2043 39.8561ZM43.4426 36.2667C42.9283 34.9582 41.6487 34.0584 40.2043 34.0584C38.7188 34.0584 37.4078 35.01 36.9245 36.3775H35.5661V30.5798H41.9436C42.6993 30.5798 43.3438 31.0644 43.5832 31.7393H41.9436C41.6233 31.7393 41.3638 31.9988 41.3638 32.3191C41.3638 32.6393 41.6233 32.8989 41.9436 32.8989H43.6829V35.7977C43.6829 35.9904 43.5878 36.1612 43.4426 36.2667Z" fill="white"/>
</g>
<defs>
<clipPath id="clip0">
<rect width="29.6842" height="29.6842" fill="white" transform="translate(15.1582 15.1577)"/>
</clipPath>
</defs>
</svg>
