<svg width="91" height="45" viewBox="0 0 91 45" fill="none" xmlns="http://www.w3.org/2000/svg">
<path d="M7.9819 27.6064V29.803H2.68025V40.158H0V27.6064H7.9819Z" fill="black"/>
<path d="M11.6085 30.5586V34.356C11.6085 34.7549 11.5443 35.7334 11.4106 37.2918L15.8669 30.5586H19.0394V40.1584H16.4875V36.3291C16.4875 35.6484 16.5464 34.6857 16.6587 33.4412L12.2184 40.1584H9.05664V30.5586H11.6085Z" fill="black"/>
<path d="M30.574 30.5586V40.1584H27.9312V32.5264H24.4324V40.1584H21.7949V30.5586H30.574Z" fill="black"/>
<path d="M37.7742 40.3336C36.2174 40.3336 35.003 39.9081 34.131 39.0519C33.2536 38.2009 32.8203 36.9883 32.8203 35.43C32.8203 33.8238 33.2269 32.5793 34.0347 31.6964C34.8425 30.8189 35.9606 30.3774 37.389 30.3774C38.7532 30.3774 39.8178 30.7657 40.5775 31.5369C41.3372 32.308 41.717 33.3771 41.717 34.7386V36.0097H35.4845C35.5113 36.7543 35.736 37.334 36.1479 37.7541C36.5652 38.1743 37.143 38.3817 37.8919 38.3817C38.4751 38.3817 39.0261 38.3232 39.5397 38.2009C40.0586 38.0786 40.5989 37.8871 41.166 37.6265V39.6528C40.7059 39.8815 40.2137 40.0517 39.6895 40.1634C39.1652 40.2751 38.5285 40.3336 37.7742 40.3336ZM37.3997 32.2442C36.8434 32.2442 36.4047 32.4197 36.089 32.7707C35.7734 33.1218 35.5915 33.6217 35.5434 34.2706H39.2401C39.2294 33.6217 39.0582 33.1218 38.7318 32.7707C38.4055 32.4197 37.9615 32.2442 37.3997 32.2442Z" fill="black"/>
<path d="M49.288 40.3335C48.1538 40.3335 47.2657 39.924 46.6184 39.105H46.4793C46.5703 39.9081 46.6184 40.3708 46.6184 40.4984V44.3862H43.9863V30.5583H46.1262L46.4954 31.8028H46.6184C47.2336 30.8508 48.1485 30.3774 49.3575 30.3774C50.497 30.3774 51.3904 30.8136 52.0377 31.6911C52.6851 32.5686 53.0061 33.7812 53.0061 35.3395C53.0061 36.366 52.8563 37.2542 52.5513 38.0094C52.2464 38.7646 51.8184 39.339 51.262 39.7379C50.7003 40.1367 50.0423 40.3335 49.288 40.3335ZM48.5122 32.4729C47.8596 32.4729 47.3888 32.6697 47.0892 33.0686C46.7896 33.4674 46.6345 34.1216 46.6238 35.0417V35.3236C46.6238 36.3553 46.7789 37.0946 47.0838 37.5414C47.3941 37.9881 47.881 38.2115 48.5497 38.2115C49.732 38.2115 50.3205 37.2435 50.3205 35.3076C50.3205 34.3609 50.176 33.6536 49.8818 33.1802C49.5929 32.7122 49.1328 32.4729 48.5122 32.4729Z" fill="black"/>
<path d="M67.4672 40.1579H65.0063V32.595L64.8672 33.1269C64.5569 34.3342 64.2787 35.2489 64.0272 35.8659L62.3153 40.1579H60.4429L58.7042 35.8286C58.4581 35.2011 58.1906 34.3129 57.9124 33.1747L57.7466 32.5897V40.1526H55.291V30.558H58.9182L60.5766 34.6533C60.7478 35.0947 60.9083 35.6 61.0581 36.1743C61.2025 36.7487 61.3042 37.238 61.3577 37.6422C61.5449 36.786 61.6947 36.169 61.8017 35.7914C61.9087 35.4138 62.0264 35.0734 62.1495 34.7543C62.2779 34.4405 62.8503 33.0418 63.8667 30.5527H67.4618V40.1579H67.4672Z" fill="black"/>
<path d="M74.6727 40.3336C73.1159 40.3336 71.9015 39.9081 71.0294 39.0519C70.1521 38.2009 69.7188 36.9883 69.7188 35.43C69.7188 33.8238 70.1253 32.5793 70.9332 31.6964C71.741 30.8189 72.8591 30.3774 74.2875 30.3774C75.6517 30.3774 76.7163 30.7657 77.476 31.5369C78.2356 32.308 78.6155 33.3771 78.6155 34.7386V36.0097H72.3883C72.4151 36.7543 72.6397 37.334 73.0517 37.7541C73.469 38.1743 74.0467 38.3817 74.7957 38.3817C75.3788 38.3817 75.9299 38.3232 76.4434 38.2009C76.9624 38.0786 77.5027 37.8871 78.0698 37.6265V39.6528C77.6097 39.8815 77.1175 40.0517 76.5932 40.1634C76.069 40.2751 75.427 40.3336 74.6727 40.3336ZM74.3035 32.2442C73.7472 32.2442 73.3085 32.4197 72.9928 32.7707C72.6772 33.1218 72.4953 33.6217 72.4471 34.2706H76.1439C76.1332 33.6217 75.962 33.1218 75.6356 32.7707C75.3039 32.4197 74.8599 32.2442 74.3035 32.2442Z" fill="black"/>
<path d="M90.9895 43.6047H88.6249V40.1637H82.1302V43.6047H79.7656V38.2437H80.5788C81.1298 37.3928 81.5953 36.3132 81.9697 35.0155C82.3442 33.7178 82.6064 32.2286 82.7562 30.5586H89.5825V38.2437H91.0002V43.6047H90.9895ZM86.9397 38.2437V32.5264H84.9603C84.8158 33.5901 84.6179 34.6006 84.3665 35.5579C84.115 36.5153 83.7673 37.4088 83.3232 38.2437H86.9397Z" fill="black"/>
<path fill-rule="evenodd" clip-rule="evenodd" d="M80.5997 0.237793L85.7944 3.21613L90.989 6.19978V12.1618V18.1291L85.7944 21.1074L80.5997 24.0911L75.4051 21.1074L70.2051 18.1291V12.1618V6.19978L75.4051 3.21613L80.5997 0.237793Z" fill="#4365AF"/>
<path d="M78.5615 18.8414C77.5237 18.8414 77.0315 17.0438 76.8014 15.5333C76.6409 14.4856 76.5714 14.209 76.32 13.5708C76.0846 12.9752 75.8117 12.6295 75.5496 12.2997C75.2714 11.9487 74.9879 11.587 74.7739 10.9701C74.2656 9.52348 74.6508 7.36418 76.1809 6.25263C77.4969 5.29531 79.059 5.57718 79.1232 5.58782C80.0434 5.76333 80.771 6.09307 81.3273 6.44941C81.3541 6.28454 81.4076 6.1303 81.4878 6.0133C81.6697 5.74737 82.0175 5.57187 82.4883 5.50804C83.2854 5.40168 84.5426 5.63037 85.4146 6.37495C86.6611 7.44396 86.9018 9.52348 86.4043 10.8371C86.1743 11.4488 85.9228 11.7891 85.6821 12.1136C85.4199 12.4699 85.1738 12.7996 84.9385 13.5176C84.7673 14.0388 84.687 14.4058 84.5907 14.8738C84.5479 15.0706 84.5051 15.2887 84.4463 15.544L84.4302 15.6237C84.1841 16.6981 83.7241 18.7031 82.5953 18.7882C81.7393 18.8574 81.5092 18.0756 81.322 17.4533C81.1294 16.7938 81.0438 16.2992 80.9743 15.9056C80.9315 15.6557 80.894 15.4323 80.8352 15.2195C80.7496 14.9164 80.68 14.709 80.6265 14.5654C80.5677 14.7037 80.4981 14.9058 80.4232 15.2142L80.252 15.8897C80.0809 16.597 79.915 17.2618 79.8027 17.5916L79.7706 17.6873C79.6582 18.0596 79.4175 18.8255 78.5829 18.8467C78.5722 18.8414 78.5669 18.8414 78.5615 18.8414ZM78.4759 6.18349C77.9891 6.18349 77.2294 6.27922 76.5553 6.77384C75.2874 7.69925 74.9558 9.56071 75.3784 10.7627C75.5603 11.2732 75.7903 11.5658 76.0578 11.9061C76.336 12.2572 76.6463 12.656 76.9191 13.3368C77.192 14.0282 77.2722 14.342 77.4434 15.4429C77.7216 17.2565 78.2191 18.2032 78.5669 18.2032C78.5669 18.2032 78.5669 18.2032 78.5722 18.2032C78.8772 18.1979 79.0109 17.9639 79.15 17.5012L79.1874 17.3895C79.2891 17.081 79.4603 16.4002 79.6208 15.7408L79.792 15.06C80.0327 14.1133 80.2841 13.7091 80.6426 13.7091C80.9208 13.7091 81.1562 13.9325 81.4557 15.0547C81.5199 15.2887 81.5627 15.528 81.6055 15.7993C81.6751 16.1981 81.7553 16.6555 81.9372 17.2778C82.1459 17.9851 82.2529 18.1766 82.5311 18.15C82.9644 18.1181 83.3817 17.2193 83.7829 15.4855L83.799 15.4057C83.8578 15.1557 83.9006 14.943 83.9434 14.7462C84.045 14.2622 84.1253 13.8793 84.3072 13.3262C84.5747 12.5124 84.8636 12.1189 85.1471 11.7413C85.3718 11.4381 85.5858 11.1456 85.7837 10.6191C86.2064 9.5022 85.9817 7.73116 84.9813 6.87489C84.2911 6.28454 83.2479 6.06648 82.5631 6.1569C82.2422 6.19944 82.071 6.30049 82.0121 6.38027C81.9105 6.52387 81.9372 6.88552 82.0121 6.95998C82.6594 7.52906 82.6594 7.68861 82.6594 7.77371C82.6594 7.91199 82.5738 8.03431 82.4455 8.07686C82.3171 8.12472 82.1512 8.0609 82.0656 7.95453C81.7339 7.55033 80.7656 6.57173 78.9895 6.23667C78.9734 6.22072 78.7755 6.18349 78.4759 6.18349Z" fill="white"/>
<path fill-rule="evenodd" clip-rule="evenodd" d="M57.194 0.237793L62.3887 3.21613L67.5833 6.19978V12.1618V18.1291L62.3887 21.1074L57.194 24.0911L51.9993 21.1074L46.8047 18.1291V12.1618V6.19978L51.9993 3.21613L57.194 0.237793Z" fill="#ED2127"/>
<path d="M64.3947 18.3576C64.2128 18.5438 64.1754 18.5385 63.9774 18.3576C63.6351 18.0492 63.2927 17.746 62.9503 17.4375C62.6186 17.1397 62.2816 16.8366 61.9499 16.5387C61.6182 16.2409 61.2865 15.9431 60.9548 15.6452C60.9013 15.5974 60.8425 15.5176 60.7836 15.5123C60.7301 15.507 60.6659 15.5867 60.6124 15.6293C60.377 15.8154 60.0935 15.8846 59.8046 15.9377C59.6013 15.975 59.3927 15.9856 59.1894 16.0069C58.9379 16.0335 58.7453 15.9377 58.5688 15.7676C58.2424 15.4538 57.9001 15.1613 57.563 14.8581C57.3597 14.6773 57.1671 14.4911 56.9638 14.3103C56.7659 14.1295 56.5626 13.9593 56.3593 13.7785C55.9153 13.3796 55.4659 12.9807 55.0219 12.5765C54.5939 12.1883 54.1605 11.8053 53.7326 11.4171C53.2404 10.9757 52.7535 10.5342 52.2614 10.0981C52.1276 9.98111 51.9992 9.85878 51.8655 9.74178C51.614 9.52904 51.5712 9.23121 51.812 8.97592C51.8708 8.9121 51.9297 8.84828 51.9885 8.78978C52.0313 8.74723 52.0367 8.71532 51.9885 8.67277C51.8066 8.51322 51.6247 8.35367 51.4482 8.1888C51.4 8.14625 51.3733 8.15689 51.3358 8.19412C51.2074 8.31644 51.0844 8.44408 50.9453 8.55045C50.8062 8.6515 50.6511 8.72596 50.4745 8.74191C50.1535 8.76851 49.9556 8.63555 49.8593 8.3324C49.8539 8.32176 49.8432 8.31112 49.8379 8.30049C49.8379 8.22603 49.8379 8.15157 49.8379 8.07711C49.8432 8.06647 49.8539 8.05584 49.8593 8.0452C49.9021 7.83778 49.9877 7.64632 50.1268 7.48677C50.3996 7.17298 50.6778 6.86451 50.956 6.55604C51.2288 6.25289 51.507 5.95506 51.7799 5.65191C51.9564 5.45512 52.149 5.28494 52.4005 5.1892C52.47 5.16261 52.5449 5.14134 52.6198 5.11475C52.6733 5.11475 52.7268 5.11475 52.7803 5.11475C52.8391 5.14134 52.9033 5.16261 52.9622 5.19452C53.1976 5.32748 53.2939 5.58277 53.2243 5.87528C53.1548 6.16248 52.9943 6.39117 52.7963 6.59859C52.7375 6.65709 52.7482 6.689 52.807 6.73687C52.9836 6.8911 53.1601 7.04534 53.3313 7.20489C53.3741 7.24212 53.4009 7.25275 53.4437 7.20489C53.5025 7.13575 53.5667 7.07725 53.6202 7.00811C53.8182 6.7741 54.1284 6.7475 54.3531 6.9496C54.9149 7.44954 55.4766 7.95479 56.033 8.45472C56.4931 8.86956 56.9531 9.28439 57.4132 9.69391C57.8519 10.0875 58.2906 10.4757 58.7293 10.8693C59.2161 11.3107 59.7083 11.7521 60.1951 12.1883C60.5482 12.5074 60.9013 12.8212 61.2544 13.1403C61.3293 13.2041 61.3667 13.2839 61.3721 13.3689C61.3828 13.5551 61.3828 13.7359 61.3828 13.9221C61.3828 14.0444 61.3614 14.1614 61.3614 14.2837C61.3667 14.5922 61.2811 14.8741 61.1046 15.1293C61.0564 15.1932 61.0618 15.2251 61.126 15.2783C61.4844 15.5921 61.8375 15.9165 62.196 16.2356C62.656 16.6504 63.1215 17.0653 63.5816 17.4801C63.7313 17.6131 63.8865 17.746 64.0309 17.8843C64.1593 18.0013 64.2877 18.1236 64.4108 18.2459C64.3947 18.2832 64.3947 18.3204 64.3947 18.3576ZM56.9692 10.0768C56.905 10.146 56.8568 10.2098 56.798 10.263C56.7498 10.3109 56.7552 10.3374 56.8033 10.38C57.0173 10.5715 57.2313 10.7682 57.4453 10.965C57.7717 11.2682 58.098 11.5766 58.4243 11.8798C58.7507 12.1829 59.0824 12.4755 59.4141 12.7786C59.7671 13.103 60.1149 13.4275 60.4626 13.7572C60.4947 13.7891 60.5108 13.8476 60.5161 13.8902C60.5161 13.9646 60.5054 14.0391 60.4894 14.1135C60.4359 14.3741 60.3182 14.6028 60.1095 14.7783C59.8955 14.9645 59.6387 15.0655 59.3606 15.1134C59.3231 15.1187 59.2696 15.1028 59.2375 15.0762C59.077 14.9432 58.9165 14.8049 58.7614 14.6666C58.4725 14.406 58.1836 14.1401 57.8947 13.8795C57.456 13.4806 57.0173 13.0764 56.5787 12.6776C56.1881 12.3212 55.8029 11.9649 55.4177 11.6085C55.284 11.4862 55.2733 11.3799 55.391 11.2416C55.4498 11.1724 55.514 11.1033 55.5729 11.0395C55.819 10.7736 56.0651 10.5076 56.3112 10.2417C56.4342 10.1088 56.5573 9.97579 56.6856 9.83219C56.5894 9.7471 56.4984 9.66732 56.4021 9.58223C56.2095 9.79496 56.0223 9.99706 55.835 10.2045C55.6585 10.4013 55.4819 10.598 55.3001 10.7948C55.2198 10.8799 55.1075 10.8852 55.0272 10.8055C54.947 10.731 54.947 10.6246 55.0219 10.5395C55.3268 10.1992 55.6371 9.8641 55.942 9.52372C56.0009 9.4599 56.0544 9.39608 56.1186 9.32694C56.0223 9.24185 55.9313 9.15675 55.8297 9.06634C55.8136 9.08761 55.8083 9.10357 55.7976 9.1142C55.6264 9.30035 55.4605 9.4865 55.2893 9.67796C55.1931 9.78433 55.0968 9.89069 55.0005 9.99174C54.9256 10.0715 54.8186 10.0768 54.7383 10.0077C54.6634 9.94388 54.6527 9.84815 54.7116 9.75242C54.7383 9.71519 54.7651 9.68328 54.7918 9.65137C55.0326 9.38544 55.2786 9.11952 55.5194 8.8536C55.5301 8.83765 55.5354 8.80042 55.5247 8.78978C55.4445 8.71532 55.3589 8.64086 55.2733 8.56641C55.177 8.66746 55.0861 8.75787 55.0005 8.8536C54.7223 9.16207 54.4494 9.47054 54.1712 9.77369C54.091 9.8641 53.9733 9.85879 53.8877 9.76837C53.8182 9.69391 53.8235 9.59818 53.9091 9.50245C54.1552 9.22589 54.4066 8.95465 54.6581 8.67809C54.7704 8.55577 54.8774 8.43345 54.9951 8.3058C54.6634 8.00797 54.3371 7.71546 54.0054 7.41763C53.9091 7.52399 53.8182 7.61973 53.7272 7.71546C53.54 7.90692 53.2511 7.91224 53.0478 7.73673C52.7054 7.43358 52.363 7.12511 52.0206 6.81664C51.9832 6.78473 51.9457 6.75282 51.8976 6.71559C52.0527 6.5454 52.1918 6.39117 52.3309 6.23693C52.4433 6.11461 52.5556 5.98697 52.6144 5.83273C52.6251 5.80082 52.6358 5.76359 52.6465 5.71573C52.6144 5.72105 52.5984 5.72637 52.5877 5.72637C52.5663 5.73168 52.5502 5.74232 52.5288 5.75296C52.3577 5.83805 52.24 5.98165 52.1169 6.11993C51.6782 6.60391 51.2342 7.08256 50.8009 7.57186C50.6778 7.71014 50.5708 7.86437 50.4585 8.01861C50.4317 8.05584 50.4264 8.10902 50.405 8.17284C50.5227 8.16221 50.5976 8.10902 50.6618 8.05052C50.7902 7.93351 50.9079 7.81119 51.0255 7.68355C51.1325 7.57186 51.2342 7.45485 51.3412 7.33785C51.4375 7.42294 51.5231 7.50272 51.614 7.5825C51.9083 7.84842 52.2025 8.10902 52.4967 8.37494C52.7054 8.56641 52.7054 8.86424 52.5074 9.07166C52.4379 9.14611 52.3684 9.22057 52.3042 9.30035C52.2935 9.3163 52.2935 9.36417 52.3042 9.38013C52.3951 9.47054 52.4967 9.55563 52.593 9.64073C52.9782 9.98643 53.3688 10.3374 53.754 10.6831C53.9305 10.8427 54.107 11.0022 54.2836 11.1565C54.5671 11.4064 54.8507 11.6617 55.1342 11.9117C55.4659 12.2095 55.7922 12.5074 56.1239 12.8052C56.5733 13.2094 57.028 13.6136 57.4828 14.0178C58.0017 14.4805 58.5153 14.9432 59.0342 15.4059C59.061 15.4272 59.1038 15.4485 59.1359 15.4431C59.3659 15.4219 59.6066 15.4112 59.8313 15.358C60.6017 15.1825 60.9922 14.555 60.8852 13.7891C60.8692 13.6721 60.8532 13.5498 60.7515 13.4647C60.468 13.2094 60.1791 12.9594 59.8955 12.7041C59.4355 12.2893 58.9754 11.8798 58.5153 11.465C58.1461 11.1299 57.7717 10.7948 57.4025 10.4598C57.2474 10.3268 57.1136 10.2045 56.9692 10.0768ZM59.3124 14.789C59.382 14.7783 59.4355 14.7517 59.4462 14.6932C59.4569 14.6454 59.4515 14.5815 59.4248 14.5496C59.3338 14.4486 59.2322 14.3582 59.1305 14.2624C59.0021 14.1454 58.8737 14.0338 58.7507 13.9167C58.4778 13.6615 58.205 13.4062 57.9322 13.1509C57.5577 12.8052 57.1832 12.4648 56.814 12.1191C56.6696 11.9862 56.5252 11.8479 56.3754 11.7149C56.3005 11.6458 56.2202 11.6458 56.1614 11.7149C56.1025 11.7787 56.1079 11.8532 56.1828 11.9277C56.247 11.9915 56.3112 12.05 56.3807 12.1085C57.012 12.6935 57.6433 13.2785 58.2745 13.8582C58.5848 14.1454 58.8951 14.438 59.2108 14.7251C59.2322 14.7517 59.275 14.7677 59.3124 14.789Z" fill="white"/>
<path fill-rule="evenodd" clip-rule="evenodd" d="M33.7956 0.237793L38.9902 3.21613L44.1849 6.19978V12.1618V18.1291L38.9902 21.1074L33.7956 24.0911L28.6009 21.1074L23.4062 18.1291V12.1618V6.19978L28.6009 3.21613L33.7956 0.237793Z" fill="#CDDC33"/>
<path d="M38.3222 18.6503C35.4547 18.6503 32.5872 18.6503 29.7198 18.6503C29.677 18.6396 29.6342 18.6184 29.586 18.613C29.1955 18.5492 28.8584 18.379 28.5749 18.1131C28.1897 17.7461 28.0078 17.2941 28.0078 16.7622C28.0078 15.0869 28.0078 13.4169 28.0078 11.7416C28.0078 10.9864 28.0078 10.2259 28.0078 9.47065C28.0078 9.23132 28.1469 9.08773 28.3823 9.08773C29.4095 9.08773 30.4313 9.08773 31.4584 9.08773C31.4959 9.08773 31.528 9.08773 31.5654 9.09836C31.7366 9.14091 31.8383 9.27387 31.8383 9.46533C31.8383 10.3216 31.8383 11.1832 31.8383 12.0395C31.8383 12.0607 31.8383 12.0873 31.8383 12.1086C31.9292 11.9756 32.0095 11.832 32.0897 11.6938C32.0951 11.6778 32.0951 11.6618 32.0951 11.6406C32.0951 10.5769 32.0951 9.50788 32.0951 8.44419C32.0951 8.40696 32.0844 8.39101 32.0469 8.36974C31.5173 8.13041 31.2123 7.73152 31.1695 7.1465C31.1267 6.52424 31.5226 5.94985 32.1165 5.74775C32.2181 5.71052 32.3305 5.69456 32.4374 5.66797C33.6626 5.66797 34.8877 5.66797 36.1128 5.66797C36.1235 5.67329 36.1395 5.67861 36.1502 5.67861C36.8189 5.75838 37.3379 6.29554 37.3914 6.96567C37.4395 7.55601 37.0971 8.11977 36.5461 8.35378C36.4819 8.38037 36.4605 8.4176 36.4605 8.48142C36.4605 9.52384 36.4605 10.5663 36.4658 11.6033C36.4658 11.6406 36.4766 11.6884 36.498 11.7204C37.3539 13.2042 38.2152 14.6827 39.0766 16.1666C39.2103 16.4006 39.3494 16.6293 39.4617 16.8739C39.6062 17.1877 39.6436 17.5175 39.5206 17.8419C39.3708 18.2567 39.0498 18.4801 38.6325 18.5811C38.5255 18.6237 38.4239 18.6343 38.3222 18.6503ZM31.4049 17.9589C31.4424 17.9589 31.4638 17.9589 31.4905 17.9589C32.6514 17.9589 33.807 17.9589 34.9679 17.9589C36.0165 17.9589 37.065 17.9589 38.1136 17.9589C38.2955 17.9589 38.4774 17.9429 38.6432 17.8578C38.8037 17.7727 38.8893 17.6398 38.884 17.4536C38.8786 17.2675 38.7984 17.1026 38.7074 16.9431C37.7498 15.289 36.7922 13.6403 35.8292 11.9863C35.7864 11.9118 35.7597 11.832 35.7597 11.7416C35.7597 10.545 35.7597 9.34301 35.7597 8.14636C35.7597 7.93894 35.872 7.81662 36.0753 7.77939C36.3642 7.7262 36.5675 7.56665 36.6531 7.28477C36.7387 7.00822 36.6691 6.76357 36.4605 6.56147C36.3161 6.42319 36.1395 6.37 35.9362 6.37C34.8288 6.37 33.7161 6.37 32.6086 6.37C32.5444 6.37 32.4856 6.37532 32.4214 6.38596C32.0683 6.46573 31.849 6.75293 31.8543 7.10927C31.8597 7.43901 32.1111 7.71557 32.4535 7.77939C32.6782 7.82194 32.7798 7.93894 32.7798 8.16764C32.7798 9.35897 32.7798 10.545 32.7798 11.7363C32.7798 11.8267 32.7584 11.9065 32.7156 11.981C32.4749 12.4011 32.2395 12.8213 31.9988 13.2414C31.956 13.3106 31.9239 13.3903 31.8704 13.4488C31.8329 13.4914 31.8222 13.5339 31.8222 13.5924C31.8222 14.6561 31.8222 15.7145 31.8222 16.7782C31.8222 17.1345 31.7313 17.4643 31.5333 17.7674C31.5012 17.8259 31.4584 17.8844 31.4049 17.9589ZM28.7086 11.7257C28.7407 11.7257 28.7675 11.7257 28.7889 11.7257C29.0938 11.7257 29.4041 11.7257 29.709 11.7257C29.7572 11.7257 29.8053 11.731 29.8535 11.7469C30.0086 11.8001 30.1049 11.965 30.0782 12.1246C30.0514 12.2894 29.907 12.4117 29.7411 12.4171C29.4202 12.4171 29.1045 12.4171 28.7835 12.4171C28.7621 12.4171 28.7354 12.4171 28.714 12.4171C28.714 12.8 28.714 13.167 28.714 13.5446C28.7461 13.5446 28.7675 13.5446 28.7942 13.5446C29.1045 13.5446 29.4095 13.5446 29.7198 13.5446C29.9284 13.5446 30.0835 13.6882 30.0835 13.8796C30.0889 14.0871 29.9337 14.2413 29.7198 14.2413C29.4095 14.2413 29.0992 14.2413 28.7889 14.2413C28.7675 14.2413 28.7407 14.2413 28.714 14.2413C28.714 14.6189 28.714 14.9912 28.714 15.3688C28.7407 15.3688 28.7675 15.3688 28.7889 15.3688C29.0938 15.3688 29.3988 15.3688 29.7037 15.3688C29.7411 15.3688 29.7732 15.3688 29.8107 15.3741C29.9872 15.4167 30.0996 15.5709 30.0835 15.7517C30.0675 15.9219 29.9177 16.0549 29.7358 16.0602C29.4255 16.0602 29.1099 16.0602 28.7996 16.0602C28.7728 16.0602 28.7461 16.0602 28.7193 16.0602C28.7193 16.0815 28.714 16.0974 28.714 16.1134C28.714 16.358 28.7086 16.6027 28.7193 16.8473C28.7247 16.975 28.7514 17.1026 28.7942 17.2196C29.0082 17.7727 29.6502 18.0759 30.244 17.9217C30.779 17.7781 31.1428 17.3366 31.1428 16.8154C31.1428 14.4966 31.1428 12.1777 31.1428 9.8589C31.1428 9.83762 31.1428 9.81635 31.1374 9.78976C30.3296 9.78976 29.5218 9.78976 28.7193 9.78976C28.7086 10.4333 28.7086 11.0768 28.7086 11.7257Z" fill="white"/>
<path d="M35.5733 16.7357C34.8992 16.7357 34.3535 16.1933 34.3535 15.5285C34.3535 14.8583 34.8992 14.3159 35.5733 14.3105C36.2473 14.3105 36.793 14.8583 36.793 15.5285C36.7876 16.1986 36.2473 16.7357 35.5733 16.7357Z" fill="white"/>
<path d="M33.4708 14.7997C33.1444 14.7997 32.877 14.5338 32.877 14.2041C32.877 13.8796 33.1444 13.6084 33.4761 13.6084C33.8025 13.6084 34.0753 13.8796 34.0753 14.1987C34.0753 14.5338 33.8025 14.7997 33.4708 14.7997Z" fill="white"/>
<path d="M33.6035 10.9063C33.6035 10.6351 33.8229 10.417 34.0957 10.417C34.3632 10.417 34.5825 10.6404 34.5825 10.9063C34.5825 11.1776 34.3578 11.3956 34.085 11.3956C33.8229 11.3956 33.6035 11.1723 33.6035 10.9063Z" fill="white"/>
<path d="M33.4371 16.3689C33.4371 16.5763 33.2713 16.7412 33.0626 16.7359C32.854 16.7359 32.6881 16.571 32.6935 16.3582C32.6935 16.1561 32.8647 15.9912 33.068 15.9912C33.2713 15.9912 33.4371 16.1614 33.4371 16.3689Z" fill="white"/>
<path d="M34.5132 12.1245C34.7218 12.1245 34.8877 12.2894 34.8877 12.4968C34.8877 12.6989 34.7218 12.8691 34.5185 12.8691C34.3099 12.8691 34.1387 12.7043 34.1387 12.4968C34.1387 12.2894 34.3045 12.1245 34.5132 12.1245Z" fill="white"/>
<path fill-rule="evenodd" clip-rule="evenodd" d="M10.3893 0.237793L15.584 3.21613L20.7786 6.19978V12.1618V18.1291L15.584 21.1074L10.3893 24.0911L5.19466 21.1074L0 18.1291V12.1618V6.19978L5.19466 3.21613L10.3893 0.237793Z" fill="#F7DE25"/>
<path d="M14.9255 14.5867C15.2518 13.6826 15.332 12.7572 15.1448 11.8212C14.8345 10.2788 13.9946 9.09814 12.6464 8.26847C12.609 8.2472 12.5715 8.20997 12.5501 8.16742C12.3201 7.77918 11.9831 7.55048 11.5283 7.51857C11.4053 7.50794 11.2822 7.52921 11.1485 7.53453C11.0789 7.33243 10.9452 7.17288 10.7419 7.08246C10.6991 7.06119 10.6831 7.03992 10.6831 6.99205C10.6831 6.75804 10.6831 6.52403 10.6831 6.2847C10.6831 6.09856 10.5868 6.00814 10.3995 6.00283C10.3888 6.00283 10.3728 6.00283 10.3621 6.00283V5.19975H10.4905C10.5921 5.19975 10.6724 5.11997 10.6724 5.01892V4.6945C10.6724 4.59345 10.5921 4.51367 10.4905 4.51367H9.37771C9.27606 4.51367 9.19582 4.59345 9.19582 4.6945V5.02424C9.19582 5.12529 9.27606 5.20506 9.37771 5.20506H9.50611V6.00815C9.48471 6.00815 9.46331 6.00815 9.44726 6.00815C9.27071 6.00815 9.17442 6.10919 9.17442 6.27938C9.17442 6.51871 9.17442 6.75272 9.17442 6.99205C9.17442 7.02928 9.16907 7.05587 9.12627 7.07715C8.82133 7.21542 8.66619 7.45475 8.66619 7.78981C8.66619 9.12473 8.66619 10.4597 8.66619 11.7946C8.66619 12.1084 8.82668 12.3317 9.10487 12.47C9.15837 12.4966 9.17442 12.5179 9.17442 12.5764C9.17442 13.1401 9.17442 13.7092 9.17442 14.273C9.17442 14.4591 9.27071 14.5548 9.45796 14.5548C9.7736 14.5548 10.0839 14.5548 10.3995 14.5548C10.5868 14.5548 10.6884 14.4591 10.6884 14.273C10.6884 13.7039 10.6884 13.1348 10.6884 12.5657C10.6884 12.5179 10.6991 12.4913 10.7473 12.4647C10.8222 12.4275 10.8917 12.3849 10.9506 12.3317C11.1431 12.1615 11.1966 11.9435 11.1966 11.6988C11.1913 11.1564 11.1966 10.6086 11.1966 10.0661C11.1966 10.0501 11.202 10.0289 11.202 10.0289C11.3839 10.0182 11.5551 10.0182 11.7263 9.99163C11.8975 9.96504 12.0526 9.87995 12.1971 9.78422C12.2078 9.78954 12.2131 9.78954 12.2185 9.79485C12.2292 9.80017 12.2399 9.81081 12.2452 9.81613C13.1386 10.5235 13.6415 11.4382 13.7218 12.5711C13.7753 13.3582 13.5827 14.0921 13.16 14.7622C13.1386 14.7942 13.1012 14.8208 13.0691 14.8314C12.8551 14.8899 12.6464 14.9378 12.4324 14.9909C12.3308 15.0175 12.2292 15.0548 12.1275 15.0548C11.0522 15.0601 9.98224 15.0548 8.90693 15.0548C8.74108 15.0548 8.57524 15.0548 8.4094 15.0548C8.2703 15.0548 8.16331 15.1664 8.16331 15.3047C8.16331 15.4536 8.27565 15.5547 8.44684 15.5547C9.688 15.5547 10.9292 15.5547 12.1757 15.5547C12.2185 15.5547 12.2613 15.5494 12.3041 15.5387C12.395 15.5175 12.4859 15.4962 12.5983 15.4696C12.5662 15.5015 12.5555 15.5175 12.5394 15.5334C12.2078 15.8472 11.8279 16.0919 11.4106 16.2674C10.9238 16.4748 10.4102 16.5652 9.88059 16.5652C9.07277 16.5652 8.26495 16.5652 7.45713 16.5652C7.31269 16.5652 7.22174 16.6184 7.15754 16.746C7.00775 17.0545 6.84725 17.363 6.69211 17.6714C6.57976 17.8895 6.69211 18.0703 6.9382 18.0703C6.9596 18.0703 6.981 18.0703 7.0024 18.0703C8.4094 18.0703 9.81639 18.0703 11.2234 18.0703C12.1275 18.0703 13.0263 18.065 13.9304 18.0756C14.1872 18.0756 14.3049 17.8629 14.1872 17.6608C14.032 17.3789 13.8929 17.0811 13.7485 16.7939C13.7164 16.7247 13.6683 16.6662 13.6201 16.5758C13.6308 16.5652 13.6576 16.5546 13.679 16.5333C14.2353 15.9802 14.658 15.3313 14.9255 14.5867ZM11.4427 9.52361C11.0308 9.52361 10.6884 9.18324 10.6884 8.77372C10.6884 8.3642 11.0308 8.0185 11.4427 8.0185C11.86 8.0185 12.2024 8.35888 12.2024 8.77372C12.2024 9.18856 11.86 9.52361 11.4427 9.52361Z" fill="white"/>
</svg>
