<svg width="72" height="72" viewBox="0 0 72 72" fill="none" xmlns="http://www.w3.org/2000/svg">
<path d="M34.5 0.866026C35.4282 0.330128 36.5718 0.330127 37.5 0.866026L65.6769 17.134C66.6051 17.6699 67.1769 18.6603 67.1769 19.732V52.2679C67.1769 53.3397 66.6051 54.3301 65.6769 54.866L37.5 71.134C36.5718 71.6699 35.4282 71.6699 34.5 71.134L6.32309 54.866C5.39488 54.3301 4.82309 53.3397 4.82309 52.2679V19.7321C4.82309 18.6603 5.39488 17.6699 6.32309 17.134L34.5 0.866026Z" fill="#ED2226"/>
<g clip-path="url(#clip0)">
<path d="M30.1324 45.5559C30.1233 45.5109 30.1099 45.4666 30.0923 45.4237C30.0748 45.3815 30.053 45.3407 30.0277 45.3028C30.0023 45.2641 29.9728 45.2282 29.9405 45.1959C29.9081 45.1636 29.8723 45.134 29.8336 45.1087C29.7956 45.0834 29.7548 45.0616 29.712 45.044C29.6698 45.0264 29.6255 45.0124 29.5805 45.0039C29.4898 44.9857 29.3963 44.9857 29.3063 45.0039C29.2613 45.0124 29.217 45.0264 29.1741 45.044C29.1319 45.0616 29.0911 45.0834 29.0531 45.1087C29.0145 45.134 28.9786 45.1636 28.9462 45.1959C28.9139 45.2282 28.8844 45.2641 28.8591 45.3028C28.833 45.3407 28.812 45.3815 28.7944 45.4237C28.7768 45.4666 28.7627 45.5109 28.7543 45.5559C28.7452 45.6009 28.7402 45.6473 28.7402 45.693C28.7402 45.7387 28.7452 45.7851 28.7543 45.8301C28.7627 45.8751 28.7768 45.9194 28.7944 45.9616C28.812 46.0045 28.833 46.0453 28.8591 46.0832C28.8844 46.1219 28.9139 46.1578 28.9462 46.1901C28.9786 46.2225 29.0145 46.252 29.0531 46.2773C29.0911 46.3027 29.1319 46.3245 29.1741 46.3421C29.217 46.3596 29.2613 46.3737 29.3063 46.3821C29.3513 46.3913 29.3977 46.3962 29.4434 46.3962C29.4891 46.3962 29.5355 46.3913 29.5805 46.3821C29.6255 46.3737 29.6698 46.3596 29.712 46.3421C29.7548 46.3245 29.7956 46.3026 29.8336 46.2773C29.8723 46.252 29.9081 46.2225 29.9405 46.1901C29.9728 46.1578 30.0023 46.1219 30.0277 46.0832C30.053 46.0453 30.0748 46.0045 30.0923 45.9616C30.1099 45.9194 30.1233 45.8751 30.1324 45.8301C30.1416 45.7851 30.1465 45.7387 30.1465 45.693C30.1465 45.6473 30.1416 45.6009 30.1324 45.5559Z" fill="white"/>
<path d="M50.3433 45.7723C50.3405 45.7653 50.3377 45.7583 50.3348 45.7514C49.6876 44.2371 48.1698 43.6774 46.3736 44.2909L41.4751 45.6455C41.1919 44.7878 40.4854 44.058 39.4866 43.6873C39.4804 43.6851 39.4742 43.6828 39.468 43.6807L34.0834 41.8531C33.6352 41.2738 32.2313 39.7915 29.6028 39.7915C27.7659 39.7915 26.1409 41.0516 25.2112 42.4252H18.7031C18.3148 42.4252 18 42.74 18 43.1283V51.9931C18 52.3815 18.3148 52.6962 18.7031 52.6962H22.8837C23.272 52.6962 23.5868 52.3815 23.5868 51.9931V51.386H25.5473C25.9357 51.386 26.2505 51.0712 26.2505 50.6829V50.4806C27.3933 50.5803 27.7692 50.797 28.8188 51.4023C29.626 51.8677 30.846 52.5712 33.043 53.559C33.0532 53.5636 33.0635 53.568 33.0739 53.5721C33.4955 53.7379 34.3198 53.9985 35.336 53.9985C36.0434 53.9985 36.8439 53.8721 37.6656 53.4997L48.4931 49.623C48.5123 49.6161 48.5313 49.6083 48.5499 49.5997C49.5847 49.1237 51.1267 47.7819 50.3433 45.7723ZM22.1806 51.2899H19.4062V43.8314H22.1806V51.2899ZM24.8442 49.9797H23.5868V43.8314H24.8442V49.9797ZM47.988 48.31L37.1654 52.185C37.1559 52.1884 37.143 52.1934 37.1336 52.1972C37.1242 52.2011 37.1147 52.2052 37.1053 52.2095C35.598 52.9022 34.1653 52.4875 33.6038 52.2692C31.4816 51.3142 30.3489 50.6611 29.5213 50.1839C28.3707 49.5204 27.8163 49.2007 26.2505 49.0713V43.4082C26.917 42.3159 28.2094 41.1977 29.6029 41.1977C31.9925 41.1977 33.0051 42.7519 33.0449 42.8147C33.1308 42.9543 33.2627 43.0596 33.4179 43.1122L39.006 45.0088C39.8985 45.3438 40.3701 46.1081 40.1534 46.8703C40.0533 47.2223 39.8221 47.5142 39.5025 47.6923C39.1856 47.8689 38.8193 47.9125 38.4701 47.8159L32.1706 45.8196C31.8002 45.7023 31.4051 45.9073 31.2879 46.2775C31.1705 46.6477 31.3755 47.0428 31.7457 47.1602L38.0562 49.1599C38.0629 49.1621 38.0696 49.1641 38.0763 49.166C38.3283 49.2376 38.5848 49.2731 38.8397 49.2731C39.3064 49.2731 39.768 49.1542 40.187 48.9207C40.8348 48.5598 41.3032 47.9682 41.506 47.2549C41.5221 47.1979 41.5365 47.141 41.5489 47.084L46.8282 45.6215C47.5907 45.3611 48.5916 45.2672 49.0372 46.2936C49.4985 47.4985 48.2996 48.1614 47.988 48.31Z" fill="white"/>
<path d="M43.2464 27.2493C43.2373 27.2043 43.2239 27.16 43.2056 27.1171C43.188 27.0749 43.167 27.0341 43.1409 26.9961C43.1156 26.9575 43.0861 26.9216 43.0538 26.8893C43.0214 26.8569 42.9855 26.8274 42.9469 26.8021C42.9089 26.7768 42.8681 26.755 42.8259 26.7374C42.783 26.7198 42.7387 26.7057 42.6945 26.6973C42.6037 26.679 42.5102 26.679 42.4195 26.6973C42.3745 26.7057 42.3302 26.7198 42.288 26.7374C42.2452 26.755 42.2044 26.7768 42.1664 26.8021C42.1277 26.8274 42.0919 26.8569 42.0595 26.8893C42.0272 26.9216 41.9977 26.9575 41.9723 26.9961C41.947 27.0341 41.9252 27.0749 41.9077 27.1171C41.8901 27.16 41.876 27.2043 41.8676 27.2493C41.8584 27.2943 41.8535 27.3407 41.8535 27.3864C41.8535 27.4321 41.8584 27.4785 41.8676 27.5235C41.876 27.5685 41.8901 27.6128 41.9077 27.655C41.9252 27.6979 41.947 27.7386 41.9723 27.7766C41.9977 27.8153 42.0272 27.8511 42.0595 27.8835C42.0919 27.9158 42.1277 27.9454 42.1664 27.9707C42.2044 27.996 42.2452 28.0178 42.288 28.0354C42.3302 28.0529 42.3745 28.0663 42.4195 28.0754C42.4645 28.0846 42.5109 28.0895 42.5566 28.0895C42.6023 28.0895 42.6487 28.0846 42.6945 28.0754C42.7387 28.0663 42.783 28.0529 42.8259 28.0354C42.8681 28.0178 42.9089 27.996 42.9469 27.9707C42.9855 27.9454 43.0214 27.9158 43.0538 27.8835C43.0861 27.8511 43.1156 27.8153 43.1409 27.7766C43.167 27.7386 43.188 27.6979 43.2056 27.655C43.2239 27.6128 43.2373 27.5685 43.2464 27.5235C43.2555 27.4785 43.2598 27.4321 43.2598 27.3864C43.2598 27.3407 43.2555 27.2943 43.2464 27.2493Z" fill="white"/>
<path d="M53.2971 20.3828H49.1166C48.7282 20.3828 48.4134 20.6976 48.4134 21.0859V21.693H46.4529C46.0646 21.693 45.7498 22.0078 45.7498 22.3961V22.5985C44.6069 22.4987 44.231 22.282 43.1815 21.6768C42.3743 21.2113 41.1543 20.5078 38.9573 19.52C38.9471 19.5153 38.9368 19.5111 38.9263 19.507C38.2112 19.2256 36.3368 18.6719 34.335 19.5792L31.5056 20.5923L29.1207 18.2074C28.8461 17.9328 28.4009 17.9328 28.1263 18.2074L20.2965 26.0372C20.0432 26.2905 19.9946 26.7298 20.2965 27.0316L33.676 40.4112C33.8901 40.6253 34.3914 40.6901 34.6704 40.4112L41.8188 33.2629C42.0046 33.2789 42.1975 33.2876 42.3974 33.2876C44.2343 33.2876 45.8593 32.0275 46.7889 30.654H53.2971C53.6855 30.654 54.0003 30.3392 54.0003 29.9508V21.0859C54.0003 20.6976 53.6855 20.3828 53.2971 20.3828ZM28.6234 19.6989L30.226 21.3015C29.7496 21.5961 29.1989 21.7537 28.6234 21.7537C28.0479 21.7537 27.4972 21.5962 27.0209 21.3015L28.6234 19.6989ZM23.3906 28.137L21.7881 26.5344L23.3906 24.9318C23.6852 25.4082 23.8429 25.9589 23.8429 26.5344C23.8429 27.1098 23.6853 27.6606 23.3906 28.137ZM34.1733 38.9196L32.571 37.3173C33.5492 36.7136 34.7971 36.7136 35.7755 37.3173L34.1733 38.9196ZM36.7885 36.3044C35.2348 35.1772 33.1118 35.1772 31.558 36.3044L24.4036 29.1499C24.9527 28.3948 25.2491 27.4877 25.2491 26.5344C25.2491 25.581 24.9528 24.674 24.4036 23.9188L26.0079 22.3146C26.7631 22.8636 27.6701 23.1601 28.6235 23.1601C29.5769 23.1601 30.4839 22.8636 31.239 22.3146L32.7598 23.8353C32.4317 23.8838 32.1117 23.9919 31.8133 24.1582C31.3093 24.439 30.9139 24.8596 30.6676 25.3684C29.8745 25.5153 29.1402 25.8992 28.5642 26.4752C27.0015 28.0379 27.0015 30.5806 28.5643 32.1434C29.3456 32.9247 30.372 33.3154 31.3984 33.3154C32.4247 33.3154 33.4512 32.9248 34.2325 32.1434C34.7409 31.635 35.097 31.0102 35.2754 30.3293L37.6494 31.135C37.3822 32.3731 37.6559 33.6756 38.3943 34.6986L36.7885 36.3044ZM32.5137 29.3917C32.5199 29.394 32.526 29.3962 32.5323 29.3983L33.9383 29.8755C33.8321 30.3547 33.5918 30.7953 33.2382 31.149C32.2237 32.1634 30.573 32.1635 29.5587 31.149C28.5443 30.1346 28.5443 28.4841 29.5587 27.4696C29.8034 27.2248 30.0922 27.0334 30.4068 26.9037C30.5366 27.9839 31.3144 28.9466 32.5137 29.3917ZM39.4074 33.6854C39.136 33.2432 38.9824 32.7384 38.9582 32.2232C39.295 32.4667 39.7066 32.7053 40.1982 32.8946L39.4074 33.6854ZM45.7497 29.6705C45.0833 30.763 43.7908 31.8812 42.3974 31.8812C42.1366 31.8812 41.8923 31.8626 41.6639 31.8296C41.6629 31.8295 41.662 31.8293 41.6611 31.8292C40.1427 31.6086 39.3258 30.7456 39.0566 30.4039C39.0423 30.3828 38.9812 30.3028 38.9721 30.2895C38.8902 30.1432 38.7559 30.0254 38.5846 29.9673L32.9942 28.0699C32.1021 27.7351 31.6305 26.9711 31.8466 26.2092C31.8468 26.2087 31.8469 26.2083 31.847 26.2078C31.8473 26.2072 31.8474 26.2066 31.8475 26.206C31.948 25.8551 32.1788 25.5641 32.4977 25.3864C32.8145 25.2099 33.1808 25.1661 33.5301 25.2629L39.8296 27.2591C40.1999 27.3766 40.595 27.1715 40.7123 26.8013C40.8296 26.4311 40.6246 26.0359 40.2544 25.9186L35.2443 24.3309L35.2006 24.2872C35.2002 24.2868 35.1998 24.2863 35.1993 24.2858L32.6054 21.692L34.8349 20.8937C34.8424 20.8909 34.8517 20.8875 34.8592 20.8845C34.8611 20.8837 34.8647 20.8823 34.8665 20.8815C34.8761 20.8777 34.8855 20.8736 34.8949 20.8693C36.4021 20.1766 37.8348 20.5912 38.3964 20.8096C40.5186 21.7645 41.6513 22.4176 42.4789 22.8948C43.6295 23.5584 44.1839 23.8781 45.7497 24.0074V29.6705ZM48.4134 29.2476H47.156V23.0992H48.4134V29.2476ZM52.594 29.2476H49.8197V21.789H52.594V29.2476Z" fill="white"/>
</g>
<defs>
<clipPath id="clip0">
<rect width="36" height="36" fill="white" transform="translate(18 18)"/>
</clipPath>
</defs>
</svg>
