<svg width="95" height="95" viewBox="0 0 95 95" fill="none" xmlns="http://www.w3.org/2000/svg">
<path d="M46 0.866027C46.9282 0.330128 48.0718 0.330127 49 0.866025L87.1362 22.884C88.0644 23.4199 88.6362 24.4103 88.6362 25.482V69.5179C88.6362 70.5897 88.0644 71.5801 87.1362 72.116L49 94.134C48.0718 94.6699 46.9282 94.6699 46 94.134L7.86379 72.116C6.93559 71.5801 6.36379 70.5897 6.36379 69.518V25.4821C6.36379 24.4103 6.93559 23.4199 7.86379 22.884L46 0.866027Z" fill="#4365AF"/>
<path d="M47.2173 51.5391H47.5001C50.5071 51.545 53.3948 50.3632 55.5348 48.2507C57.6748 46.1383 58.894 43.2662 58.9271 40.2593C58.9602 37.2525 57.8045 34.3542 55.7115 32.1952C53.6185 30.0362 50.7575 28.7911 47.7511 28.7308C44.7447 28.6705 41.8361 29.8 39.6582 31.8734C37.4804 33.9469 36.2094 36.7965 36.122 39.8022C36.0346 42.808 37.1377 45.7266 39.1914 47.9231C41.245 50.1196 44.0831 51.4162 47.0879 51.5308C47.0948 51.5316 47.1017 51.5329 47.1086 51.5336C47.1448 51.5372 47.1811 51.5391 47.2173 51.5391ZM38.3204 40.1563C38.3204 38.3407 38.8587 36.5659 39.8674 35.0563C40.8761 33.5467 42.3098 32.3701 43.9871 31.6754C45.6645 30.9806 47.5102 30.7988 49.2909 31.153C51.0716 31.5072 52.7073 32.3815 53.9911 33.6653C55.2749 34.9491 56.1492 36.5847 56.5034 38.3654C56.8576 40.1461 56.6758 41.9918 55.981 43.6692C55.2862 45.3466 54.1096 46.7802 52.6 47.7889C51.0904 48.7976 49.3156 49.336 47.5001 49.336C45.0663 49.3332 42.733 48.3652 41.0121 46.6443C39.2911 44.9233 38.3231 42.59 38.3204 40.1563Z" fill="white"/>
<path d="M65.0741 59.5837L57.6936 52.2032C59.4469 50.7235 60.856 48.8788 61.8225 46.798C62.789 44.7172 63.2895 42.4505 63.2891 40.1563C63.2891 31.4501 56.2061 24.3672 47.5 24.3672C38.7939 24.3672 31.7109 31.4501 31.7109 40.1563C31.7109 46.926 35.9939 52.7135 41.9922 54.9539V69.5313C41.9646 70.384 43.0106 70.9435 43.7048 70.4478L47.5 67.9176L51.2952 70.4478C51.9905 70.9435 53.0347 70.3835 53.0078 69.5313V63.0955L57.2855 67.3727C57.8726 67.9959 59.0033 67.6503 59.1447 66.8097L60.0388 62.337L64.5116 61.4428C65.3527 61.3022 65.6962 60.1674 65.0741 59.5837ZM33.9141 40.1563C33.9141 32.665 40.0087 26.5703 47.5 26.5703C54.9913 26.5703 61.0859 32.665 61.0859 40.1563C61.0859 47.6475 54.9913 53.7422 47.5 53.7422C40.0087 53.7422 33.9141 47.6475 33.9141 40.1563ZM48.111 65.6773C47.9301 65.5566 47.7175 65.4923 47.5 65.4923C47.2825 65.4923 47.0699 65.5566 46.889 65.6773L44.1953 67.473V55.5965C46.3739 56.0618 48.6261 56.0618 50.8047 55.5965V67.4732L48.111 65.6773ZM58.8862 60.3206C58.6729 60.3633 58.477 60.4681 58.3232 60.6219C58.1694 60.7757 58.0646 60.9716 58.0219 61.1849L57.3874 64.3592L53.0078 59.9797V54.9539C54.0171 54.5767 54.9851 54.0968 55.8964 53.5219L62.0606 59.6862L58.8862 60.3206Z" fill="white"/>
<path d="M50.4026 45.7546C51.169 46.1855 52.1697 45.4597 51.9968 44.5963L51.4606 41.3701L53.7908 39.0752C54.4379 38.4785 54.0561 37.3035 53.1818 37.2011L49.9478 36.7141L48.4852 33.7888C48.1172 32.9889 46.8827 32.9891 46.5147 33.7888L45.0521 36.714L41.8181 37.201C40.9436 37.3038 40.5622 38.478 41.2091 39.0751L43.5393 41.37L43.0031 44.5962C42.8306 45.4596 43.8293 46.1852 44.5973 45.7545L47.4999 44.2477L50.4026 45.7546ZM45.5373 42.7841L45.8061 41.1671C45.8351 40.9929 45.8217 40.8142 45.7671 40.6462C45.7125 40.4782 45.6183 40.3257 45.4924 40.2018L44.3247 39.0515L45.9456 38.8073C46.1203 38.781 46.2862 38.7131 46.4291 38.6092C46.5721 38.5054 46.6879 38.3687 46.7669 38.2106L47.4999 36.7445L48.2329 38.2107C48.3119 38.3687 48.4278 38.5055 48.5708 38.6093C48.7137 38.7132 48.8795 38.7811 49.0542 38.8074L50.6752 39.0516L49.5073 40.2022C49.3814 40.3262 49.2872 40.4786 49.2326 40.6466C49.178 40.8146 49.1646 40.9933 49.1936 41.1676L49.4624 42.7846L48.0075 42.029C47.8507 41.9476 47.6766 41.9051 47.4999 41.9051C47.3233 41.9051 47.1492 41.9476 46.9924 42.029L45.5373 42.7841Z" fill="white"/>
</svg>
