<svg width="95" height="95" viewBox="0 0 95 95" fill="none" xmlns="http://www.w3.org/2000/svg">
<path d="M46 0.866027C46.9282 0.330128 48.0718 0.330127 49 0.866025L87.1362 22.884C88.0644 23.4199 88.6362 24.4103 88.6362 25.482V69.5179C88.6362 70.5897 88.0644 71.5801 87.1362 72.116L49 94.134C48.0718 94.6699 46.9282 94.6699 46 94.134L7.86379 72.116C6.93559 71.5801 6.36379 70.5897 6.36379 69.518V25.4821C6.36379 24.4103 6.93559 23.4199 7.86379 22.884L46 0.866027Z" fill="#4365AF"/>
<g clip-path="url(#clip0)">
<path fill-rule="evenodd" clip-rule="evenodd" d="M66.8428 54.9182L66.8209 54.8803C64.9941 51.7168 60.9907 50.5911 57.7065 52.3176L52.1945 55.2152C52.0127 54.1052 51.3335 53.1475 50.2661 52.5313L45.5993 49.8369C44.9369 49.3713 44.1612 49.1255 43.3517 49.1255H36.8409V47.8935C36.8409 47.2625 36.3294 46.751 35.6984 46.751H29.1464C28.5155 46.751 28.0039 47.2625 28.0039 47.8935V63.803C28.0039 64.434 28.5155 64.9455 29.1464 64.9455H35.6985C36.3295 64.9455 36.841 64.434 36.841 63.803V61.5257H38.2894L46.796 66.4469C47.4332 66.8155 48.0967 67.0001 48.7407 67.0001C49.3584 67.0001 49.9582 66.8302 50.4994 66.4901L66.4617 56.4574C66.982 56.1303 67.1504 55.4503 66.8428 54.9182ZM34.556 62.6604H30.289V49.036H34.556V62.6604ZM49.2835 64.5554C48.8105 64.8527 48.2919 64.6724 47.9403 64.469L39.1683 59.3942C38.9944 59.2936 38.797 59.2407 38.5961 59.2407H36.841V51.4106H43.3518C43.6968 51.4106 44.0276 51.5185 44.3084 51.7228C44.3408 51.7464 44.3744 51.7683 44.4092 51.7883L49.1237 54.5102C49.679 54.8308 49.9605 55.2724 49.9605 55.8227C49.9605 56.4477 49.5825 57.1025 49.0412 57.4151C48.5646 57.6903 48.0414 57.6671 47.486 57.3466L43.1426 54.8388C42.9689 54.7386 42.7718 54.6857 42.5713 54.6857H40.6478C40.0168 54.6857 39.5053 55.1973 39.5053 55.8282C39.5053 56.4592 40.0168 56.9708 40.6478 56.9708H42.2651L46.3435 59.3254C46.9934 59.7006 47.681 59.8887 48.3571 59.8887C48.9897 59.8887 49.6121 59.724 50.1837 59.394C50.7144 59.0876 51.1651 58.6591 51.5088 58.1572L58.7698 54.3401C60.6357 53.3592 62.8438 53.7471 64.2076 55.1752L49.2835 64.5554Z" fill="white"/>
<path fill-rule="evenodd" clip-rule="evenodd" d="M45.331 40.7309C45.4581 40.8513 45.6482 41.0314 45.6945 41.1163C45.7289 41.2754 45.6601 41.6038 45.5993 41.8945C45.4683 42.5192 45.2892 43.3747 45.7352 44.1975C46.1859 45.0293 47.0365 45.2328 47.5993 45.3674C47.7695 45.4082 48.0243 45.4691 48.1069 45.5194C48.2163 45.64 48.3209 45.9588 48.4134 46.241C48.6124 46.8474 48.8849 47.6779 49.6827 48.1675C50.4889 48.6623 51.3272 48.4133 51.882 48.2486C52.0497 48.1988 52.3032 48.124 52.3975 48.1264C52.5525 48.1761 52.8025 48.3999 53.0238 48.598C53.4994 49.0237 54.1508 49.6067 55.0863 49.6318C55.1048 49.6322 55.123 49.6325 55.1413 49.6325C56.0554 49.6325 56.6413 49.0142 57.0315 48.6024C57.1519 48.4753 57.3321 48.2851 57.4169 48.2388C57.5761 48.2045 57.9044 48.2732 58.1952 48.3341C58.8198 48.4649 59.6755 48.6441 60.4981 48.1982C61.3299 47.7473 61.5334 46.8968 61.6681 46.334C61.7088 46.1638 61.7698 45.9091 61.82 45.8265C61.9407 45.7171 62.2595 45.6125 62.5417 45.5199C63.148 45.3209 63.9785 45.0484 64.4682 44.2507C64.9631 43.4444 64.7141 42.606 64.5492 42.0513C64.4994 41.8835 64.4248 41.6324 64.4271 41.5357C64.4768 41.3807 64.7006 41.1307 64.8986 40.9094C65.3243 40.4338 65.9072 39.7825 65.9324 38.8469C65.9578 37.9012 65.323 37.2997 64.903 36.9017C64.7759 36.7812 64.5858 36.6011 64.5395 36.5162C64.5051 36.3571 64.5738 36.0286 64.6347 35.738C64.7655 35.1133 64.9447 34.2578 64.4987 33.4349C64.0479 32.6033 63.1975 32.3997 62.6347 32.2651C62.4644 32.2243 62.2097 32.1634 62.1272 32.113C62.0177 31.9925 61.9131 31.6736 61.8206 31.3915C61.6216 30.7851 61.3489 29.9546 60.5513 29.4651C59.7451 28.9701 58.9066 29.2191 58.352 29.3839C58.1842 29.4337 57.9328 29.5102 57.8364 29.5061C57.6814 29.4563 57.4314 29.2326 57.21 29.0346C56.7345 28.6088 56.0832 28.0259 55.1476 28.0007C55.1476 28.0007 55.1476 28.0007 55.1476 28.0007C54.2017 27.9757 53.6004 28.6101 53.2024 29.0301C53.082 29.1572 52.9018 29.3474 52.817 29.3937C52.6578 29.428 52.3293 29.3593 52.0388 29.2984C51.414 29.1675 50.5585 28.9884 49.7357 29.4344C48.904 29.8852 48.7005 30.7357 48.5659 31.2985C48.5251 31.4687 48.4641 31.7235 48.4138 31.8061C48.2933 31.9155 47.9744 32.0201 47.6922 32.1127C47.0859 32.3117 46.2553 32.5843 45.7658 33.3819C45.2709 34.1882 45.5198 35.0265 45.6847 35.5813C45.7345 35.7491 45.8091 36.0002 45.8069 36.0969C45.7571 36.2519 45.5333 36.5018 45.3354 36.723C44.9096 37.1986 44.3267 37.8499 44.3015 38.7855C44.2761 39.7314 44.9109 40.3329 45.331 40.7309ZM47.0379 38.2472C47.3933 37.8502 47.8356 37.3561 48.0178 36.6758C48.196 36.0108 48.0106 35.3866 47.8753 34.9309C47.8394 34.8102 47.7896 34.6426 47.7687 34.5323C47.904 34.4483 48.2211 34.3443 48.405 34.2839C48.9112 34.1177 49.5412 33.911 50.0392 33.413C50.5261 32.9261 50.6776 32.2928 50.7883 31.8304C50.8176 31.708 50.8582 31.538 50.8952 31.432C51.0557 31.4275 51.381 31.4955 51.5705 31.5352C52.0919 31.6444 52.7408 31.7804 53.4211 31.5981C54.0862 31.4199 54.5341 30.9472 54.8612 30.6021C54.9478 30.5107 55.068 30.3839 55.153 30.3105C55.2934 30.3858 55.542 30.6083 55.6862 30.7374C56.0832 31.0928 56.5772 31.535 57.2576 31.7173C57.9224 31.8956 58.5469 31.7101 59.0026 31.5747C59.1233 31.5388 59.2908 31.4891 59.4011 31.4681C59.4851 31.6035 59.5892 31.9205 59.6496 32.1044C59.8157 32.6106 60.0225 33.2406 60.5205 33.7386C61.0073 34.2256 61.6406 34.3771 62.1029 34.4877C62.2254 34.517 62.3953 34.5577 62.5013 34.5946C62.5062 34.7538 62.4379 35.0803 62.3982 35.2698C62.2889 35.7913 62.1531 36.4403 62.3353 37.1205C62.5136 37.7857 62.9862 38.2335 63.3313 38.5606C63.4227 38.6472 63.5495 38.7674 63.6229 38.8524C63.5476 38.9928 63.3251 39.2414 63.196 39.3856C62.8407 39.7826 62.3985 40.2767 62.2163 40.9569C62.038 41.622 62.2234 42.2463 62.3588 42.7021C62.3947 42.8228 62.4444 42.9903 62.4653 43.1006C62.33 43.1846 62.013 43.2886 61.829 43.349C61.3228 43.5151 60.6928 43.7219 60.1948 44.2199C59.7079 44.7068 59.5564 45.34 59.4458 45.8024C59.4165 45.9248 59.3758 46.0948 59.3389 46.2008C59.1786 46.2067 58.8531 46.1373 58.6636 46.0977C58.1421 45.9885 57.4934 45.8526 56.8129 46.0348C56.1478 46.213 55.6999 46.6857 55.3729 47.0309C55.2863 47.1223 55.1661 47.2491 55.0811 47.3224C54.9407 47.2472 54.6922 47.0246 54.5478 46.8956C54.1508 46.5402 53.6568 46.098 52.9765 45.9158C52.7807 45.8633 52.5885 45.8423 52.4031 45.8423C51.9586 45.8423 51.5531 45.9628 51.2315 46.0583C51.1107 46.0942 50.9432 46.1439 50.8329 46.1648C50.749 46.0294 50.645 45.7125 50.5846 45.5285C50.4184 45.0223 50.2116 44.3923 49.7137 43.8943C49.2267 43.4074 48.5934 43.2559 48.1311 43.1452C48.0087 43.1159 47.8387 43.0753 47.7327 43.0383C47.7278 42.8791 47.7961 42.5525 47.8359 42.363C47.9451 41.8415 48.0811 41.1926 47.8988 40.5123C47.7206 39.8472 47.2479 39.3993 46.9027 39.0722C46.8113 38.9856 46.6845 38.8655 46.6112 38.7804C46.6863 38.64 46.9089 38.3914 47.0379 38.2472Z" fill="white"/>
<path fill-rule="evenodd" clip-rule="evenodd" d="M52.7941 42.84C52.974 42.9439 53.1705 42.9932 53.3643 42.9932C53.7592 42.9932 54.1432 42.7883 54.3548 42.4218L57.8585 36.3532C58.1741 35.8068 57.9868 35.108 57.4404 34.7925C56.8939 34.4769 56.1952 34.6642 55.8797 35.2107L52.3759 41.2793C52.0604 41.8257 52.2477 42.5245 52.7941 42.84Z" fill="white"/>
<path fill-rule="evenodd" clip-rule="evenodd" d="M51.7941 36.9491C52.3405 37.2646 53.0393 37.0773 53.3548 36.5308C53.6703 35.9844 53.4831 35.2856 52.9366 34.9702C52.3902 34.6547 51.6914 34.8419 51.3759 35.3883C51.0604 35.9348 51.2477 36.6336 51.7941 36.9491Z" fill="white"/>
<path fill-rule="evenodd" clip-rule="evenodd" d="M57.1083 40.6828C56.7928 41.2292 56.9801 41.928 57.5265 42.2435C58.0729 42.559 58.7717 42.3718 59.0872 41.8253C59.4027 41.2789 59.2154 40.5801 58.669 40.2646C58.1226 39.9491 57.4238 40.1363 57.1083 40.6828Z" fill="white"/>
</g>
<defs>
<clipPath id="clip0">
<rect width="39" height="39" fill="white" transform="translate(28 28)"/>
</clipPath>
</defs>
</svg>
