<svg width="36" height="32" fill="none" xmlns="http://www.w3.org/2000/svg"><path d="M34.876 31.438H1.124a1.124 1.124 0 01-.974-1.686L17.026.522c.402-.696 1.546-.696 1.948 0l16.876 29.23a1.124 1.124 0 01-.974 1.686zM3.071 29.19H32.93L18 3.333 3.071 29.19z" fill="red"/><path d="M18 26.941a1.116 1.116 0 01-1.125-1.124c0-.292.124-.585.326-.798a1.3 1.3 0 01.37-.236c.417-.18.911-.08 1.226.236.203.213.326.506.326.798A1.114 1.114 0 0118 26.941zm0-4.496a1.124 1.124 0 01-1.125-1.125V8.954a1.124 1.124 0 112.248 0V21.32c0 .622-.503 1.125-1.124 1.125z" fill="red"/></svg>