<svg width="62" height="62" fill="none" xmlns="http://www.w3.org/2000/svg"><g clip-path="url(#clip0)"><path fill-rule="evenodd" clip-rule="evenodd" d="M61.29 2.375a1.937 1.937 0 01.71 1.5V54.25a1.938 1.938 0 01-1.558 1.899l-19.375 3.875c-.25.05-.508.05-.76 0l-18.995-3.798-18.995 3.798A1.938 1.938 0 010 58.124V7.75a1.937 1.937 0 011.558-1.9l19.375-3.875c.25-.05.509-.05.76 0l18.994 3.798 18.996-3.798a1.937 1.937 0 011.608.4zM38.75 9.34l-15.5-3.1v46.42l15.5 3.1V9.34zm3.875 46.422l15.5-3.1V6.24l-15.5 3.1v46.42zm-23.25-3.1V6.24l-15.5 3.1v46.42l15.5-3.1z" fill="#4365AF"/></g><defs><clipPath id="clip0"><path fill="#fff" d="M0 0h62v62H0z"/></clipPath></defs></svg>