<svg width="81" height="81" fill="none" xmlns="http://www.w3.org/2000/svg"><path d="M37.125 66.825V44.18L13.5 30.966V53.7l23.625 13.122v.003zm6.75 0L67.5 53.703V31.047L43.875 44.165v22.66zm11.813-46.089l-23.403 13 8.205 4.59 23.432-13.013-8.234-4.577zm-6.953-3.86L40.5 12.298 17.145 25.276l8.211 4.59 23.382-12.99h-.003zM38.86 5.487a3.375 3.375 0 013.28 0l28.634 15.91a6.75 6.75 0 013.476 5.9v26.405a6.75 6.75 0 01-3.473 5.9L42.14 75.513a3.375 3.375 0 01-3.28 0l-28.634-15.91a6.75 6.75 0 01-3.476-5.9V27.297a6.75 6.75 0 013.473-5.9L38.86 5.488z" fill="#ED2226"/></svg>