<svg width="77" height="34" fill="none" xmlns="http://www.w3.org/2000/svg"><path fill-rule="evenodd" clip-rule="evenodd" d="M7.307 24.544c-3.314 0-4.822.913-5.417 2.825L0 33.444h64.404c3.314 0 4.822-.913 5.416-2.825l1.89-6.075H7.308zm7.753-8.475h-3.186c-4.97 0-1.36-10.557 2.825-10.557h5.034c.807 0 2.23.148 2.932-1.848L23.748.562h-6.904c-3.738 0-6.648 1.317-8.751 3.527-3.632 3.78-4.864 9.686-3.993 12.51.828 2.613 3.08 4.334 6.606 4.377l2.74.02h3.377l.829-2.484c.616-1.764-.765-2.443-2.592-2.443zm38.787-4.376l1.04-3.377H43.78c-1.849 0-2.677.51-2.996 1.571l-1.04 3.378h11.109c1.848 0 2.676-.51 2.995-1.572zm-15.761 5.948l-1.041 3.377h11.11c1.826 0 2.676-.51 2.994-1.572l1.041-3.377H41.08c-1.826 0-2.654.51-2.994 1.572zM56.438 3.96L57.48.584H46.37c-1.847 0-2.675.51-2.994 1.572l-1.04 3.377h11.108c1.827 0 2.656-.51 2.995-1.572zm-16.78.68C39.19 1.497 37.512.584 33.434.584h-7.435l-4.333 12.68h2.74c1.636 0 2.464.022 3.335-2.314l1.806-5.438h2.761c2.358 0 1.827 2.952.637 5.82-1.062 2.528-2.91 4.758-5.14 4.758h-4.61c-1.847 0-2.697.51-3.037 1.572l-1.147 3.377h3.377l3.314-.021c2.931-.021 5.332-.234 8.135-2.761 2.974-2.698 6.415-9.623 5.82-13.616zM77 .562h-6.436L64.51 7c-.7.743-1.423 1.487-2.124 2.357h-.064L65.338.563h-5.246l-7.073 20.455h5.246l2.252-6.436 2.336-1.976 1.848 5.82c.574 1.806 1.169 2.592 2.443 2.592h4.015L67.038 9.59 77 .563z" fill="#00B33C"/><path d="M7.009 29.6v1.678h-.935v-4.652h1.848c.531 0 .956.127 1.253.403.298.276.468.638.468 1.084 0 .446-.149.807-.468 1.083-.297.276-.722.403-1.253.403H7.01zm0-.723h.913c.255 0 .446-.063.595-.212a.777.777 0 00.191-.531.794.794 0 00-.191-.552c-.127-.15-.34-.213-.595-.213H7.01v1.508zm5.289 1.402h-1.636l-.318.999h-.935l1.593-4.652h.956l1.593 4.652h-.934l-.32-.999zm-1.402-.743h1.168l-.573-1.827h-.021l-.574 1.827zm6.075-2.188h-2.06v.913h.807c.53 0 .956.149 1.274.425.319.276.468.637.468 1.084 0 .445-.15.807-.468 1.083-.318.276-.743.425-1.274.425h-1.784v-4.652h3.037v.722zm-2.06 1.636v1.571h.807c.255 0 .467-.085.595-.233a.863.863 0 00.212-.574.752.752 0 00-.212-.552.8.8 0 00-.595-.234h-.807v.021zm6.924.382c0 .573-.17 1.04-.53 1.423-.362.382-.83.552-1.403.552-.573 0-1.04-.19-1.402-.552-.36-.361-.53-.85-.53-1.423v-.828c0-.574.17-1.041.53-1.424.361-.382.829-.552 1.402-.552.574 0 1.041.191 1.402.552.361.361.553.85.553 1.424v.828h-.022zm-.934-.828c0-.362-.085-.659-.276-.893-.192-.233-.425-.34-.744-.34s-.573.107-.743.34c-.17.234-.255.531-.255.893v.85c0 .36.085.679.255.891.17.234.424.34.743.34s.574-.106.744-.34c.17-.233.276-.53.276-.892v-.85zm4.758-1.19h-1.317v3.93h-.935v-3.93H22.09v-.722h3.547v.722h.022zm2.697 2.931h-1.635l-.319.999h-.934l1.593-4.652h.956l1.593 4.652h-.935l-.319-.999zm-1.402-.743h1.169l-.574-1.827h-.021l-.573 1.827zm5.97-.298H30.99v1.317h2.252v.723h-3.186v-4.652h3.186v.722H30.99v1.168h1.933v.722zm2.102-2.612l1.19 3.42h.021l1.19-3.42h1.21v4.652h-.934v-1.381l.085-2.06h-.022l-1.253 3.44h-.616l-1.232-3.42h-.021l.085 2.04v1.38h-.935v-4.651h1.232zm6.118 4.652v-4.652h1.572c.552 0 .977.106 1.274.318.297.213.467.531.467.956 0 .213-.063.404-.17.574a.993.993 0 01-.488.382c.276.064.489.191.637.382.149.192.213.425.213.68 0 .446-.15.786-.447 1.02-.297.233-.7.34-1.253.34h-1.805zm.934-2.698h.68c.255 0 .446-.042.574-.149a.549.549 0 00.19-.446c0-.212-.063-.382-.212-.467-.127-.106-.34-.149-.594-.149h-.638v1.21zm0 .637v1.338h.85a.921.921 0 00.574-.17c.148-.106.19-.276.19-.467 0-.233-.063-.403-.17-.53-.105-.128-.275-.17-.53-.17h-.914zm6.776.468c.022.51-.127.913-.446 1.21-.318.298-.743.446-1.317.446-.552 0-1.02-.17-1.36-.53a1.961 1.961 0 01-.53-1.381v-.914c0-.573.17-1.02.51-1.38.34-.362.786-.553 1.338-.553.573 0 1.02.149 1.338.446.319.298.489.701.467 1.211v.021h-.913c0-.297-.064-.53-.212-.7-.15-.17-.383-.234-.68-.234-.276 0-.51.106-.659.34-.17.233-.255.51-.255.87v.935c0 .361.085.637.255.871.17.234.404.34.701.34.298 0 .51-.085.638-.234.148-.149.212-.382.212-.7h.913v-.064zm3.526-.447h-1.933v1.317H52.7v.723h-3.186v-4.652H52.7v.722h-2.252v1.168h1.933v.722zm3.93-1.89h-2.103v3.93h-.934v-4.652h3.037v.722zm4.312 5.077h-.85v-1.147h-2.846v1.147h-.85l-.063-1.87h.36c.17-.148.32-.36.447-.68.127-.297.191-.764.212-1.359l.128-1.911h3.016v3.93h.552l-.106 1.89zm-2.698-3.887a5.69 5.69 0 01-.17 1.189c-.084.34-.212.616-.36.828h1.826v-3.207h-1.21l-.086 1.19zm5.863 1.741h-1.636l-.318.999h-.935l1.593-4.652h.956l1.593 4.652h-.934l-.319-.999zm-1.402-.743h1.168l-.573-1.827h-.021l-.574 1.827zm4.015.127h-.935v-3.037h.935v3.037zm0 1.615h-.935v-.808h.935v.808z" fill="#fff"/></svg>