<svg width="81" height="81" fill="none" xmlns="http://www.w3.org/2000/svg"><path d="M47.26 27.284a3.438 3.438 0 01-.01-.284v-3.375a3.375 3.375 0 00-3.375-3.375H13.5a3.375 3.375 0 00-3.375 3.375v27A3.375 3.375 0 0013.5 54h1.137a11.812 11.812 0 0121.35 0h12.4a11.812 11.812 0 0121.043-.608 3.372 3.372 0 001.445-2.767v-5.626c0-2.19-.71-4.323-2.025-6.075l-3.372-4.496a10.126 10.126 0 00-8.1-4.053H54.01v6.612a3.375 3.375 0 01-6.75 0v-9.704zm.108 33.466H37.007a11.813 11.813 0 01-23.389 0H13.5A10.125 10.125 0 013.375 50.625v-27A10.125 10.125 0 0113.5 13.5h30.375A10.125 10.125 0 0154 23.625h3.378a16.875 16.875 0 0113.5 6.753l3.375 4.5a16.876 16.876 0 013.372 10.12v5.627a10.128 10.128 0 01-6.804 9.568 11.813 11.813 0 01-23.453.557zm-22.056 3.375a5.062 5.062 0 100-10.125 5.062 5.062 0 000 10.125zm33.75 0a5.062 5.062 0 100-10.125 5.062 5.062 0 000 10.125z" fill="#ED2226"/></svg>