<svg width="177" height="42" fill="none" xmlns="http://www.w3.org/2000/svg"><path d="M59.62 20.236h-1.098V24h-1.905v-3.764h-1.123L53.48 24h-2.374l2.882-4.957-2.742-4.285h2.368l2.056 3.726h.946v-3.726h1.905v3.726h.926l2.006-3.726h2.361l-2.691 4.278L63.961 24h-2.38l-1.961-3.764zm8.055 3.891c-1.007 0-1.828-.309-2.463-.927-.63-.618-.946-1.44-.946-2.469v-.178c0-.69.133-1.305.4-1.847a2.917 2.917 0 011.13-1.257c.49-.296 1.05-.444 1.676-.444.94 0 1.678.296 2.215.889.542.592.813 1.432.813 2.52v.749h-4.374c.06.448.237.808.533 1.079.3.27.68.406 1.136.406.707 0 1.26-.256 1.657-.768l.901 1.01a2.768 2.768 0 01-1.117.913c-.47.216-.99.324-1.561.324zm-.21-5.637c-.364 0-.66.123-.888.368-.225.246-.368.597-.432 1.054h2.552v-.146c-.009-.406-.119-.72-.33-.94-.212-.224-.512-.336-.902-.336zm10.055-1.358V24h-1.834v-5.383h-1.62l-.113 2.12c-.072 1.13-.294 1.953-.667 2.47-.372.516-.927.78-1.663.793h-.622l-.02-1.492.23-.019c.33-.025.57-.22.723-.584.152-.364.248-.984.286-1.86l.127-2.913h5.173zm10.106 9.141h-1.759V24h-5.573v2.266H78.49l-.101-3.796h.698c.377-.313.666-.772.87-1.377.207-.61.347-1.363.418-2.26l.267-4.075H86.7v7.712h1.079l-.153 3.803zM81.27 22.47h3.523V16.3h-2.342l-.159 2.431c-.127 1.63-.467 2.876-1.022 3.74zm7.104-1.968c0-.68.132-1.288.394-1.821a2.887 2.887 0 011.13-1.238c.495-.292 1.069-.438 1.72-.438.927 0 1.682.283 2.266.85.588.567.916 1.338.984 2.311l.013.47c0 1.053-.294 1.9-.882 2.539-.589.635-1.378.952-2.368.952s-1.782-.317-2.374-.952c-.588-.635-.883-1.498-.883-2.59v-.083zm1.835.134c0 .651.123 1.15.368 1.498.246.343.597.514 1.054.514.444 0 .791-.17 1.04-.508.25-.343.375-.889.375-1.638 0-.639-.124-1.134-.374-1.485-.25-.351-.601-.527-1.054-.527-.448 0-.795.176-1.04.527-.246.347-.369.887-.369 1.619zm11.984-.006c0 1.057-.241 1.906-.723 2.545-.478.635-1.126.952-1.943.952-.694 0-1.254-.241-1.682-.724v3.238h-1.834v-9.51h1.7l.064.674c.445-.534 1.024-.8 1.74-.8.846 0 1.504.313 1.974.94.469.626.704 1.489.704 2.59v.094zm-1.834-.134c0-.639-.114-1.132-.343-1.479-.224-.347-.552-.52-.984-.52-.575 0-.971.22-1.187.66v2.812c.225.453.624.679 1.2.679.876 0 1.314-.717 1.314-2.152zm4.577.432c.055.596.23 1.026.526 1.288.297.258.726.387 1.289.387.622 0 1.083-.205 1.384-.615.3-.415.474-1.026.52-1.835h-2.92v-1.542h2.914c-.051-.825-.237-1.437-.559-1.835-.317-.402-.772-.603-1.364-.603-.576 0-1.008.138-1.295.413-.288.27-.455.709-.502 1.314h-1.904c.093-1.011.461-1.81 1.104-2.393.648-.584 1.513-.876 2.597-.876.77 0 1.445.182 2.024.546.584.36 1.033.878 1.346 1.555.313.673.47 1.458.47 2.355v.603c0 1.363-.341 2.444-1.022 3.244-.677.795-1.608 1.193-2.793 1.193-1.092 0-1.968-.288-2.628-.863-.656-.58-1.02-1.359-1.092-2.336h1.905zm9.546.539h-.736V24h-1.834v-6.868h1.834v2.583h.654l1.498-2.583h2.317l-2.247 3.269L118.424 24h-2.444l-1.498-2.533zm7.389 1.181c.339 0 .614-.093.825-.28a.976.976 0 00.33-.742h1.721a2.381 2.381 0 01-.381 1.282c-.25.385-.593.686-1.029.902a3.21 3.21 0 01-1.434.317c-.982 0-1.756-.311-2.323-.933-.567-.627-.851-1.49-.851-2.59v-.12c0-1.059.281-1.903.844-2.533.563-.63 1.335-.946 2.317-.946.859 0 1.547.245 2.063.736.521.487.785 1.136.794 1.949h-1.721c-.008-.356-.118-.643-.33-.863-.211-.225-.491-.337-.838-.337-.427 0-.751.157-.971.47-.216.309-.324.813-.324 1.51v.191c0 .707.108 1.215.324 1.524.216.309.544.463.984.463zM131.767 24h-1.841v-5.383h-2.298V24h-1.834v-6.868h5.973V24zm4.564.127c-1.007 0-1.828-.309-2.463-.927-.63-.618-.946-1.44-.946-2.469v-.178c0-.69.134-1.305.4-1.847a2.918 2.918 0 011.13-1.257c.491-.296 1.05-.444 1.676-.444.939 0 1.678.296 2.215.889.542.592.813 1.432.813 2.52v.749h-4.374c.059.448.237.808.533 1.079.301.27.68.406 1.137.406.706 0 1.259-.256 1.656-.768l.902 1.01a2.782 2.782 0 01-1.117.913 3.7 3.7 0 01-1.562.324zm-.209-5.637c-.364 0-.661.123-.889.368-.224.246-.368.597-.432 1.054h2.552v-.146c-.008-.406-.118-.72-.33-.94-.212-.224-.512-.336-.901-.336zm4.176 4.031c.415-.44.696-.876.845-1.308.148-.431.23-1.043.247-1.834l.051-2.247h5.053v5.389h.99v3.542h-1.835V24h-4.068v2.063h-1.873v-3.542h.59zm2.165 0h2.203v-3.872h-1.429l-.012.825c-.038 1.261-.292 2.277-.762 3.047zm9.978-5.389h1.835V24h-1.835v-4.24L150.144 24h-1.841v-6.868h1.841v4.234l2.297-4.234zm3.238 0h1.834v5.389h2.298v-5.39h1.841v5.403h1.028l-.127 3.504h-1.707V24h-5.167v-6.868zm12.06 0h1.835V24h-1.835v-4.24L165.441 24h-1.84v-6.868h1.84v4.234l2.298-4.234zm8.963 0V24h-1.828v-2.374h-1.162L172.392 24h-1.86l1.498-2.685a2.298 2.298 0 01-.952-.774 1.939 1.939 0 01-.33-1.111c0-.665.256-1.209.768-1.632.516-.427 1.206-.65 2.069-.666h3.117zm-3.085 3.212h1.257v-1.74h-1.193c-.326 0-.591.087-.794.26a.78.78 0 00-.304.623.76.76 0 00.292.61c.194.16.442.242.742.247z" fill="#E6342A"/><path fill-rule="evenodd" clip-rule="evenodd" d="M19.788.571C12.385 3.938 6.25 8.411.888 14.351c-.787.87-.798.89-.757 1.255L.31 17.19c.82 7.316 3.374 14.96 7.253 21.715.614 1.07.405.953 2.423 1.362 7.173 1.453 14.934 1.453 22.112-.001 2.072-.42 1.84-.287 2.493-1.426 4.087-7.118 6.625-15.09 7.285-22.884l.06-.713-.39-.456C36.51 8.928 29.29 3.627 22.07.487 20.947 0 21.056-.005 19.788.571zm3.72 2.278c6.134 3.05 10.683 6.42 15.619 11.57l1.245 1.299-.052.646c-.532 6.567-3.165 14.865-6.677 21.043-.706 1.24-.49 1.09-1.998 1.387-7.034 1.382-13.94 1.38-21.148-.008l-1.41-.271-.387-.66c-3.412-5.833-5.919-13.378-6.803-20.473-.236-1.9-.426-1.52 1.957-3.916 4.715-4.74 9.726-8.303 15.544-11.055 1.768-.836 1.49-.866 4.11.438zm-3.33 6.287c0 .282.018.303.272.303h.273l-.048 1.018c-.059 1.272-.41 2.47-.736 2.517-.188.027-.195.06-.195.931v.903h.953v-1.131l1.104.025 1.104.024-.028.541-.028.541h.966v-1.72l-.239-.027-.238-.028-.026-1.342c-.038-1.92.011-2.252.336-2.252.232 0 .253-.025.253-.303v-.303h-3.724v.303zm-5.39.557l-.283.253.026.865c.024.813.014.873-.17 1.001-.24.169-.281.128-.454-.462-.178-.607-.174-.669.044-.726.166-.043.182-.487.024-.658-.076-.084-1.764.453-1.764.56 0 .323.162.537.376.496.256-.05.684 1.064.465 1.207-.253.165-.456.017-.755-.551-.471-.895-.837-1.157-1.378-.985-.29.091-.263.738.03.738.258 0 .466.199.632.603.162.393.443.696.645.696.087 0 .158.039.158.087 0 .047-.035.086-.077.086-.18 0-.293.538-.238 1.133.054.578.046.616-.172.818l-.229.212.229.3c.255.334.557.316.89-.053.162-.181.2-1.075.074-1.773-.054-.303.117-.55.381-.55.359 0 .603 1.463.246 1.47-.09.002-.079.365.016.516.16.254 1.836-.305 1.768-.59-.08-.333-.104-.357-.364-.357-.218 0-.248-.044-.385-.557a12.223 12.223 0 00-.199-.689c-.07-.182.351-.286.536-.133.075.063.288.415.473.783.382.76.586.942 1.056.942.35 0 .37-.024.44-.536.043-.306.034-.32-.226-.346-.235-.023-.315-.104-.588-.59-.21-.375-.419-.621-.623-.738-.286-.162-.299-.186-.178-.346.097-.129.12-.332.09-.815-.036-.596-.023-.657.174-.84.21-.194.21-.199.056-.46-.196-.331-.386-.334-.746-.011zm7.535 1.543l-.024 1.71-.255.03c-.14.015-.418.004-.618-.026l-.363-.054.165-.433c.167-.44.33-1.66.334-2.482l.001-.455h.783l-.023 1.71zm6.107-1.454c-.118.05-.223.206-.276.41-.234.893-.249.84.262.936.31.058.315.054.432-.317.252-.796 1.34-.14 1.325.799-.008.594-.035.6-1.218.288-.154-.04-.203.004-.288.26-.133.404-.1.441.503.57.745.157.763.176.59.63-.368.963-1.945 1.311-1.739.383.106-.473.09-.517-.212-.597-.423-.113-.491-.055-.614.526-.143.674-.105.754.494 1.034.671.314 1.612.328 2.17.033 1.202-.635 1.665-3.445.724-4.397-.447-.453-1.661-.768-2.152-.558zm-10.672 3.203c-.243.243-.238.723.011.954.574.534 1.511-.225 1.047-.848-.23-.31-.797-.367-1.058-.106zm7.212.14c-.18.18-.212.276-.169.498.158.82 1.352.76 1.352-.067 0-.616-.731-.882-1.183-.43zM4.676 16.697c.072.044 3.784 1.667 8.249 3.606l8.118 3.527 8.224-3.576c4.524-1.966 8.216-3.584 8.205-3.594-.01-.011-.573.074-1.25.188-3.29.557-7.482 1.095-10.546 1.355-.765.065-2.668.11-4.633.11-3.455 0-4.441-.054-7.88-.437-2.448-.273-7.156-.953-8.386-1.212-.163-.034-.193-.024-.1.032zM15.17 31.053c-3.204 3.935-5.814 7.166-5.8 7.18.015.014 2.619-1.742 5.786-3.902 3.167-2.16 5.809-3.929 5.87-3.931.092-.004 2.784 1.808 11.341 7.633.203.138.368.232.368.209 0-.065-11.6-14.295-11.674-14.32-.035-.013-2.686 3.196-5.89 7.131z" fill="#E6342A"/></svg>