<svg width="36" height="36" fill="none" xmlns="http://www.w3.org/2000/svg"><path d="M36 18c0 9.941-8.059 18-18 18S0 27.941 0 18 8.059 0 18 0s18 8.059 18 18z" fill="#fff"/><path fill-rule="evenodd" clip-rule="evenodd" d="M18 34.054c8.866 0 16.054-7.188 16.054-16.054S26.866 1.946 18 1.946 1.946 9.134 1.946 18 9.134 34.054 18 34.054zM18 36c9.941 0 18-8.059 18-18S27.941 0 18 0 0 8.059 0 18s8.059 18 18 18z" fill="#ED2226"/><path d="M19.597 9.415c0 .453-.163.843-.49 1.169a1.551 1.551 0 01-1.141.462c-.453 0-.843-.154-1.17-.462a1.644 1.644 0 01-.461-1.17c0-.452.154-.833.462-1.141.326-.326.716-.49 1.169-.49.453 0 .833.164 1.142.49.326.308.489.689.489 1.142zm2.719 16.855h-7.721v-1.196h1.74c.362 0 .589-.027.68-.082.18-.108.271-.362.271-.76v-8.265c0-.327-.036-.535-.109-.626-.145-.18-.507-.271-1.087-.271h-1.169v-1.197l4.703-.38V24.23c0 .38.073.616.218.707.145.09.39.136.734.136h1.74v1.196z" fill="#ED2226"/></svg>