<svg xmlns="http://www.w3.org/2000/svg" viewBox="0 0 21.1 21.1"><path fill-rule="evenodd" clip-rule="evenodd" fill="#808D9A" d="M.8 14.3c.2 0 .4.1.5.2.1.1.2.3.2.5v4.5H6c.2 0 .4.1.5.2.1.1.2.3.2.5s-.1.4-.2.5c-.1.3-.3.4-.5.4H.8c-.2 0-.4-.1-.5-.2-.2-.2-.3-.4-.3-.6V15c0-.2.1-.4.2-.5.2-.1.4-.2.6-.2z"/><path fill-rule="evenodd" clip-rule="evenodd" fill="#808D9A" d="M7.5 13.5c.1.1.2.3.2.5s-.1.4-.2.5l-6.2 6.2c-.2.2-.4.3-.6.3-.2 0-.4-.1-.5-.2-.1-.2-.2-.4-.2-.5 0-.2.1-.4.2-.5l6.2-6.2c.1-.1.3-.2.5-.2.3-.1.5 0 .6.1zM20.8.2c.1.1.1.2.2.2v.4c0 .1 0 .2-.1.3s-.1.2-.2.2l-6.2 6.2c-.1.1-.3.2-.5.2s-.4-.1-.5-.2c-.1-.1-.2-.3-.2-.5s.1-.4.2-.5L19.7.3c.2-.2.4-.3.6-.3.1 0 .3.1.5.2z"/><path fill-rule="evenodd" clip-rule="evenodd" fill="#808D9A" d="M14.3.8c0-.2.1-.4.2-.5.2-.2.4-.3.6-.3h5.3c.2 0 .4.1.5.2.1.1.2.3.2.5V6c0 .2-.1.4-.2.5-.1.1-.3.2-.5.2s-.4-.1-.5-.2c-.1-.1-.2-.3-.2-.5V1.5h-4.5c-.2 0-.4-.1-.5-.2-.3-.2-.4-.4-.4-.5zm6 13.5c-.2 0-.4.1-.5.2-.1.1-.2.3-.2.5v4.5h-4.5c-.2 0-.4.1-.5.2-.1.1-.2.3-.2.5s.1.4.2.5c.1.1.3.2.5.2h5.3c.2 0 .4-.1.5-.2.1-.1.2-.3.2-.5V15c0-.2-.1-.4-.2-.5-.2-.2-.4-.2-.6-.2z"/><path fill-rule="evenodd" clip-rule="evenodd" fill="#808D9A" d="M13.6 13.4c-.1.1-.1.2-.2.2 0 .1-.1.2-.1.3 0 .1 0 .2.1.3 0 .1.1.2.2.2l6.2 6.2c.1.1.3.2.5.2.1 0 .2 0 .3-.1.1 0 .2-.1.2-.2.1-.1.1-.2.2-.2 0-.1.1-.2.1-.3 0-.1 0-.2-.1-.3 0-.1-.1-.2-.2-.2l-6.2-6.2c-.1-.1-.3-.2-.5-.2-.2.1-.4.2-.5.3zM.3.2C.3.3.2.4.2.5.2.6.1.7.1.8c0 .1 0 .2.1.3 0 .1.1.2.2.2l6.2 6.2c.1.1.3.2.5.2s.4-.1.5-.2c.1-.1.2-.3.2-.5s-.1-.4-.2-.5L1.4.2C1.2.1 1.1 0 .9 0S.5.1.3.2z"/><path fill-rule="evenodd" clip-rule="evenodd" fill="#808D9A" d="M6.8.8c0-.2-.1-.4-.2-.5-.2-.2-.3-.3-.5-.3H.8C.6 0 .4.1.3.2S.1.6.1.8V6c0 .2.1.4.2.5.1.1.3.2.5.2s.4-.1.5-.2c.2-.1.3-.3.3-.5V1.5h4.5c.2 0 .4-.1.5-.2.1-.2.2-.4.2-.5z"/></svg>